<svg width="201" height="200" viewBox="0 0 201 200" fill="none" xmlns="http://www.w3.org/2000/svg">
<path d="M101 50L1 149.5H200L101 50Z" fill="#659CD9" stroke="#3E72AC" stroke-linecap="round" stroke-linejoin="round"/>
<path d="M83.5 144L1 149.5L11 139.5L83.5 144Z" fill="#83B6EE" stroke="#3E72AC" stroke-linecap="round" stroke-linejoin="round"/>
<path d="M118 144L200.5 149.5L190.5 139.5L118 144Z" fill="#83B6EE" stroke="#3E72AC" stroke-linecap="round" stroke-linejoin="round"/>
<path d="M83.5 144L1.5 139L101 50.5L83.5 144Z" fill="#D9EBFF" stroke="#3E72AC" stroke-linecap="round" stroke-linejoin="round"/>
<path d="M118 144L200 139L100.5 50.5L118 144Z" fill="#D9EBFF" stroke="#3E72AC" stroke-linecap="round" stroke-linejoin="round"/>
<path d="M83.5 144L1.5 139L101 50.5L83.5 144Z" fill="#83B6EE" stroke="#3E72AC" stroke-linecap="round" stroke-linejoin="round"/>
<path d="M118 144L200 139L100.5 50.5L118 144Z" fill="#83B6EE" stroke="#3E72AC" stroke-linecap="round" stroke-linejoin="round"/>
<path d="M101 50L1.5 139H200.5L101 50Z" fill="#D9EBFF" stroke="#3E72AC" stroke-linecap="round" stroke-linejoin="round"/>
</svg>
