<?xml version="1.0" encoding="UTF-8" standalone="no"?>
<!-- Generator: Adobe Illustrator 16.0.0, SVG Export Plug-In . SVG Version: 6.00 Build 0)  -->

<svg
   xmlns:dc="http://purl.org/dc/elements/1.1/"
   xmlns:cc="http://creativecommons.org/ns#"
   xmlns:rdf="http://www.w3.org/1999/02/22-rdf-syntax-ns#"
   xmlns:svg="http://www.w3.org/2000/svg"
   xmlns="http://www.w3.org/2000/svg"
   xmlns:sodipodi="http://sodipodi.sourceforge.net/DTD/sodipodi-0.dtd"
   xmlns:inkscape="http://www.inkscape.org/namespaces/inkscape"
   version="1.1"
   x="0px"
   y="0px"
   width="1100"
   height="1100"
   viewBox="0 0 1100 1100"
   enable-background="new 0 0 1200 1000"
   xml:space="preserve"
   id="svg10"
   inkscape:version="0.91+devel+osxmenu r12922"
   sodipodi:docname="poly-3.svg"><metadata
     id="metadata440"><rdf:RDF><cc:Work
         rdf:about=""><dc:format>image/svg+xml</dc:format><dc:type
           rdf:resource="http://purl.org/dc/dcmitype/StillImage" /><dc:title></dc:title></cc:Work></rdf:RDF></metadata><defs
     id="defs438" /><sodipodi:namedview
     pagecolor="#ffffff"
     bordercolor="#666666"
     borderopacity="1"
     objecttolerance="10"
     gridtolerance="10"
     guidetolerance="10"
     inkscape:pageopacity="0"
     inkscape:pageshadow="2"
     inkscape:window-width="1676"
     inkscape:window-height="1005"
     id="namedview436"
     showgrid="false"
     fit-margin-top="0"
     fit-margin-left="0"
     fit-margin-right="0"
     fit-margin-bottom="0"
     inkscape:zoom="0.6675088"
     inkscape:cx="791.13669"
     inkscape:cy="453.08606"
     inkscape:window-x="0"
     inkscape:window-y="23"
     inkscape:window-maximized="0"
     inkscape:current-layer="svg10" /><g
     id="Ñëîé_2"
     transform="translate(1171.2143,631.34991)"
     style="fill:#e9514d;fill-opacity:1" /><g
     id="g344"
     transform="translate(-39.4015,122.0885)"
     style="fill:#e9514d;fill-opacity:1"><g
       id="g346"
       style="fill:#e9514d;fill-opacity:1"><path
         d="m 460.728,617.933 c 0.024,0.146 0.003,0.29 -0.069,0.424 -0.141,0.261 -0.425,0.394 -0.713,0.338 L 350.005,596.064 c -0.253,-0.052 -0.451,-0.247 -0.51,-0.498 -0.069,-0.252 0.036,-0.516 0.246,-0.682 l 50.164,-38.508 c 0.274,-0.203 0.646,-0.178 0.879,0.062 l 59.765,61.141 c 0.101,0.097 0.158,0.227 0.179,0.354 z m -109.036,-22.875 106.396,21.897 -57.835,-59.176 -48.561,37.279 z"
         id="path348"
         inkscape:connector-curvature="0"
         style="fill:#e9514d;fill-opacity:1" /><path
         d="m 251.368,287.915 c -0.06,0 -0.129,-0.01 -0.189,-0.027 -0.234,-0.068 -0.415,-0.268 -0.458,-0.517 l -6.112,-33.78 c -0.052,-0.319 0.122,-0.631 0.432,-0.743 l 58.97,-21.736 c 0.286,-0.104 0.613,0 0.786,0.26 0.172,0.257 0.137,0.595 -0.079,0.819 l -52.865,55.518 c -0.13,0.135 -0.303,0.206 -0.485,0.206 z m -5.35,-34.014 5.774,31.95 50,-52.505 -55.774,20.555 z"
         id="path350"
         inkscape:connector-curvature="0"
         style="fill:#e9514d;fill-opacity:1" /><path
         d="m 1026.297,624.329 c -0.189,0 -0.379,-0.08 -0.509,-0.235 -0.2,-0.243 -0.208,-0.588 -0.017,-0.845 l 22.099,-28.281 c 0.155,-0.198 0.415,-0.293 0.665,-0.242 0.24,0.053 0.441,0.242 0.502,0.483 l 3.539,14.15 c 0.067,0.294 -0.062,0.596 -0.33,0.741 l -25.629,14.141 c -0.105,0.062 -0.219,0.088 -0.32,0.088 z m 21.779,-27.479 -19.267,24.671 22.349,-12.335 -3.082,-12.336 z"
         id="path352"
         inkscape:connector-curvature="0"
         style="fill:#e9514d;fill-opacity:1" /><path
         d="m 999.594,500.025 c -0.078,0 -0.165,-0.017 -0.242,-0.042 l -38.01,-14.617 c -0.2,-0.086 -0.345,-0.25 -0.404,-0.457 -0.052,-0.207 0,-0.423 0.13,-0.596 l 19.008,-22.98 c 0.138,-0.171 0.364,-0.258 0.587,-0.231 0.224,0.025 0.416,0.164 0.518,0.353 l 19,37.605 c 0.13,0.25 0.087,0.542 -0.094,0.741 -0.132,0.146 -0.313,0.224 -0.493,0.224 z m -36.913,-15.574 35.539,13.675 -17.766,-35.17 -17.773,21.495 z"
         id="path354"
         inkscape:connector-curvature="0"
         style="fill:#e9514d;fill-opacity:1" /><path
         d="m 407.397,130.287 c -0.025,0 -0.052,0 -0.078,0 l -66.091,-7.312 c -0.31,-0.034 -0.552,-0.275 -0.587,-0.585 -0.033,-0.302 0.139,-0.596 0.431,-0.699 l 33.054,-11.49 c 0.183,-0.069 0.381,-0.045 0.544,0.05 l 33.054,18.803 c 0.268,0.155 0.397,0.482 0.302,0.777 -0.085,0.274 -0.342,0.456 -0.629,0.456 z m -63.112,-8.303 59.996,6.629 -30.007,-17.067 -29.989,10.438 z"
         id="path356"
         inkscape:connector-curvature="0"
         style="fill:#e9514d;fill-opacity:1" /><path
         d="m 812.489,124.973 c -0.156,0 -0.292,-0.042 -0.414,-0.138 -0.259,-0.208 -0.328,-0.57 -0.164,-0.864 l 28.885,-48.945 c 0.129,-0.225 0.372,-0.346 0.647,-0.319 0.25,0.023 0.467,0.205 0.553,0.447 l 5.394,16.152 c 0.079,0.243 0.011,0.519 -0.172,0.691 l -34.279,32.795 c -0.122,0.13 -0.294,0.181 -0.45,0.181 z m 28.712,-48.014 -25.709,43.561 30.513,-29.196 -4.804,-14.365 z"
         id="path358"
         inkscape:connector-curvature="0"
         style="fill:#e9514d;fill-opacity:1" /><path
         d="m 1062.373,333.2 c -0.181,0 -0.361,-0.067 -0.492,-0.216 L 985.74,250.345 c -0.199,-0.216 -0.232,-0.535 -0.084,-0.787 0.152,-0.249 0.447,-0.377 0.732,-0.309 l 34.349,8.667 c 0.183,0.042 0.328,0.154 0.415,0.309 l 41.799,73.984 c 0.164,0.292 0.077,0.663 -0.189,0.861 -0.122,0.087 -0.261,0.13 -0.389,0.13 z m -74.155,-82.12 70.756,76.796 -38.832,-68.743 -31.924,-8.053 z"
         id="path360"
         inkscape:connector-curvature="0"
         style="fill:#e9514d;fill-opacity:1" /><path
         d="m 366.166,759.796 c -0.011,-0.013 -0.023,-0.025 -0.028,-0.03 l -43.062,-52.172 c -0.196,-0.243 -0.198,-0.583 -0.015,-0.828 0.195,-0.247 0.526,-0.323 0.812,-0.2 l 32.615,15.558 c 0.176,0.085 0.293,0.233 0.349,0.418 l 10.445,36.612 c 0.084,0.3 -0.052,0.621 -0.332,0.767 -0.259,0.141 -0.581,0.088 -0.784,-0.125 z m -40.161,-50.734 39.135,47.412 -9.491,-33.279 -29.644,-14.133 z"
         id="path362"
         inkscape:connector-curvature="0"
         style="fill:#e9514d;fill-opacity:1" /><g
         id="g364"
         style="fill:#e9514d;fill-opacity:1"><path
           d="m 229.197,514.965 c 0.005,0.149 -0.046,0.29 -0.141,0.397 l -63.707,84.832 c -0.127,0.185 -0.348,0.275 -0.566,0.232 -0.155,-0.014 -0.332,-0.131 -0.429,-0.305 l -37.107,-79.726 c -0.033,-0.058 -0.057,-0.145 -0.059,-0.23 -0.004,-0.118 0.03,-0.232 0.095,-0.332 0.077,-0.148 0.266,-0.267 0.462,-0.273 l 100.826,-5.167 c 0.231,-0.007 0.45,0.116 0.552,0.308 0.046,0.081 0.072,0.173 0.074,0.264 z m -1.81,0.662 -98.709,5.056 36.313,78.038 62.396,-83.094 z"
           id="path366"
           inkscape:connector-curvature="0"
           style="fill:#e9514d;fill-opacity:1" /><path
           d="m 127.667,516.745 c -1.878,0.061 -3.347,1.634 -3.288,3.512 0.059,1.869 1.625,3.358 3.502,3.298 1.878,-0.06 3.347,-1.644 3.288,-3.511 -0.06,-1.88 -1.625,-3.357 -3.502,-3.299 z"
           id="path368"
           inkscape:connector-curvature="0"
           style="fill:#e9514d;fill-opacity:1" /></g><path
         d="m 866.225,460.98 c -0.021,-0.099 -0.011,-0.205 0.025,-0.321 0.092,-0.214 0.239,-0.339 0.419,-0.377 l 64.796,-15.037 c 0.22,-0.048 0.433,0.021 0.574,0.182 0.072,0.097 0.11,0.178 0.129,0.265 0.027,0.123 0.012,0.248 -0.038,0.36 l -30.006,73.714 c -0.103,0.224 -0.302,0.356 -0.529,0.358 -0.187,0.02 -0.4,-0.091 -0.517,-0.284 l -34.805,-58.735 -0.048,-0.125 z m 1.49,0.27 33.768,56.974 29.141,-71.577 -62.909,14.603 z"
         id="path370"
         inkscape:connector-curvature="0"
         style="fill:#e9514d;fill-opacity:1" /></g><g
       id="g372"
       style="fill:#e9514d;fill-opacity:1"><path
         d="m 989.623,252.843 c 2,-2.097 1.922,-5.43 -0.175,-7.428 -2.096,-2 -5.416,-1.911 -7.416,0.186 -2,2.095 -1.922,5.406 0.177,7.405 2.095,1.999 5.416,1.932 7.414,-0.163 z"
         id="path374"
         inkscape:connector-curvature="0"
         style="fill:#e9514d;fill-opacity:1" /><path
         d="m 355.312,590.729 c -2.396,-1.629 -5.671,-1.004 -7.298,1.39 -1.628,2.397 -0.995,5.658 1.402,7.286 2.394,1.628 5.647,1.009 7.275,-1.39 1.629,-2.396 1.017,-5.66 -1.379,-7.286 z"
         id="path376"
         inkscape:connector-curvature="0"
         style="fill:#e9514d;fill-opacity:1" /><path
         d="m 306.554,231.012 c -0.846,-1.792 -2.991,-2.561 -4.781,-1.714 -1.792,0.845 -2.551,2.986 -1.704,4.777 0.845,1.791 2.977,2.554 4.768,1.708 1.791,-0.845 2.562,-2.982 1.717,-4.771 z"
         id="path378"
         inkscape:connector-curvature="0"
         style="fill:#e9514d;fill-opacity:1" /><path
         d="m 398.542,555.221 c -1.628,1.129 -2.033,3.371 -0.905,4.999 1.127,1.627 3.366,2.024 4.992,0.895 1.627,-1.127 2.03,-3.356 0.902,-4.982 -1.129,-1.63 -3.361,-2.04 -4.989,-0.912 z"
         id="path380"
         inkscape:connector-curvature="0"
         style="fill:#e9514d;fill-opacity:1" /><path
         d="m 377.473,109.36 c -0.846,-1.792 -2.991,-2.56 -4.782,-1.713 -1.791,0.846 -2.551,2.986 -1.703,4.778 0.845,1.79 2.977,2.554 4.768,1.707 1.791,-0.846 2.562,-2.982 1.717,-4.772 z"
         id="path382"
         inkscape:connector-curvature="0"
         style="fill:#e9514d;fill-opacity:1" /><path
         d="m 249.15,251.566 c -0.847,-1.792 -2.991,-2.56 -4.782,-1.713 -1.792,0.846 -2.551,2.986 -1.703,4.777 0.845,1.79 2.977,2.554 4.768,1.708 1.791,-0.846 2.562,-2.983 1.717,-4.772 z"
         id="path384"
         inkscape:connector-curvature="0"
         style="fill:#e9514d;fill-opacity:1" /><path
         d="m 1002.113,497.578 c -0.846,-1.793 -2.99,-2.562 -4.781,-1.715 -1.791,0.847 -2.551,2.986 -1.703,4.778 0.845,1.79 2.978,2.553 4.767,1.707 1.792,-0.846 2.563,-2.982 1.717,-4.77 z"
         id="path386"
         inkscape:connector-curvature="0"
         style="fill:#e9514d;fill-opacity:1" /><path
         d="m 983.503,460.542 c -0.845,-1.792 -2.99,-2.56 -4.781,-1.714 -1.791,0.846 -2.551,2.987 -1.703,4.778 0.846,1.79 2.978,2.554 4.768,1.707 1.791,-0.846 2.562,-2.982 1.716,-4.771 z"
         id="path388"
         inkscape:connector-curvature="0"
         style="fill:#e9514d;fill-opacity:1" /></g></g></svg>