<?xml version="1.0" encoding="UTF-8" standalone="no"?>
<!-- Generator: Adobe Illustrator 16.0.0, SVG Export Plug-In . SVG Version: 6.00 Build 0)  -->

<svg
   xmlns:dc="http://purl.org/dc/elements/1.1/"
   xmlns:cc="http://creativecommons.org/ns#"
   xmlns:rdf="http://www.w3.org/1999/02/22-rdf-syntax-ns#"
   xmlns:svg="http://www.w3.org/2000/svg"
   xmlns="http://www.w3.org/2000/svg"
   xmlns:sodipodi="http://sodipodi.sourceforge.net/DTD/sodipodi-0.dtd"
   xmlns:inkscape="http://www.inkscape.org/namespaces/inkscape"
   version="1.1"
   x="0px"
   y="0px"
   width="1100"
   height="1100"
   viewBox="0 0 1100 1100"
   enable-background="new 0 0 1200 1000"
   xml:space="preserve"
   id="svg10"
   inkscape:version="0.91+devel+osxmenu r12922"
   sodipodi:docname="poly-1.svg"><metadata
     id="metadata440"><rdf:RDF><cc:Work
         rdf:about=""><dc:format>image/svg+xml</dc:format><dc:type
           rdf:resource="http://purl.org/dc/dcmitype/StillImage" /><dc:title></dc:title></cc:Work></rdf:RDF></metadata><defs
     id="defs438" /><sodipodi:namedview
     pagecolor="#ffffff"
     bordercolor="#666666"
     borderopacity="1"
     objecttolerance="10"
     gridtolerance="10"
     guidetolerance="10"
     inkscape:pageopacity="0"
     inkscape:pageshadow="2"
     inkscape:window-width="1676"
     inkscape:window-height="1005"
     id="namedview436"
     showgrid="false"
     fit-margin-top="0"
     fit-margin-left="0"
     fit-margin-right="0"
     fit-margin-bottom="0"
     inkscape:zoom="0.6675088"
     inkscape:cx="791.13669"
     inkscape:cy="453.08606"
     inkscape:window-x="0"
     inkscape:window-y="23"
     inkscape:window-maximized="0"
     inkscape:current-layer="svg10" /><g
     id="Ñëîé_2"
     transform="translate(1171.2143,631.34991)"
     style="fill:#e9514d;fill-opacity:1" /><g
     id="g4605"
     style="fill:#e9514d;fill-opacity:1"><g
       transform="translate(-39.4015,122.0885)"
       id="g16"
       style="fill:#e9514d;fill-opacity:1"><path
         inkscape:connector-curvature="0"
         id="path18"
         d="m 319.565,441.757 c -0.252,0 -0.487,-0.176 -0.557,-0.419 l -22.294,-63.459 c -0.089,-0.273 0.011,-0.55 0.246,-0.699 l 49.664,-30.298 c 0.084,-0.057 0.196,-0.091 0.312,-0.091 0.136,0 0.266,0.049 0.366,0.136 0.182,0.158 0.254,0.392 0.19,0.611 L 320.12,441.33 c -0.06,0.233 -0.269,0.404 -0.527,0.426 l -0.015,0.001 -0.013,0 z m -0.05,-2.51 26.433,-90.575 -47.97,29.261 21.537,61.314 z"
         style="fill:#e9514d;fill-opacity:1" /><path
         inkscape:connector-curvature="0"
         id="path20"
         d="m 346.927,477.171 c -0.155,0 -0.304,-0.067 -0.432,-0.193 l -27.391,-35.449 c -0.116,-0.134 -0.159,-0.341 -0.104,-0.527 l 27.369,-93.789 c 0.088,-0.259 0.311,-0.421 0.561,-0.421 l 0.091,0.007 c 0.286,0.044 0.497,0.286 0.497,0.576 l 0,129.205 c 0,0.238 -0.153,0.458 -0.38,0.548 l -0.062,0.024 -0.149,0.019 z m -0.583,-2.308 0,-123.384 -26.133,89.559 26.133,33.825 z"
         style="fill:#e9514d;fill-opacity:1" /><path
         inkscape:connector-curvature="0"
         id="path22"
         d="m 346.927,477.171 c -0.118,0 -0.208,-0.044 -0.262,-0.07 -0.215,-0.134 -0.321,-0.32 -0.321,-0.521 l 0,-129.205 c 0,-0.264 0.189,-0.505 0.45,-0.571 l 0.042,-0.01 0.083,-0.004 c 0.214,0 0.417,0.116 0.529,0.303 l 50.199,101.583 c 0.142,0.285 0.029,0.643 -0.249,0.782 l -50.183,27.632 c -0.073,0.037 -0.164,0.081 -0.288,0.081 z m 0.59,-1.589 48.837,-26.887 -48.837,-98.804 0,125.691 z"
         style="fill:#e9514d;fill-opacity:1" /><path
         inkscape:connector-curvature="0"
         id="path24"
         d="m 662.178,302.973 c -0.237,0 -0.444,-0.148 -0.539,-0.388 l -33.258,-107.08 c -0.065,-0.233 0.005,-0.476 0.18,-0.628 0.127,-0.094 0.254,-0.137 0.384,-0.137 0.109,0 0.216,0.032 0.308,0.091 l 66.488,38.819 c 0.259,0.152 0.362,0.464 0.248,0.741 l -33.266,68.254 c -0.09,0.198 -0.294,0.327 -0.527,0.327 l -0.018,0 z m 0.136,-2.167 32.367,-66.419 -64.735,-37.786 32.368,104.205 z"
         style="fill:#e9514d;fill-opacity:1" /><path
         inkscape:connector-curvature="0"
         id="path26"
         d="m 542.136,322.883 c -0.15,0 -0.289,-0.055 -0.392,-0.155 l -82.78,-66.353 c -0.179,-0.133 -0.264,-0.355 -0.213,-0.573 0.017,-0.155 0.142,-0.328 0.318,-0.418 l 80.856,-34.572 c 0.059,-0.03 0.146,-0.051 0.232,-0.051 0.118,0 0.231,0.037 0.329,0.106 0.146,0.081 0.257,0.273 0.257,0.47 l 1.981,100.939 c 0,0.231 -0.13,0.446 -0.324,0.542 -0.081,0.042 -0.173,0.065 -0.264,0.065 z m -0.605,-1.831 -1.938,-98.82 -79.144,33.833 81.082,64.987 z"
         style="fill:#e9514d;fill-opacity:1" /><path
         inkscape:connector-curvature="0"
         id="path28"
         d="m 785.227,421.885 c -0.138,0 -0.272,-0.048 -0.378,-0.135 -0.169,-0.143 -0.24,-0.354 -0.196,-0.571 l 17.632,-85.508 c 0.047,-0.217 0.201,-0.384 0.417,-0.449 l 0.05,-0.015 0.104,-0.006 c 0.175,0 0.337,0.074 0.447,0.203 l 53.511,58.257 c 0.129,0.13 0.184,0.337 0.137,0.532 -0.02,0.166 -0.158,0.338 -0.356,0.412 l -71.219,27.272 -0.063,0 -0.086,0.008 z m 0.794,-1.516 69.342,-26.55 -52.16,-56.783 -17.182,83.333 z"
         style="fill:#e9514d;fill-opacity:1" /><path
         inkscape:connector-curvature="0"
         id="path30"
         d="m 319.286,269.873 c -0.228,0 -0.429,-0.134 -0.522,-0.349 -0.114,-0.204 -0.067,-0.495 0.127,-0.663 L 361.9,220.954 c 0.11,-0.124 0.27,-0.197 0.437,-0.197 l 0.066,0 0.145,0.04 c 0.229,0.093 0.369,0.302 0.369,0.548 l 0,45.567 c 0,0.309 -0.234,0.559 -0.545,0.581 l -43.057,2.379 -0.029,0 z m 1.391,-1.255 41.07,-2.268 0,-43.472 -41.07,45.74 z"
         style="fill:#e9514d;fill-opacity:1" /><path
         inkscape:connector-curvature="0"
         id="path32"
         d="m 362.327,267.494 c -0.117,0 -0.228,-0.037 -0.321,-0.107 -0.152,-0.093 -0.259,-0.276 -0.259,-0.474 l 0,-45.567 c 0,-0.204 0.109,-0.399 0.284,-0.509 0.128,-0.061 0.215,-0.08 0.302,-0.08 0.125,0 0.244,0.039 0.343,0.114 l 39.21,25.756 c 0.171,0.096 0.282,0.317 0.257,0.537 0.002,0.177 -0.12,0.374 -0.316,0.474 l -39.231,19.791 c -0.086,0.044 -0.177,0.065 -0.269,0.065 z m 0.59,-1.537 37.478,-18.91 -37.478,-24.619 0,43.529 z"
         style="fill:#e9514d;fill-opacity:1" /><path
         inkscape:connector-curvature="0"
         id="path34"
         d="m 479.704,176.665 c -0.134,0 -0.258,-0.045 -0.367,-0.134 -0.158,-0.134 -0.234,-0.332 -0.211,-0.534 l 8.492,-41.783 c 0.048,-0.17 0.137,-0.294 0.258,-0.377 0.126,-0.065 0.224,-0.088 0.318,-0.088 l 0.057,0 0.119,0.027 52.662,13.952 c 0.228,0.062 0.396,0.249 0.439,0.487 0.005,0.311 -0.138,0.529 -0.36,0.619 l -61.161,27.78 c -0.064,0.051 -0.182,0.051 -0.246,0.051 z m 0.814,-1.6 58.628,-26.617 -50.489,-13.389 -8.139,40.006 z"
         style="fill:#e9514d;fill-opacity:1" /><path
         inkscape:connector-curvature="0"
         id="path36"
         d="m 420.404,716.423 -0.15,-0.061 -46.692,-15.952 c -0.169,-0.051 -0.324,-0.209 -0.372,-0.39 -0.041,-0.156 -0.015,-0.332 0.069,-0.483 l 11.209,-14.721 c 0.076,-0.115 0.221,-0.202 0.395,-0.227 0.01,-0.001 0.02,-0.001 0.031,-0.001 0.188,0 0.312,0.047 0.413,0.13 l 35.562,30.673 c 0.21,0.169 0.271,0.479 0.134,0.728 -0.085,0.178 -0.289,0.304 -0.511,0.304 l -0.088,0 z m -2.592,-2.127 -32.791,-28.27 -10.309,13.534 43.1,14.736 z"
         style="fill:#e9514d;fill-opacity:1" /><path
         inkscape:connector-curvature="0"
         id="path38"
         d="m 373.759,700.447 c -0.167,0 -0.341,-0.084 -0.454,-0.22 l -64.981,-80.762 c -0.173,-0.245 -0.159,-0.558 0.021,-0.758 0.114,-0.128 0.268,-0.196 0.436,-0.196 0.115,0 0.228,0.033 0.328,0.096 l 38.152,25.913 c 0.093,0.081 0.153,0.137 0.196,0.219 l 26.829,54.86 c 0.139,0.257 0.039,0.604 -0.229,0.761 -0.075,0.04 -0.168,0.087 -0.298,0.087 z m -2.837,-5.044 -24.455,-49.993 -34.77,-23.625 59.225,73.618 z"
         style="fill:#e9514d;fill-opacity:1" /><path
         inkscape:connector-curvature="0"
         id="path40"
         d="m 373.73,700.447 c -0.23,-0.026 -0.404,-0.151 -0.496,-0.329 l -26.826,-54.849 c -0.126,-0.249 -0.057,-0.552 0.17,-0.733 0.113,-0.079 0.226,-0.113 0.344,-0.113 0.158,0 0.312,0.064 0.426,0.178 l 38.013,40.169 c 0.191,0.192 0.214,0.509 0.051,0.745 l -11.189,14.701 c -0.125,0.15 -0.29,0.231 -0.464,0.231 l -0.029,0 z m 0.14,-1.699 10.299,-13.537 -35.015,-37.005 24.716,50.542 z"
         style="fill:#e9514d;fill-opacity:1" /><path
         inkscape:connector-curvature="0"
         id="path42"
         d="m 317.778,584.562 c -0.249,0 -0.474,-0.166 -0.561,-0.411 L 286.444,481.068 c -0.05,-0.196 -0.004,-0.404 0.112,-0.544 l 32.553,-39.726 c 0.082,-0.126 0.256,-0.218 0.446,-0.218 l 0.067,0 0.146,0.04 c 0.247,0.1 0.4,0.339 0.375,0.583 l -1.774,142.774 c -0.021,0.249 -0.159,0.445 -0.352,0.531 l -0.037,0.044 -0.202,0.01 z m -0.532,-4.445 1.708,-137.29 -31.294,38.2 29.586,99.09 z"
         style="fill:#e9514d;fill-opacity:1" /><path
         inkscape:connector-curvature="0"
         id="path44"
         d="m 346.927,645.596 c -0.134,0 -0.256,-0.058 -0.291,-0.076 l -38.18,-25.938 c -0.199,-0.133 -0.297,-0.374 -0.247,-0.612 l 9,-35.141 c 0.06,-0.229 0.242,-0.397 0.478,-0.442 l 0.033,-0.006 0.054,-10e-4 c 0.239,0 0.452,0.138 0.541,0.355 l 29.149,61.017 c 0.096,0.269 0.044,0.518 -0.123,0.687 -0.168,0.119 -0.288,0.157 -0.414,0.157 z m -1.457,-2.291 -27.527,-57.62 -8.495,33.16 36.022,24.46 z"
         style="fill:#e9514d;fill-opacity:1" /><path
         inkscape:connector-curvature="0"
         id="path46"
         d="m 317.612,584.562 -0.042,-0.045 c -0.22,-0.081 -0.373,-0.294 -0.373,-0.546 l 1.777,-142.809 c 0,-0.256 0.174,-0.487 0.423,-0.554 l 0.045,-0.013 0.123,-0.015 c 0.169,0 0.331,0.076 0.447,0.208 l 27.383,35.429 c 0.11,0.126 0.154,0.312 0.112,0.496 l -29.162,107.41 c -0.064,0.252 -0.304,0.438 -0.568,0.438 l -0.165,0 z m 0.82,-5.201 27.852,-102.648 -26.161,-33.854 -1.691,136.502 z"
         style="fill:#e9514d;fill-opacity:1" /><path
         inkscape:connector-curvature="0"
         id="path48"
         d="m 287.011,481.484 c -0.292,0 -0.534,-0.203 -0.577,-0.482 l -17.167,-85.5 c -0.044,-0.22 0.049,-0.46 0.235,-0.599 l 27.446,-17.711 c 0.093,-0.062 0.207,-0.099 0.324,-0.099 0.106,0 0.21,0.03 0.301,0.086 0.208,0.132 0.315,0.373 0.268,0.599 L 287.59,480.957 c -0.023,0.297 -0.268,0.528 -0.569,0.528 l -0.01,0 z m -0.2,-4.541 9.75,-98.104 -26.069,16.824 16.319,81.28 z"
         style="fill:#e9514d;fill-opacity:1" /><path
         inkscape:connector-curvature="0"
         id="path50"
         d="m 287.011,481.484 c -0.05,0 -0.167,0 -0.282,-0.074 -0.191,-0.062 -0.343,-0.327 -0.293,-0.599 l 10.251,-103.194 c -0.002,-0.255 0.224,-0.492 0.523,-0.518 0.004,0 0.008,0 0.013,0 0.303,0 0.515,0.153 0.596,0.378 l 22.298,63.499 c 0.055,0.208 0.022,0.395 -0.082,0.541 l -32.577,39.746 c -0.078,0.122 -0.262,0.221 -0.447,0.221 z m 0.769,-2.465 31.112,-37.968 -21.302,-60.686 -9.81,98.654 z"
         style="fill:#e9514d;fill-opacity:1" /><path
         inkscape:connector-curvature="0"
         id="path52"
         d="m 297.268,378.261 c -0.143,0 -0.275,-0.045 -0.383,-0.13 -0.223,-0.222 -0.26,-0.519 -0.121,-0.752 l 65.06,-110.773 c 0.129,-0.186 0.313,-0.283 0.508,-0.283 0.078,0 0.153,0.015 0.226,0.045 0.245,0.08 0.405,0.354 0.355,0.641 l -15.401,80.478 c -0.06,0.207 -0.165,0.339 -0.304,0.406 l -49.637,30.288 c -0.109,0.08 -0.235,0.08 -0.303,0.08 z m 1.683,-2.299 47.458,-28.942 14.713,-76.888 -62.171,105.83 z"
         style="fill:#e9514d;fill-opacity:1" /><path
         inkscape:connector-curvature="0"
         id="path54"
         d="m 420.492,716.423 c -0.151,0 -0.296,-0.059 -0.396,-0.159 l -35.542,-30.647 c -0.13,-0.105 -0.206,-0.261 -0.206,-0.43 -0.021,-0.119 0.04,-0.296 0.167,-0.424 l 34.54,-35.843 c 0.139,-0.125 0.285,-0.182 0.431,-0.182 l 0.074,0 0.147,0.048 c 0.215,0.086 0.355,0.296 0.355,0.542 l 1.018,66.5 c 0,0.231 -0.133,0.439 -0.341,0.535 -0.042,0.032 -0.142,0.06 -0.247,0.06 z m -0.602,-1.883 -0.974,-63.775 -33.125,34.37 34.099,29.405 z"
         style="fill:#e9514d;fill-opacity:1" /><path
         inkscape:connector-curvature="0"
         id="path56"
         d="m 420.492,716.423 c -0.103,0 -0.205,-0.031 -0.312,-0.092 -0.188,-0.135 -0.278,-0.305 -0.278,-0.488 l -0.999,-66.51 c 0,-0.226 0.111,-0.419 0.3,-0.523 0.11,-0.05 0.197,-0.071 0.284,-0.071 0.126,0 0.245,0.04 0.345,0.114 l 65.705,44.911 c 0.197,0.146 0.284,0.37 0.238,0.592 -0.021,0.187 -0.173,0.372 -0.386,0.444 l -64.767,21.604 -0.13,0.019 z m 0.575,-1.399 62.828,-20.96 -63.801,-43.614 0.973,64.574 z"
         style="fill:#e9514d;fill-opacity:1" /><path
         inkscape:connector-curvature="0"
         id="path58"
         d="m 288.632,579.953 c -0.264,0 -0.499,-0.179 -0.57,-0.432 l -18.781,-70.834 c -0.047,-0.161 -0.026,-0.331 0.062,-0.466 l 17.166,-27.632 c 0.104,-0.174 0.288,-0.281 0.491,-0.281 l 0.056,0 0.13,0.031 c 0.218,0.041 0.406,0.279 0.406,0.554 l 1.63,98.461 c 0,0.292 -0.213,0.543 -0.496,0.592 l -0.029,0.006 -0.065,0 z m -0.667,-5.387 -1.515,-91.663 -15.973,25.723 17.488,65.94 z"
         style="fill:#e9514d;fill-opacity:1" /><path
         inkscape:connector-curvature="0"
         id="path60"
         d="m 502.786,751.401 -0.11,-0.022 -82.412,-35.002 c -0.217,-0.085 -0.362,-0.304 -0.362,-0.555 0.023,-0.278 0.188,-0.48 0.418,-0.549 l 64.75,-21.598 0.141,-0.014 c 0.087,0 0.171,0.021 0.25,0.061 0.137,0.057 0.257,0.19 0.307,0.36 l 17.621,56.559 c 0.072,0.172 0.03,0.4 -0.123,0.58 l -0.03,0.035 -0.039,0.025 c -0.113,0.079 -0.236,0.119 -0.365,0.119 l -0.046,0 z m -0.89,-1.624 -17.079,-54.779 -62.669,20.901 79.748,33.878 z"
         style="fill:#e9514d;fill-opacity:1" /><polygon
         id="polygon62"
         points="270.288,395.906 269.183,395.534 296.806,308.798 297.94,309.138 "
         style="fill:#e9514d;fill-opacity:1" /><path
         inkscape:connector-curvature="0"
         id="path64"
         d="m 540.841,148.877 -0.099,-0.011 -52.694,-13.968 c -0.266,-0.065 -0.456,-0.329 -0.437,-0.612 0.049,-0.324 0.293,-0.539 0.582,-0.539 l 129.547,-3.453 c 0.338,0.02 0.557,0.21 0.604,0.497 0.027,0.326 -0.165,0.59 -0.451,0.656 l -76.911,17.429 -0.141,0 z m 0.052,-1.19 70.922,-16.061 -119.525,3.182 48.603,12.879 z"
         style="fill:#e9514d;fill-opacity:1" /><path
         inkscape:connector-curvature="0"
         id="path66"
         d="m 542.136,778.614 c -0.286,0 -0.535,-0.212 -0.577,-0.491 -0.063,-0.264 0.102,-0.556 0.391,-0.653 l 57.052,-19.596 0.125,-0.014 c 0.037,0 0.075,0.004 0.117,0.012 l 76.865,12.661 c 0.301,0.066 0.497,0.31 0.497,0.596 -0.026,0.332 -0.279,0.571 -0.581,0.571 l -133.86,6.914 -0.029,0 z m 4.134,-1.391 124.287,-6.415 -71.364,-11.761 -52.923,18.176 z"
         style="fill:#e9514d;fill-opacity:1" /><path
         inkscape:connector-curvature="0"
         id="path68"
         d="m 599.143,759.039 c -0.126,0 -0.222,-0.049 -0.273,-0.073 l -113.959,-64.21 c -0.212,-0.104 -0.332,-0.357 -0.282,-0.619 0.04,-0.243 0.255,-0.442 0.51,-0.469 0,0 120.436,-11.673 120.443,-11.673 0.192,0 0.315,0.048 0.431,0.145 0.157,0.175 0.21,0.341 0.188,0.507 l -6.476,75.85 c 10e-4,0.171 -0.117,0.365 -0.297,0.468 -0.097,0.049 -0.191,0.074 -0.285,0.074 z m -0.516,-1.552 6.351,-74.255 -117.87,11.423 111.519,62.832 z"
         style="fill:#e9514d;fill-opacity:1" /><path
         inkscape:connector-curvature="0"
         id="path70"
         d="m 542.136,778.614 c -0.122,0 -0.245,-0.042 -0.344,-0.12 l -39.286,-27.191 c -0.227,-0.161 -0.314,-0.437 -0.221,-0.687 0.082,-0.23 0.301,-0.388 0.547,-0.388 l 96.359,7.631 c 0.263,0.021 0.48,0.224 0.529,0.498 0.045,0.274 -0.114,0.543 -0.381,0.64 l -57.07,19.6 -0.133,0.017 z m 0.09,-1.238 54.056,-18.565 -91.321,-7.234 37.265,25.799 z"
         style="fill:#e9514d;fill-opacity:1" /><path
         inkscape:connector-curvature="0"
         id="path72"
         d="m 502.787,751.399 c -0.243,-0.023 -0.445,-0.192 -0.51,-0.418 l -17.639,-56.556 c -0.055,-0.256 0.02,-0.484 0.187,-0.629 0.123,-0.093 0.246,-0.133 0.375,-0.133 0.096,0 0.193,0.023 0.281,0.067 l 113.955,64.207 c 0.236,0.143 0.345,0.41 0.279,0.669 -0.106,0.275 -0.33,0.432 -0.57,0.432 l -96.358,-7.639 z m 93.748,6.249 -110.339,-62.163 17.087,54.774 93.252,7.389 z"
         style="fill:#e9514d;fill-opacity:1" /><path
         inkscape:connector-curvature="0"
         id="path74"
         d="m 916.393,421.885 c -0.077,0 -0.138,-0.016 -0.178,-0.027 l -19.621,-8.657 c -0.264,-0.118 -0.404,-0.399 -0.339,-0.669 l 8.078,-36.703 c 0.048,-0.261 0.287,-0.459 0.564,-0.459 0.268,0 0.502,0.179 0.57,0.436 l 11.487,45.349 c 0.065,0.225 -0.016,0.468 -0.207,0.608 -0.093,0.076 -0.217,0.122 -0.354,0.122 z m -0.866,-1.607 -10.587,-41.773 -7.434,33.82 18.021,7.953 z"
         style="fill:#e9514d;fill-opacity:1" /><path
         inkscape:connector-curvature="0"
         id="path76"
         d="m 770.963,701.743 c -0.219,-0.026 -0.37,-0.116 -0.458,-0.25 L 736.02,659.852 c -0.129,-0.18 -0.159,-0.375 -0.101,-0.561 0.075,-0.196 0.226,-0.33 0.407,-0.379 l 97.566,-22.478 0.092,-0.007 c 0.205,0 0.395,0.111 0.505,0.297 0.124,0.238 0.089,0.506 -0.073,0.69 l -63.019,64.147 c -0.113,0.115 -0.269,0.18 -0.425,0.18 l -0.009,0 z m 0.049,-1.464 61.146,-62.236 -94.626,21.79 33.48,40.446 z"
         style="fill:#e9514d;fill-opacity:1" /><path
         inkscape:connector-curvature="0"
         id="path78"
         d="m 736.475,660.063 c -0.236,0 -0.443,-0.135 -0.533,-0.343 -0.11,-0.241 -0.039,-0.54 0.174,-0.701 l 125.662,-101.7 c 0.091,-0.083 0.229,-0.136 0.373,-0.136 0.116,0 0.228,0.033 0.325,0.098 0.229,0.158 0.319,0.433 0.23,0.686 l -28.177,79.25 c -0.034,0.166 -0.2,0.325 -0.419,0.373 l -97.54,22.465 -0.095,0.008 z m 2.34,-1.724 94.722,-21.822 27.361,-76.983 -122.083,98.805 z"
         style="fill:#e9514d;fill-opacity:1" /><path
         inkscape:connector-curvature="0"
         id="path80"
         d="m 770.973,701.743 c -0.167,0 -0.34,-0.084 -0.452,-0.217 -0.19,-0.239 -0.174,-0.573 0.034,-0.786 l 63.008,-64.135 c 0.112,-0.109 0.268,-0.17 0.435,-0.17 0.165,0 0.328,0.081 0.438,0.213 l 13.776,17.499 c 0.103,0.121 0.149,0.285 0.125,0.451 -0.041,0.189 -0.135,0.325 -0.266,0.41 l -76.786,46.646 c -0.119,0.063 -0.217,0.089 -0.312,0.089 z m 3.711,-3.528 72.196,-43.862 -12.95,-16.446 -59.246,60.308 z"
         style="fill:#e9514d;fill-opacity:1" /><path
         inkscape:connector-curvature="0"
         id="path82"
         d="m 695.453,234.737 c -0.071,0 -0.205,0 -0.334,-0.101 l -66.478,-38.804 c -0.121,-0.059 -0.229,-0.195 -0.272,-0.361 -0.03,-0.195 0.002,-0.343 0.083,-0.467 l 22.471,-32.292 c 0.074,-0.164 0.283,-0.219 0.371,-0.244 l 0.045,-0.012 0.064,-0.005 c 0.207,0 0.397,0.11 0.498,0.289 l 44.043,71.111 c 0.144,0.208 0.12,0.496 -0.064,0.704 -0.118,0.12 -0.269,0.182 -0.427,0.182 z m -1.741,-2.276 -42.345,-68.356 -21.584,31.037 63.929,37.319 z"
         style="fill:#e9514d;fill-opacity:1" /><path
         inkscape:connector-curvature="0"
         id="path84"
         d="m 833.979,637.607 c -0.126,0 -0.24,-0.038 -0.332,-0.109 -0.206,-0.12 -0.313,-0.41 -0.223,-0.67 l 28.17,-79.253 c 0.099,-0.245 0.316,-0.392 0.56,-0.392 l 0.095,0.008 34.996,6.629 c 0.213,0.047 0.373,0.19 0.441,0.388 0.067,0.184 0.025,0.411 -0.111,0.571 l -63.147,72.626 c -0.11,0.128 -0.27,0.202 -0.449,0.202 z m 1.593,-3.314 60.443,-69.51 -33.484,-6.339 -26.959,75.849 z"
         style="fill:#e9514d;fill-opacity:1" /><path
         inkscape:connector-curvature="0"
         id="path86"
         d="m 847.751,655.092 c -0.181,0 -0.342,-0.074 -0.455,-0.208 l -13.778,-17.502 c -0.168,-0.24 -0.157,-0.531 0.014,-0.742 l 63.16,-72.632 c 0.097,-0.123 0.26,-0.199 0.435,-0.199 0.12,0 0.239,0.036 0.336,0.104 0.259,0.186 0.33,0.528 0.167,0.781 l -49.357,90.096 c -0.096,0.184 -0.289,0.302 -0.501,0.302 l -0.021,0 z m -0.088,-1.648 46.332,-84.554 -59.248,68.146 12.916,16.408 z"
         style="fill:#e9514d;fill-opacity:1" /><path
         inkscape:connector-curvature="0"
         id="path88"
         d="m 896.827,413.25 c -0.272,0 -0.502,-0.18 -0.571,-0.447 l -14.388,-69.984 c -0.048,-0.283 0.093,-0.548 0.34,-0.658 0.097,-0.034 0.162,-0.044 0.229,-0.044 0.198,0 0.384,0.096 0.495,0.256 l 22.458,33.251 c 0.085,0.128 0.117,0.276 0.094,0.432 L 897.4,412.79 c -0.072,0.28 -0.301,0.46 -0.573,0.46 z m 0.02,-3.401 7.427,-33.773 -20.652,-30.595 13.225,64.368 z"
         style="fill:#e9514d;fill-opacity:1" /><path
         inkscape:connector-curvature="0"
         id="path90"
         d="m 904.907,376.54 c -0.199,0 -0.376,-0.091 -0.489,-0.25 l -22.46,-33.263 c -0.054,-0.085 -0.071,-0.158 -0.086,-0.212 l -5.19,-40.351 c -0.025,-0.286 0.147,-0.549 0.413,-0.636 l 0.054,-0.017 0.114,-0.006 c 0.255,0 0.471,0.154 0.552,0.395 l 27.642,73.554 c 0.097,0.295 -0.029,0.592 -0.291,0.723 -0.053,0.034 -0.153,0.063 -0.259,0.063 z m -2.306,-5.042 -24.11,-64.178 4.521,35.163 19.589,29.015 z"
         style="fill:#e9514d;fill-opacity:1" /><path
         inkscape:connector-curvature="0"
         id="path92"
         d="m 882.441,343.292 c -0.181,0 -0.359,-0.095 -0.477,-0.253 l -48.473,-73.434 c -0.154,-0.22 -0.124,-0.537 0.077,-0.743 0.112,-0.11 0.255,-0.168 0.404,-0.168 0.135,0 0.266,0.046 0.372,0.132 l 43.272,33.093 c 0.132,0.11 0.207,0.243 0.229,0.395 l 5.183,40.307 c 0.025,0.287 -0.133,0.54 -0.381,0.632 l -0.059,0.021 -0.147,0.018 z m -0.899,-3.023 -4.834,-37.558 -40.324,-30.854 45.158,68.412 z"
         style="fill:#e9514d;fill-opacity:1" /><path
         inkscape:connector-curvature="0"
         id="path94"
         d="m 856.377,394.645 c -0.149,0 -0.304,-0.067 -0.415,-0.178 l -53.528,-58.286 c -0.152,-0.13 -0.208,-0.385 -0.112,-0.625 l 31.127,-66.523 c 0.108,-0.215 0.315,-0.342 0.543,-0.342 0.337,0.053 0.527,0.243 0.572,0.494 l 22.397,124.77 c 0.049,0.247 -0.08,0.505 -0.312,0.624 -0.097,0.045 -0.184,0.066 -0.272,0.066 z m -0.928,-2.474 -21.724,-120.966 -30.163,64.472 51.887,56.494 z"
         style="fill:#e9514d;fill-opacity:1" /><path
         inkscape:connector-curvature="0"
         id="path96"
         d="m 862.126,558.356 c -0.328,-0.024 -0.563,-0.279 -0.563,-0.58 l -5.767,-163.701 c 0,-0.208 0.092,-0.387 0.249,-0.501 0.116,-0.073 0.226,-0.106 0.338,-0.106 0.088,0 0.173,0.02 0.252,0.059 l 40.44,18.601 c 0.252,0.115 0.388,0.396 0.323,0.667 l -34.682,145.108 c -0.044,0.255 -0.283,0.453 -0.563,0.453 l -0.027,0 z m 0.452,-4.925 33.563,-140.436 -39.136,-18.007 5.573,158.443 z"
         style="fill:#e9514d;fill-opacity:1" /><path
         inkscape:connector-curvature="0"
         id="path98"
         d="m 856.35,394.645 c -0.313,-0.053 -0.502,-0.239 -0.548,-0.481 L 833.404,269.382 c -0.049,-0.282 0.108,-0.554 0.371,-0.649 l 0.06,-0.021 0.144,-0.014 c 0.194,0 0.379,0.096 0.491,0.256 l 48.47,73.427 c 0.11,0.179 0.121,0.378 0.04,0.571 l -26.077,51.373 c -0.092,0.193 -0.301,0.322 -0.524,0.322 l -0.029,0 z m 0.299,-2.419 25.122,-49.483 -46.704,-70.757 21.582,120.24 z"
         style="fill:#e9514d;fill-opacity:1" /><path
         inkscape:connector-curvature="0"
         id="path100"
         d="m 896.784,413.25 -0.153,-0.032 -0.053,-0.02 -40.439,-18.604 c -0.163,-0.104 -0.25,-0.204 -0.303,-0.323 -0.066,-0.191 -0.049,-0.359 0.038,-0.505 l 26.052,-51.333 c 0.077,-0.188 0.283,-0.325 0.516,-0.325 l 0.099,0.009 c 0.232,0.043 0.415,0.209 0.479,0.434 l 14.382,69.993 c 0.047,0.222 -0.04,0.45 -0.219,0.583 -0.095,0.079 -0.22,0.125 -0.354,0.125 l -0.045,0 z m -0.763,-1.605 -13.812,-67.189 -25.031,49.322 38.843,17.867 z"
         style="fill:#e9514d;fill-opacity:1" /><path
         inkscape:connector-curvature="0"
         id="path102"
         d="m 695.453,234.737 c -0.229,0 -0.427,-0.118 -0.518,-0.308 l -44.033,-71.073 c -0.138,-0.234 -0.111,-0.517 0.063,-0.712 0.125,-0.126 0.27,-0.187 0.425,-0.187 0.103,0 0.205,0.028 0.294,0.083 l 124.79,64.559 c 0.229,0.115 0.355,0.369 0.312,0.628 -0.069,0.273 -0.276,0.453 -0.523,0.475 l -80.778,6.537 -0.032,0 z m 0.305,-1.196 78.365,-6.345 -121.107,-62.649 42.742,68.994 z"
         style="fill:#e9514d;fill-opacity:1" /><path
         inkscape:connector-curvature="0"
         id="path104"
         d="m 833.979,269.873 c -0.129,0 -0.254,-0.046 -0.36,-0.135 L 775.867,228.09 c -0.122,-0.081 -0.218,-0.233 -0.241,-0.4 l -4.464,-45.009 c -0.024,-0.27 0.131,-0.511 0.386,-0.604 0.059,-0.024 0.131,-0.037 0.205,-0.037 0.194,0 0.371,0.092 0.475,0.246 l 62.23,86.654 c 0.166,0.238 0.139,0.556 -0.067,0.758 -0.11,0.112 -0.258,0.175 -0.412,0.175 z m -2.573,-3.166 -58.865,-81.963 4.225,42.548 54.64,39.415 z"
         style="fill:#e9514d;fill-opacity:1" /><polygon
         id="polygon106"
         points="269.858,394.723 243.247,384.533 243.659,383.424 270.3,393.644 "
         style="fill:#e9514d;fill-opacity:1" /><polygon
         id="polygon108"
         points="261.779,586.807 261.459,585.666 289.016,578.259 289.294,579.391 "
         style="fill:#e9514d;fill-opacity:1" /><polygon
         id="polygon110"
         points="361.796,221.583 347.263,197.071 348.274,196.457 362.812,221.01 "
         style="fill:#e9514d;fill-opacity:1" /><polygon
         id="polygon112"
         points="257.071,669.175 255.891,669.08 258.444,640.661 259.603,640.792 "
         style="fill:#e9514d;fill-opacity:1" /><polygon
         id="polygon114"
         points="185.223,539.72 102.34,452.523 103.186,451.695 186.082,538.932 "
         style="fill:#e9514d;fill-opacity:1" /><polygon
         id="polygon116"
         points="181.802,717.104 181.157,716.113 254.948,669.535 255.55,670.533 "
         style="fill:#e9514d;fill-opacity:1" /><polygon
         id="polygon118"
         points="260.023,641.728 259.536,640.649 310.601,618.4 311.045,619.478 "
         style="fill:#e9514d;fill-opacity:1" /><polygon
         id="polygon120"
         points="834.284,269.545 833.498,268.682 901.896,201.514 902.725,202.359 "
         style="fill:#e9514d;fill-opacity:1" /><polygon
         id="polygon122"
         points="901.119,202.387 892.756,139.036 893.931,138.89 902.282,202.284 "
         style="fill:#e9514d;fill-opacity:1" /><polygon
         id="polygon124"
         points="916.136,421.396 916.004,420.237 1010.744,405.608 1010.924,406.779 "
         style="fill:#e9514d;fill-opacity:1" /><polygon
         id="polygon126"
         points="368.398,495.382 346.667,476.89 347.443,476.019 369.156,494.473 "
         style="fill:#e9514d;fill-opacity:1" /><polygon
         id="polygon128"
         points="728.131,722.196 726.955,722.057 735.017,659.083 736.172,659.259 "
         style="fill:#e9514d;fill-opacity:1" /><polygon
         id="polygon130"
         points="184.632,539.901 184.212,538.794 269.905,507.975 270.284,509.076 "
         style="fill:#e9514d;fill-opacity:1" /><polygon
         id="polygon132"
         points="904.696,375.889 904.5,374.74 945.976,366.891 946.215,368.051 "
         style="fill:#e9514d;fill-opacity:1" /><polygon
         id="polygon134"
         points="945.37,367.965 944.293,367.517 954.657,342.41 955.766,342.83 "
         style="fill:#e9514d;fill-opacity:1" /><polygon
         id="polygon136"
         points="889.646,657.982 847.502,655.559 847.55,654.393 889.73,656.803 "
         style="fill:#e9514d;fill-opacity:1" /><rect
         id="rect138"
         height="1.225"
         width="89.685997"
         transform="matrix(-0.9825,0.1865,-0.1865,-0.9825,2213.6719,659.7192)"
         y="433.37701"
         x="1030.96"
         style="fill:#e9514d;fill-opacity:1" /><rect
         id="rect140"
         height="120.611"
         width="1.224"
         transform="rotate(127.25034,272.48018,232.67709)"
         y="172.375"
         x="271.86801"
         style="fill:#e9514d;fill-opacity:1" /><rect
         id="rect142"
         height="1.224"
         width="137.94701"
         transform="rotate(126.07919,996.26465,287.24362)"
         y="286.62299"
         x="927.28699"
         style="fill:#e9514d;fill-opacity:1" /><polygon
         id="polygon144"
         points="1030.257,442.898 1009.882,405.666 1011.079,405.033 1031.451,442.219 "
         style="fill:#e9514d;fill-opacity:1" /><path
         inkscape:connector-curvature="0"
         id="path146"
         d="m 541.743,323.284 c -0.267,0 -0.502,-0.192 -0.547,-0.463 -0.051,-0.302 0.153,-0.589 0.456,-0.64 l 119.896,-20.143 c 0.3,-0.044 0.589,0.153 0.64,0.456 0.052,0.303 -0.152,0.589 -0.455,0.64 l -119.896,20.143 c -0.032,0.004 -0.064,0.007 -0.094,0.007 z"
         style="fill:#e9514d;fill-opacity:1" /><path
         inkscape:connector-curvature="0"
         id="path148"
         d="m 662.314,301.362 c -0.104,0 -0.211,-0.03 -0.304,-0.091 L 539.62,221.276 c -0.257,-0.167 -0.329,-0.512 -0.161,-0.769 0.168,-0.257 0.513,-0.329 0.769,-0.161 l 122.389,79.995 c 0.258,0.167 0.329,0.512 0.161,0.769 -0.105,0.163 -0.282,0.252 -0.464,0.252 z"
         style="fill:#e9514d;fill-opacity:1" /><path
         inkscape:connector-curvature="0"
         id="path150"
         d="m 629.252,195.387 c -0.067,0 -0.136,-0.012 -0.201,-0.037 l -75.045,-29.132 c -0.247,-0.096 -0.392,-0.352 -0.346,-0.612 0.044,-0.26 0.267,-0.454 0.53,-0.462 l 97.696,-2.959 c 0.295,-0.008 0.562,0.232 0.572,0.539 0.008,0.306 -0.232,0.562 -0.539,0.572 l -94.96,2.876 72.493,28.142 c 0.287,0.111 0.429,0.433 0.317,0.719 -0.084,0.219 -0.295,0.354 -0.517,0.354 z"
         style="fill:#e9514d;fill-opacity:1" /><rect
         id="rect152"
         height="1.11"
         width="111.822"
         transform="matrix(0.2386,0.9711,-0.9711,0.2386,875.0338,-552.8868)"
         y="281.03201"
         x="734.19598"
         style="fill:#e9514d;fill-opacity:1" /><polygon
         id="polygon154"
         points="735.828,658.669 801.703,524.123 802.216,524.409 862.396,557.872 861.855,558.842 802.188,525.664 736.826,659.156 "
         style="fill:#e9514d;fill-opacity:1" /><path
         inkscape:connector-curvature="0"
         id="path156"
         d="m 420.111,270.793 c -0.017,-0.07 -0.047,-0.198 0.02,-0.348 l 22.261,-73.685 c 0.029,-0.131 0.136,-0.267 0.288,-0.349 0.183,-0.075 0.334,-0.078 0.473,-0.028 l 36.636,14.336 c 0.177,0.034 0.28,0.223 0.324,0.304 l 0.021,0.041 0.02,0.061 c 0.049,0.202 -0.015,0.413 -0.164,0.553 l -58.904,59.387 c -0.168,0.188 -0.454,0.233 -0.699,0.101 -0.144,-0.086 -0.24,-0.218 -0.276,-0.373 z m 1.808,-2.224 56.619,-57.094 -35.208,-13.765 -21.411,70.859 z"
         style="fill:#e9514d;fill-opacity:1" /><path
         inkscape:connector-curvature="0"
         id="path158"
         d="m 706.764,692.149 c 0.016,0.148 -0.034,0.31 -0.134,0.431 l -52.56,59.162 c -0.113,0.165 -0.36,0.245 -0.61,0.174 l -69.336,-24.221 c -0.225,-0.087 -0.372,-0.279 -0.394,-0.508 0.017,-0.339 0.188,-0.55 0.432,-0.619 l 121.857,-34.932 c 0.241,-0.071 0.511,0.03 0.65,0.249 0.058,0.094 0.086,0.177 0.095,0.264 z m -2.366,1.174 -118.142,33.875 67.197,23.472 50.945,-57.347 z"
         style="fill:#e9514d;fill-opacity:1" /><path
         inkscape:connector-curvature="0"
         id="path160"
         d="m 683.474,749.876 c -0.188,0 -0.363,-0.095 -0.466,-0.253 -0.109,-0.169 -0.12,-0.383 -0.027,-0.56 l 12.952,-24.903 c 0.074,-0.146 0.211,-0.249 0.369,-0.286 0.161,-0.036 0.326,-10e-4 0.456,0.098 l 29.791,22.321 c 0.188,0.14 0.266,0.381 0.198,0.604 -0.065,0.224 -0.266,0.381 -0.497,0.395 l -42.743,2.582 c -0.011,0.002 -0.023,0.002 -0.033,0.002 z m 13.141,-24.622 -12.196,23.452 40.252,-2.431 -28.056,-21.021 z"
         style="fill:#e9514d;fill-opacity:1" /><path
         inkscape:connector-curvature="0"
         id="path162"
         d="m 510.294,257.998 c -0.153,0 -0.304,-0.063 -0.411,-0.181 L 479.76,224.785 c -0.101,-0.112 -0.153,-0.258 -0.144,-0.409 0.009,-0.15 0.079,-0.29 0.193,-0.388 l 30.123,-25.812 c 0.165,-0.141 0.396,-0.173 0.594,-0.083 0.197,0.09 0.323,0.288 0.323,0.505 l 0,58.845 c 0,0.229 -0.141,0.435 -0.355,0.518 -0.065,0.024 -0.133,0.037 -0.2,0.037 z m -29.327,-33.539 28.771,31.549 0,-56.203 -28.771,24.654 z"
         style="fill:#e9514d;fill-opacity:1" /><path
         inkscape:connector-curvature="0"
         id="path164"
         d="m 802.284,336.226 c -0.042,0 -0.085,-0.004 -0.127,-0.015 L 662.594,303.187 c -0.297,-0.071 -0.482,-0.369 -0.411,-0.668 0.069,-0.298 0.365,-0.484 0.668,-0.412 l 137.544,32.547 -105.657,-99.612 c -0.223,-0.21 -0.233,-0.562 -0.023,-0.785 0.211,-0.224 0.563,-0.233 0.786,-0.023 l 107.166,101.034 c 0.184,0.172 0.228,0.446 0.108,0.668 -0.099,0.181 -0.29,0.29 -0.491,0.29 z"
         style="fill:#e9514d;fill-opacity:1" /><path
         inkscape:connector-curvature="0"
         id="path166"
         d="m 958.873,698.34 c -0.095,0 -0.192,-0.025 -0.281,-0.077 l -67.967,-39.802 c -0.264,-0.155 -0.353,-0.495 -0.197,-0.761 0.153,-0.265 0.493,-0.351 0.76,-0.197 l 67.967,39.802 c 0.265,0.155 0.354,0.495 0.199,0.761 -0.104,0.175 -0.291,0.274 -0.481,0.274 z"
         style="fill:#e9514d;fill-opacity:1" /></g><g
       transform="translate(-39.4015,122.0885)"
       id="g168"
       style="fill:#e9514d;fill-opacity:1"><path
         inkscape:connector-curvature="0"
         id="path170"
         d="m 1034.436,445.793 c 2,-2.097 1.922,-5.429 -0.175,-7.428 -2.096,-2 -5.416,-1.911 -7.416,0.186 -1.999,2.095 -1.922,5.406 0.177,7.405 2.094,1.999 5.416,1.931 7.414,-0.163 z"
         style="fill:#e9514d;fill-opacity:1" /><path
         inkscape:connector-curvature="0"
         id="path172"
         d="m 1040.269,234.14 c 2,-2.097 1.922,-5.429 -0.175,-7.428 -2.096,-2 -5.416,-1.911 -7.416,0.187 -2,2.095 -1.922,5.406 0.176,7.405 2.095,1.998 5.416,1.93 7.415,-0.164 z"
         style="fill:#e9514d;fill-opacity:1" /><path
         inkscape:connector-curvature="0"
         id="path174"
         d="m 488.202,131.581 c -1.52,0 -2.758,1.231 -2.758,2.749 0,1.518 1.238,2.758 2.758,2.758 1.518,0 2.759,-1.24 2.759,-2.758 0,-1.518 -1.241,-2.749 -2.759,-2.749 z"
         style="fill:#e9514d;fill-opacity:1" /><path
         inkscape:connector-curvature="0"
         id="path176"
         d="m 542.136,775.153 c -1.583,0 -2.869,1.288 -2.869,2.871 0,1.582 1.286,2.868 2.869,2.868 1.582,0 2.869,-1.286 2.869,-2.868 0,-1.583 -1.287,-2.871 -2.869,-2.871 z"
         style="fill:#e9514d;fill-opacity:1" /><circle
         id="circle178"
         r="2.869"
         cy="727.28601"
         cx="584.63202"
         style="fill:#e9514d;fill-opacity:1" /><circle
         id="circle180"
         r="2.869"
         cy="749.32001"
         cx="683.62299"
         style="fill:#e9514d;fill-opacity:1" /><path
         inkscape:connector-curvature="0"
         id="path182"
         d="m 502.834,748.451 c -1.306,0 -2.369,1.055 -2.369,2.368 0,1.307 1.063,2.37 2.369,2.37 1.315,0 2.369,-1.063 2.369,-2.37 0,-1.313 -1.054,-2.368 -2.369,-2.368 z"
         style="fill:#e9514d;fill-opacity:1" /><path
         inkscape:connector-curvature="0"
         id="path184"
         d="m 485.202,691.767 c -1.38,0 -2.491,1.11 -2.491,2.48 0,1.38 1.111,2.49 2.491,2.49 1.378,0 2.489,-1.11 2.489,-2.49 0,-1.37 -1.111,-2.48 -2.489,-2.48 z"
         style="fill:#e9514d;fill-opacity:1" /><path
         inkscape:connector-curvature="0"
         id="path186"
         d="m 621.608,130.876 c 0,-2.119 -1.721,-3.84 -3.85,-3.84 -2.119,0 -3.841,1.721 -3.841,3.84 0,2.12 1.722,3.851 3.841,3.851 2.13,0.001 3.85,-1.73 3.85,-3.851 z"
         style="fill:#e9514d;fill-opacity:1" /><path
         inkscape:connector-curvature="0"
         id="path188"
         d="m 540.887,144.001 c -2.369,0 -4.294,1.917 -4.294,4.295 0,2.37 1.926,4.295 4.294,4.295 2.368,0 4.295,-1.925 4.295,-4.295 0,-2.378 -1.927,-4.295 -4.295,-4.295 z"
         style="fill:#e9514d;fill-opacity:1" /><path
         inkscape:connector-curvature="0"
         id="path190"
         d="m 479.704,173.399 c -1.481,0 -2.684,1.194 -2.684,2.675 0,1.48 1.203,2.684 2.684,2.684 1.481,0 2.684,-1.204 2.684,-2.684 0,-1.481 -1.202,-2.675 -2.684,-2.675 z"
         style="fill:#e9514d;fill-opacity:1" /><path
         inkscape:connector-curvature="0"
         id="path192"
         d="m 676.015,766.378 c -2.619,0 -4.74,2.121 -4.74,4.741 0,2.608 2.121,4.739 4.74,4.739 2.619,0 4.739,-2.131 4.739,-4.739 0,-2.62 -2.12,-4.741 -4.739,-4.741 z"
         style="fill:#e9514d;fill-opacity:1" /><path
         inkscape:connector-curvature="0"
         id="path194"
         d="m 916.393,416.917 c -2.423,0 -4.386,1.962 -4.386,4.387 0,2.417 1.963,4.387 4.386,4.387 2.417,0 4.38,-1.971 4.38,-4.387 -10e-4,-2.425 -1.963,-4.387 -4.38,-4.387 z"
         style="fill:#e9514d;fill-opacity:1" /><circle
         id="circle196"
         r="4.007"
         cy="701.15198"
         cx="770.97302"
         style="fill:#e9514d;fill-opacity:1" /><path
         inkscape:connector-curvature="0"
         id="path198"
         d="m 599.143,753.902 c -2.509,0 -4.544,2.038 -4.544,4.545 0,2.509 2.036,4.545 4.544,4.545 2.508,0 4.545,-2.036 4.545,-4.545 0,-2.507 -2.037,-4.545 -4.545,-4.545 z"
         style="fill:#e9514d;fill-opacity:1" /><path
         inkscape:connector-curvature="0"
         id="path200"
         d="m 605.622,678.568 c -2.222,0 -4.017,1.795 -4.017,4.016 0,2.212 1.795,4.009 4.017,4.009 2.213,0 4.009,-1.797 4.009,-4.009 0,-2.221 -1.796,-4.016 -4.009,-4.016 z"
         style="fill:#e9514d;fill-opacity:1" /><path
         inkscape:connector-curvature="0"
         id="path202"
         d="m 705.845,688.344 c -2.222,0 -4.017,1.794 -4.017,4.015 0,2.213 1.795,4.01 4.017,4.01 2.213,0 4.008,-1.797 4.008,-4.01 0,-2.221 -1.795,-4.015 -4.008,-4.015 z"
         style="fill:#e9514d;fill-opacity:1" /><path
         inkscape:connector-curvature="0"
         id="path204"
         d="m 628.939,192.504 c -1.557,0 -2.823,1.268 -2.823,2.823 0,1.564 1.267,2.833 2.823,2.833 1.563,0 2.833,-1.268 2.833,-2.833 0,-1.555 -1.269,-2.823 -2.833,-2.823 z"
         style="fill:#e9514d;fill-opacity:1" /><path
         inkscape:connector-curvature="0"
         id="path206"
         d="m 510.289,195.77 c -1.556,0 -2.823,1.268 -2.823,2.823 0,1.564 1.268,2.833 2.823,2.833 1.563,0 2.833,-1.269 2.833,-2.833 0,-1.555 -1.269,-2.823 -2.833,-2.823 z"
         style="fill:#e9514d;fill-opacity:1" /><path
         inkscape:connector-curvature="0"
         id="path208"
         d="m 847.751,651.373 c -1.731,0 -3.128,1.407 -3.128,3.138 0,1.731 1.396,3.128 3.128,3.128 1.732,0 3.138,-1.396 3.138,-3.128 0,-1.731 -1.407,-3.138 -3.138,-3.138 z"
         style="fill:#e9514d;fill-opacity:1" /><path
         inkscape:connector-curvature="0"
         id="path210"
         d="m 833.979,633.88 c -1.73,0 -3.139,1.405 -3.139,3.137 0,1.741 1.408,3.148 3.139,3.148 1.738,0 3.145,-1.407 3.145,-3.148 -10e-4,-1.732 -1.407,-3.137 -3.145,-3.137 z"
         style="fill:#e9514d;fill-opacity:1" /><path
         inkscape:connector-curvature="0"
         id="path212"
         d="m 897.132,559.943 c -2.451,0 -4.452,1.998 -4.452,4.451 0,2.453 2.001,4.451 4.452,4.451 2.453,0 4.444,-1.998 4.444,-4.451 0,-2.453 -1.991,-4.451 -4.444,-4.451 z"
         style="fill:#e9514d;fill-opacity:1" /><path
         inkscape:connector-curvature="0"
         id="path214"
         d="m 736.475,655.085 c -2.426,0 -4.397,1.963 -4.397,4.396 0,2.426 1.972,4.396 4.397,4.396 2.425,0 4.397,-1.971 4.397,-4.396 0,-2.433 -1.972,-4.396 -4.397,-4.396 z"
         style="fill:#e9514d;fill-opacity:1" /><path
         inkscape:connector-curvature="0"
         id="path216"
         d="m 802.27,521.583 c -2.093,0 -3.785,1.704 -3.785,3.796 0,2.091 1.692,3.796 3.785,3.796 2.092,0 3.795,-1.705 3.795,-3.796 -0.001,-2.092 -1.704,-3.796 -3.795,-3.796 z"
         style="fill:#e9514d;fill-opacity:1" /><path
         inkscape:connector-curvature="0"
         id="path218"
         d="m 904.907,373.107 c -1.573,0 -2.853,1.278 -2.853,2.842 0,1.573 1.279,2.851 2.853,2.851 1.563,0 2.841,-1.278 2.841,-2.851 0,-1.564 -1.277,-2.842 -2.841,-2.842 z"
         style="fill:#e9514d;fill-opacity:1" /><path
         inkscape:connector-curvature="0"
         id="path220"
         d="m 881.535,302.392 c 0,-2.361 -1.916,-4.267 -4.276,-4.267 -2.351,0 -4.268,1.906 -4.268,4.267 0,2.359 1.917,4.266 4.268,4.266 2.36,0 4.276,-1.907 4.276,-4.266 z"
         style="fill:#e9514d;fill-opacity:1" /><path
         inkscape:connector-curvature="0"
         id="path222"
         d="m 802.857,331.585 c -2.322,0 -4.2,1.879 -4.2,4.212 0,2.313 1.878,4.202 4.2,4.202 2.326,0 4.214,-1.888 4.214,-4.202 0,-2.333 -1.887,-4.212 -4.214,-4.212 z"
         style="fill:#e9514d;fill-opacity:1" /><path
         inkscape:connector-curvature="0"
         id="path224"
         d="m 862.153,554.897 c -1.592,0 -2.879,1.288 -2.879,2.87 0,1.591 1.287,2.877 2.879,2.877 1.583,0 2.869,-1.286 2.869,-2.877 0,-1.581 -1.286,-2.87 -2.869,-2.87 z"
         style="fill:#e9514d;fill-opacity:1" /><path
         inkscape:connector-curvature="0"
         id="path226"
         d="m 859.951,394.054 c 0,-1.972 -1.594,-3.572 -3.574,-3.572 -1.971,0 -3.561,1.601 -3.561,3.572 0,1.98 1.59,3.573 3.561,3.573 1.98,0 3.574,-1.592 3.574,-3.573 z"
         style="fill:#e9514d;fill-opacity:1" /><path
         inkscape:connector-curvature="0"
         id="path228"
         d="m 869.78,460.808 c 0,-1.971 -1.592,-3.572 -3.574,-3.572 -1.97,0 -3.561,1.602 -3.561,3.572 0,1.981 1.591,3.574 3.561,3.574 1.982,0 3.574,-1.592 3.574,-3.574 z"
         style="fill:#e9514d;fill-opacity:1" /><path
         inkscape:connector-curvature="0"
         id="path230"
         d="m 896.827,415.435 c 1.534,0 2.776,-1.24 2.776,-2.776 0,-1.536 -1.242,-2.777 -2.776,-2.777 -1.537,0 -2.777,1.241 -2.777,2.777 0,1.536 1.24,2.776 2.777,2.776 z"
         style="fill:#e9514d;fill-opacity:1" /><path
         inkscape:connector-curvature="0"
         id="path232"
         d="m 882.441,339.018 c -2.027,0 -3.674,1.647 -3.674,3.684 0,2.026 1.646,3.674 3.674,3.674 2.038,0 3.685,-1.647 3.685,-3.674 0,-2.037 -1.647,-3.684 -3.685,-3.684 z"
         style="fill:#e9514d;fill-opacity:1" /><path
         inkscape:connector-curvature="0"
         id="path234"
         d="m 651.393,160.386 c -1.463,0 -2.646,1.194 -2.646,2.656 0,1.462 1.183,2.657 2.646,2.657 1.472,0 2.656,-1.194 2.656,-2.657 0,-1.462 -1.185,-2.656 -2.656,-2.656 z"
         style="fill:#e9514d;fill-opacity:1" /><path
         inkscape:connector-curvature="0"
         id="path236"
         d="m 695.453,230.592 c -1.973,0 -3.563,1.592 -3.563,3.563 0,1.972 1.591,3.564 3.563,3.564 1.962,0 3.554,-1.592 3.554,-3.564 0,-1.97 -1.592,-3.563 -3.554,-3.563 z"
         style="fill:#e9514d;fill-opacity:1" /><path
         inkscape:connector-curvature="0"
         id="path238"
         d="m 773.008,227.612 c 0,1.777 1.436,3.203 3.202,3.203 1.769,0 3.194,-1.426 3.194,-3.203 0,-1.758 -1.426,-3.202 -3.194,-3.202 -1.767,0 -3.202,1.444 -3.202,3.202 z"
         style="fill:#e9514d;fill-opacity:1" /><path
         inkscape:connector-curvature="0"
         id="path240"
         d="m 833.979,265.969 c -1.832,0 -3.312,1.48 -3.312,3.313 0,1.833 1.48,3.313 3.312,3.313 1.832,0 3.322,-1.48 3.322,-3.313 0,-1.833 -1.49,-3.313 -3.322,-3.313 z"
         style="fill:#e9514d;fill-opacity:1" /><path
         inkscape:connector-curvature="0"
         id="path242"
         d="m 771.74,187.534 c 2.722,0 4.915,-2.203 4.915,-4.906 0,-2.721 -2.193,-4.924 -4.915,-4.924 -2.703,0 -4.906,2.203 -4.906,4.924 0,2.703 2.203,4.906 4.906,4.906 z"
         style="fill:#e9514d;fill-opacity:1" /><path
         inkscape:connector-curvature="0"
         id="path244"
         d="m 384.932,681.316 c -2.131,0 -3.853,1.722 -3.853,3.86 0,2.129 1.722,3.849 3.853,3.849 2.128,0 3.867,-1.72 3.867,-3.849 0,-2.138 -1.738,-3.86 -3.867,-3.86 z"
         style="fill:#e9514d;fill-opacity:1" /><path
         inkscape:connector-curvature="0"
         id="path246"
         d="m 419.483,652.604 c 1.814,0 3.286,-1.463 3.286,-3.276 0,-1.814 -1.472,-3.276 -3.286,-3.276 -1.805,0 -3.277,1.462 -3.277,3.276 0,1.814 1.472,3.276 3.277,3.276 z"
         style="fill:#e9514d;fill-opacity:1" /><path
         inkscape:connector-curvature="0"
         id="path248"
         d="m 269.841,505.83 c -1.499,0 -2.703,1.212 -2.703,2.702 0,1.5 1.204,2.703 2.703,2.703 1.5,0 2.703,-1.203 2.703,-2.703 0,-1.49 -1.202,-2.702 -2.703,-2.702 z"
         style="fill:#e9514d;fill-opacity:1" /><path
         inkscape:connector-curvature="0"
         id="path250"
         d="m 289.649,480.894 c 0,-1.453 -1.185,-2.638 -2.638,-2.638 -1.462,0 -2.637,1.185 -2.637,2.638 0,1.462 1.175,2.647 2.637,2.647 1.453,10e-4 2.638,-1.185 2.638,-2.647 z"
         style="fill:#e9514d;fill-opacity:1" /><path
         inkscape:connector-curvature="0"
         id="path252"
         d="m 288.632,576.991 c -1.316,0 -2.371,1.065 -2.371,2.371 0,1.314 1.055,2.368 2.371,2.368 1.304,0 2.369,-1.054 2.369,-2.368 0,-1.305 -1.065,-2.371 -2.369,-2.371 z"
         style="fill:#e9514d;fill-opacity:1" /><path
         inkscape:connector-curvature="0"
         id="path254"
         d="m 317.778,579.806 c -2.304,0 -4.165,1.87 -4.165,4.166 0,2.294 1.86,4.164 4.165,4.164 2.304,0 4.165,-1.87 4.165,-4.164 0,-2.296 -1.861,-4.166 -4.165,-4.166 z"
         style="fill:#e9514d;fill-opacity:1" /><path
         inkscape:connector-curvature="0"
         id="path256"
         d="m 308.782,615.035 c -2.241,0 -4.064,1.823 -4.064,4.062 0,2.239 1.823,4.062 4.064,4.062 2.249,0 4.064,-1.822 4.064,-4.062 0,-2.24 -1.815,-4.062 -4.064,-4.062 z"
         style="fill:#e9514d;fill-opacity:1" /><path
         inkscape:connector-curvature="0"
         id="path258"
         d="m 420.492,711.889 c -2.175,0 -3.942,1.769 -3.942,3.943 0,2.184 1.767,3.945 3.942,3.945 2.185,0 3.943,-1.762 3.943,-3.945 10e-4,-2.175 -1.758,-3.943 -3.943,-3.943 z"
         style="fill:#e9514d;fill-opacity:1" /><path
         inkscape:connector-curvature="0"
         id="path260"
         d="m 269.841,390.621 c -2.628,0 -4.767,2.138 -4.767,4.767 0,2.629 2.138,4.767 4.767,4.767 2.629,0 4.767,-2.138 4.767,-4.767 0,-2.629 -2.138,-4.767 -4.767,-4.767 z"
         style="fill:#e9514d;fill-opacity:1" /><path
         inkscape:connector-curvature="0"
         id="path262"
         d="m 297.268,305.714 c -1.981,0 -3.592,1.61 -3.592,3.592 0,1.981 1.611,3.582 3.592,3.582 1.979,0 3.581,-1.601 3.581,-3.582 0,-1.981 -1.602,-3.592 -3.581,-3.592 z"
         style="fill:#e9514d;fill-opacity:1" /><path
         inkscape:connector-curvature="0"
         id="path264"
         d="m 240.2,383.868 c -0.129,1.978 1.373,3.69 3.349,3.82 1.978,0.129 3.68,-1.375 3.81,-3.352 0.129,-1.975 -1.364,-3.677 -3.341,-3.807 -1.977,-0.129 -3.689,1.364 -3.818,3.339 z"
         style="fill:#e9514d;fill-opacity:1" /><path
         inkscape:connector-curvature="0"
         id="path266"
         d="m 161.27,599.677 c -0.129,1.977 1.373,3.69 3.349,3.819 1.977,0.129 3.68,-1.374 3.81,-3.351 0.129,-1.975 -1.364,-3.678 -3.341,-3.808 -1.977,-0.129 -3.689,1.364 -3.818,3.34 z"
         style="fill:#e9514d;fill-opacity:1" /><path
         inkscape:connector-curvature="0"
         id="path268"
         d="m 258.924,588.061 c 1.058,1.675 3.28,2.177 4.955,1.119 1.676,-1.059 2.168,-3.276 1.109,-4.95 -1.057,-1.675 -3.266,-2.173 -4.941,-1.115 -1.675,1.058 -2.18,3.272 -1.123,4.946 z"
         style="fill:#e9514d;fill-opacity:1" /><path
         inkscape:connector-curvature="0"
         id="path270"
         d="m 345.287,194.658 c -1.329,1.47 -1.214,3.745 0.254,5.073 1.47,1.33 3.738,1.208 5.066,-0.261 1.328,-1.468 1.215,-3.73 -0.254,-5.059 -1.47,-1.328 -3.738,-1.221 -5.066,0.247 z"
         style="fill:#e9514d;fill-opacity:1" /><path
         inkscape:connector-curvature="0"
         id="path272"
         d="m 257.609,673.909 c 2.833,-0.608 4.642,-3.405 4.035,-6.238 -0.609,-2.832 -3.404,-4.627 -6.235,-4.018 -2.83,0.606 -4.629,3.387 -4.021,6.218 0.607,2.833 3.392,4.646 6.221,4.038 z"
         style="fill:#e9514d;fill-opacity:1" /><path
         inkscape:connector-curvature="0"
         id="path274"
         d="m 99.866,450.625 c -0.959,1.733 -0.331,3.922 1.403,4.881 1.734,0.96 3.914,0.325 4.874,-1.408 0.958,-1.732 0.333,-3.909 -1.401,-4.868 -1.733,-0.959 -3.918,-0.337 -4.876,1.395 z"
         style="fill:#e9514d;fill-opacity:1" /><path
         inkscape:connector-curvature="0"
         id="path276"
         d="m 179.453,719.156 c 1.509,1.282 3.781,1.097 5.062,-0.412 1.283,-1.512 1.091,-3.774 -0.418,-5.057 -1.508,-1.281 -3.766,-1.098 -5.048,0.413 -1.283,1.509 -1.105,3.775 0.404,5.056 z"
         style="fill:#e9514d;fill-opacity:1" /><path
         inkscape:connector-curvature="0"
         id="path278"
         d="m 257.39,643.397 c 1.298,1.497 3.57,1.66 5.066,0.361 1.497,-1.298 1.65,-3.564 0.353,-5.061 -1.296,-1.496 -3.556,-1.657 -5.052,-0.358 -1.497,1.299 -1.664,3.564 -0.367,5.058 z"
         style="fill:#e9514d;fill-opacity:1" /><path
         inkscape:connector-curvature="0"
         id="path280"
         d="m 903.801,199.045 c -1.732,-0.96 -3.923,-0.333 -4.883,1.398 -0.961,1.733 -0.329,3.915 1.404,4.875 1.73,0.96 3.909,0.336 4.869,-1.396 0.96,-1.732 0.34,-3.918 -1.39,-4.877 z"
         style="fill:#e9514d;fill-opacity:1" /><path
         inkscape:connector-curvature="0"
         id="path282"
         d="m 891.949,136.024 c -1.814,0.795 -2.643,2.917 -1.848,4.73 0.795,1.815 2.913,2.634 4.729,1.839 1.812,-0.794 2.636,-2.904 1.841,-4.718 -0.795,-1.814 -2.909,-2.646 -4.722,-1.851 z"
         style="fill:#e9514d;fill-opacity:1" /><path
         inkscape:connector-curvature="0"
         id="path284"
         d="m 1013.731,404.715 c -0.846,-1.792 -2.991,-2.561 -4.781,-1.714 -1.791,0.846 -2.551,2.987 -1.703,4.778 0.845,1.79 2.978,2.554 4.768,1.707 1.791,-0.845 2.562,-2.982 1.716,-4.771 z"
         style="fill:#e9514d;fill-opacity:1" /><path
         inkscape:connector-curvature="0"
         id="path286"
         d="m 904.588,517.347 c -0.847,-1.792 -2.992,-2.56 -4.782,-1.714 -1.791,0.847 -2.551,2.987 -1.704,4.778 0.846,1.79 2.978,2.554 4.768,1.707 1.791,-0.846 2.563,-2.981 1.718,-4.771 z"
         style="fill:#e9514d;fill-opacity:1" /><path
         inkscape:connector-curvature="0"
         id="path288"
         d="m 1122.242,423.974 c -0.846,-1.792 -2.99,-2.56 -4.781,-1.714 -1.791,0.845 -2.551,2.986 -1.703,4.777 0.845,1.791 2.978,2.554 4.768,1.708 1.79,-0.846 2.562,-2.983 1.716,-4.771 z"
         style="fill:#e9514d;fill-opacity:1" /><path
         inkscape:connector-curvature="0"
         id="path290"
         d="m 371.809,496.113 c 0.778,-1.821 -0.069,-3.936 -1.891,-4.715 -1.821,-0.779 -3.926,0.072 -4.706,1.894 -0.778,1.821 0.064,3.924 1.886,4.702 1.821,0.779 3.932,-0.061 4.711,-1.881 z"
         style="fill:#e9514d;fill-opacity:1" /><path
         inkscape:connector-curvature="0"
         id="path292"
         d="m 728.33,726.087 c 2.379,-0.412 3.979,-2.68 3.568,-5.058 -0.413,-2.379 -2.68,-3.969 -5.058,-3.556 -2.376,0.411 -3.968,2.664 -3.558,5.044 0.413,2.379 2.672,3.982 5.048,3.57 z"
         style="fill:#e9514d;fill-opacity:1" /><path
         inkscape:connector-curvature="0"
         id="path294"
         d="m 180.585,542.419 c 1.763,2.3 5.065,2.738 7.364,0.977 2.3,-1.763 2.726,-5.057 0.963,-7.356 -1.761,-2.298 -5.044,-2.734 -7.344,-0.971 -2.299,1.76 -2.744,5.053 -0.983,7.35 z"
         style="fill:#e9514d;fill-opacity:1" /><path
         inkscape:connector-curvature="0"
         id="path296"
         d="m 948.909,365.833 c -0.941,-1.744 -3.124,-2.397 -4.867,-1.456 -1.743,0.94 -2.387,3.118 -1.446,4.861 0.94,1.743 3.109,2.392 4.854,1.451 1.741,-0.939 2.4,-3.114 1.459,-4.856 z"
         style="fill:#e9514d;fill-opacity:1" /><path
         inkscape:connector-curvature="0"
         id="path298"
         d="m 955.334,339.365 c -1.977,-0.141 -3.697,1.352 -3.838,3.328 -0.141,1.976 1.352,3.687 3.328,3.827 1.975,0.14 3.687,-1.343 3.826,-3.319 0.141,-1.975 -1.342,-3.696 -3.316,-3.836 z"
         style="fill:#e9514d;fill-opacity:1" /><path
         inkscape:connector-curvature="0"
         id="path300"
         d="m 894.238,659.243 c -1.035,2.706 -4.076,4.066 -6.781,3.031 -2.704,-1.034 -4.05,-4.07 -3.015,-6.777 1.034,-2.703 4.057,-4.056 6.763,-3.02 2.703,1.036 4.067,4.063 3.033,6.766 z"
         style="fill:#e9514d;fill-opacity:1" /><path
         inkscape:connector-curvature="0"
         id="path302"
         d="m 960.456,698.434 c -0.715,1.262 -2.32,1.705 -3.58,0.991 -1.261,-0.713 -1.698,-2.315 -0.982,-3.574 0.713,-1.262 2.308,-1.703 3.568,-0.989 1.26,0.713 1.707,2.313 0.994,3.572 z"
         style="fill:#e9514d;fill-opacity:1" /><path
         inkscape:connector-curvature="0"
         id="path304"
         d="m 397.131,444.454 c -2.482,0 -4.499,2.008 -4.499,4.489 0,2.48 2.017,4.479 4.499,4.479 2.47,0 4.479,-1.999 4.479,-4.479 0,-2.482 -2.009,-4.489 -4.479,-4.489 z"
         style="fill:#e9514d;fill-opacity:1" /><path
         inkscape:connector-curvature="0"
         id="path306"
         d="m 543.562,221.346 c 0,-1.879 -1.527,-3.396 -3.407,-3.396 -1.869,0 -3.405,1.517 -3.405,3.396 0,1.879 1.536,3.397 3.405,3.397 1.879,0 3.407,-1.518 3.407,-3.397 z"
         style="fill:#e9514d;fill-opacity:1" /><path
         inkscape:connector-curvature="0"
         id="path308"
         d="m 662.195,298.995 c -1.879,0 -3.397,1.519 -3.397,3.397 0,1.878 1.519,3.396 3.397,3.396 1.871,0 3.397,-1.518 3.397,-3.396 10e-4,-1.879 -1.526,-3.397 -3.397,-3.397 z"
         style="fill:#e9514d;fill-opacity:1" /><path
         inkscape:connector-curvature="0"
         id="path310"
         d="m 542.136,318.645 c -2.018,0 -3.648,1.638 -3.648,3.647 0,2.018 1.63,3.646 3.648,3.646 2.018,0 3.646,-1.628 3.646,-3.646 0,-2.009 -1.629,-3.647 -3.646,-3.647 z"
         style="fill:#e9514d;fill-opacity:1" /><path
         inkscape:connector-curvature="0"
         id="path312"
         d="m 785.227,426.506 c 2.878,0 5.212,-2.333 5.212,-5.202 0,-2.888 -2.334,-5.221 -5.212,-5.221 -2.88,0 -5.213,2.333 -5.213,5.221 0,2.869 2.333,5.202 5.213,5.202 z"
         style="fill:#e9514d;fill-opacity:1" /><path
         inkscape:connector-curvature="0"
         id="path314"
         d="m 319.286,272.522 c 1.796,0 3.241,-1.452 3.241,-3.239 0,-1.787 -1.445,-3.239 -3.241,-3.239 -1.776,0 -3.229,1.452 -3.229,3.239 0,1.787 1.453,3.239 3.229,3.239 z"
         style="fill:#e9514d;fill-opacity:1" /><path
         inkscape:connector-curvature="0"
         id="path316"
         d="m 362.327,218.976 c -1.296,0 -2.368,1.064 -2.368,2.37 0,1.306 1.072,2.369 2.368,2.369 1.316,0 2.372,-1.063 2.372,-2.369 0,-1.305 -1.056,-2.37 -2.372,-2.37 z"
         style="fill:#e9514d;fill-opacity:1" /><path
         inkscape:connector-curvature="0"
         id="path318"
         d="m 478.986,209.021 c -1.296,0 -2.369,1.064 -2.369,2.37 0,1.306 1.073,2.369 2.369,2.369 1.316,0 2.372,-1.064 2.372,-2.369 0,-1.305 -1.056,-2.37 -2.372,-2.37 z"
         style="fill:#e9514d;fill-opacity:1" /><path
         inkscape:connector-curvature="0"
         id="path320"
         d="m 346.927,641.691 c -1.834,0 -3.314,1.481 -3.314,3.313 0,1.833 1.48,3.323 3.314,3.323 1.832,0 3.321,-1.49 3.321,-3.323 0,-1.831 -1.489,-3.313 -3.321,-3.313 z"
         style="fill:#e9514d;fill-opacity:1" /><path
         inkscape:connector-curvature="0"
         id="path322"
         d="m 346.927,474.026 c -1.409,0 -2.556,1.139 -2.556,2.554 0,1.407 1.147,2.555 2.556,2.555 1.414,0 2.554,-1.147 2.554,-2.555 0,-1.415 -1.14,-2.554 -2.554,-2.554 z"
         style="fill:#e9514d;fill-opacity:1" /><path
         inkscape:connector-curvature="0"
         id="path324"
         d="m 459.331,258.435 c 1.389,0 2.519,-1.129 2.519,-2.517 0,-1.389 -1.13,-2.518 -2.519,-2.518 -1.397,0 -2.527,1.129 -2.527,2.518 0,1.387 1.13,2.517 2.527,2.517 z"
         style="fill:#e9514d;fill-opacity:1" /><path
         inkscape:connector-curvature="0"
         id="path326"
         d="m 319.566,435.921 c -2.904,0 -5.256,2.342 -5.256,5.245 0,2.895 2.352,5.247 5.256,5.247 2.894,0 5.236,-2.352 5.236,-5.247 0,-2.903 -2.343,-5.245 -5.236,-5.245 z"
         style="fill:#e9514d;fill-opacity:1" /><path
         inkscape:connector-curvature="0"
         id="path328"
         d="m 373.759,697.043 c -1.565,0 -2.823,1.259 -2.823,2.813 0,1.554 1.258,2.813 2.823,2.813 1.553,0 2.813,-1.259 2.813,-2.813 0,-1.554 -1.26,-2.813 -2.813,-2.813 z"
         style="fill:#e9514d;fill-opacity:1" /><path
         inkscape:connector-curvature="0"
         id="path330"
         d="m 297.268,374.838 c -1.565,0 -2.842,1.277 -2.842,2.842 0,1.564 1.277,2.842 2.842,2.842 1.563,0 2.841,-1.278 2.841,-2.842 -10e-4,-1.564 -1.278,-2.842 -2.841,-2.842 z"
         style="fill:#e9514d;fill-opacity:1" /><path
         inkscape:connector-curvature="0"
         id="path332"
         d="m 346.927,342.72 c -2.573,0 -4.658,2.083 -4.658,4.666 0,2.572 2.084,4.655 4.658,4.655 2.581,0 4.664,-2.083 4.664,-4.655 -0.001,-2.583 -2.084,-4.666 -4.664,-4.666 z"
         style="fill:#e9514d;fill-opacity:1" /><path
         inkscape:connector-curvature="0"
         id="path334"
         d="m 225.823,191.944 c -2.573,0 -4.657,2.083 -4.657,4.666 0,2.572 2.084,4.655 4.657,4.655 2.581,0 4.664,-2.083 4.664,-4.655 -0.001,-2.584 -2.084,-4.666 -4.664,-4.666 z"
         style="fill:#e9514d;fill-opacity:1" /><path
         inkscape:connector-curvature="0"
         id="path336"
         d="m 401.563,242.968 c -2.286,0 -4.145,1.86 -4.145,4.146 0,2.287 1.859,4.138 4.145,4.138 2.288,0 4.139,-1.851 4.139,-4.138 0,-2.286 -1.851,-4.146 -4.139,-4.146 z"
         style="fill:#e9514d;fill-opacity:1" /><path
         inkscape:connector-curvature="0"
         id="path338"
         d="m 443.227,192.926 c -2.286,0 -4.146,1.861 -4.146,4.146 0,2.287 1.859,4.138 4.146,4.138 2.288,0 4.139,-1.851 4.139,-4.138 0,-2.285 -1.851,-4.146 -4.139,-4.146 z"
         style="fill:#e9514d;fill-opacity:1" /><path
         inkscape:connector-curvature="0"
         id="path340"
         d="m 510.298,253.3 c -2.287,0 -4.146,1.86 -4.146,4.146 0,2.286 1.859,4.138 4.146,4.138 2.287,0 4.139,-1.852 4.139,-4.138 0,-2.286 -1.852,-4.146 -4.139,-4.146 z"
         style="fill:#e9514d;fill-opacity:1" /><path
         inkscape:connector-curvature="0"
         id="path342"
         d="m 362.327,264.543 c -1.296,0 -2.368,1.055 -2.368,2.369 0,1.296 1.072,2.37 2.368,2.37 1.316,0 2.372,-1.074 2.372,-2.37 0,-1.313 -1.056,-2.369 -2.372,-2.369 z"
         style="fill:#e9514d;fill-opacity:1" /></g></g></svg>