<svg xmlns="http://www.w3.org/2000/svg" viewBox="0 0 64 64" width="64" height="64">
  <style>
  .neon-icon path:nth-child(4n) {
    filter: saturate(5%);
  }
  .neon-icon path:nth-child(4n + 1) {
    filter: saturate(5%);
  }
  .neon-icon path:nth-child(4n + 2) {
    filter: saturate(5%);
  }
  .neon-icon path:nth-child(4n + 3) {
    filter: saturate(5%);
  }
  </style>
  <path stroke="#aaa" stroke-width=".5" d="M.502 18.339h53.691v35.57H.503Z" fill="none" stroke-linecap="round"/>
  <g fill="none" stroke-width="1" stroke-linecap="round" class="neon-icon">
  <path stroke="#6951e1" d="M29.544 32.566c1.538-.862 4.979-2.95 7.69-4.311 2.712-1.363 3.1-1.524 5.868-2.5 2.768-.975 5.315-1.236 7.97-2.377 2.654-1.142 3.687-1.923 5.302-3.329 1.615-1.406 1.984-2.29 2.774-3.701.789-1.412.938-2.687 1.173-3.36" />
  <path stroke="#51e18b" d="M46.14 40.569c.809-.446 2.103-1.348 4.046-2.23 1.943-.883 3.675-1.593 5.667-2.184 1.991-.59 3.433-.615 4.29-.77" />
  <path stroke="#5651e1" d="M12.786 46.632c1.468-.05 4.288.055 7.343-.247 3.054-.303 4.834.015 7.927-1.266 3.093-1.28 5.333-3.29 7.536-5.137 2.203-1.846 1.948-2.96 3.478-4.093 1.53-1.134 1.898-.69 4.174-1.577 2.275-.887 4.352-1.757 7.202-2.859 2.851-1.101 4.535-1.667 7.051-2.65 2.516-.983 4.422-1.812 5.528-2.265" />
  <path stroke="#5162e1" d="M8.393 19.308c1.176-.259 3.803-.67 5.882-1.293 2.079-.623 2.704-1.083 4.512-1.823 1.809-.74 3.624-1.504 4.53-1.88" />
  <path stroke="#5190e1" d="M1.478 21.248c1.064-.198 2.992-.813 5.321-.993 2.329-.18 4.062.72 6.324.094 2.262-.626 3.475-1.987 4.985-3.224 1.51-1.237 2.053-2.369 2.566-2.961" />
  <path stroke="#51e1cb" d="M48.01 44.207c.861-.283 2.365-.317 4.305-1.416 1.94-1.1 3.414-2.834 5.396-4.08 1.981-1.247 3.61-1.723 4.512-2.154" />
  <path stroke="#51e17c" d="M14.82 53.342c1.083.008 3.21.424 5.417.043 2.208-.38 3.035-.959 5.62-1.946 2.584-.987 5.108-1.425 7.304-2.988 2.195-1.563 2.27-3.006 3.672-4.827 1.403-1.82 1.76-3 3.342-4.276 1.582-1.277 2.613-1.108 4.568-2.106 1.956-.998 2.975-1.78 5.21-2.883s3.662-1.923 5.966-2.633c2.303-.71 4.44-.734 5.55-.917" />
  <path stroke="#e19951" d="M4 41.458c1.377.321 4.222 1.367 6.884 1.606 2.661.238 3.602-.11 6.423-.413 2.82-.303 4.498-.183 7.68-1.104 3.182-.92 5.465-1.925 8.23-3.5 2.764-1.573 3.54-3.035 5.592-4.368 2.052-1.333 2.35-1.168 4.668-2.295 2.317-1.126 4.306-2.12 6.92-3.338 2.613-1.217 3.938-1.789 6.148-2.749 2.21-.96 3.92-1.64 4.9-2.05" />
  <path stroke="#51a3e1" d="M6.603 26.341c1.406.28 4.362 1.298 7.03 1.398 2.669.1 3.547-.128 6.313-.897 2.766-.769 5.02-1.597 7.517-2.946 2.497-1.35 3.036-2.179 4.967-3.802 1.932-1.623 2.913-2.624 4.692-4.314 1.78-1.69 3.363-3.31 4.204-4.137" />
  <path stroke="#d051e1" d="M16.528 51.078c1.436-.52 3.912-1.095 7.18-2.599 3.266-1.503 6.26-2.746 9.156-4.92 2.898-2.173 3.39-4.211 5.33-5.948 1.939-1.736 2.274-1.532 4.368-2.734 2.095-1.202 3.408-2.102 6.103-3.275 2.694-1.174 4.886-1.723 7.37-2.594 2.485-.87 4.042-1.408 5.052-1.76" />
  <path stroke="#51c4e1" d="M15.308 28.766c1.378-.124 3.955.176 6.893-.62 2.938-.797 4.956-2.249 7.796-3.364 2.841-1.115 4.018-.842 6.408-2.212 2.39-1.37 3.776-2.876 5.54-4.639 1.765-1.763 2.625-3.341 3.281-4.177" />
  <path stroke="#5167e1" d="M7.01 53.423c1.157.058 3.533.263 5.784.29 2.252.026 3.455.339 5.473-.158s2.51-1.409 4.619-2.327c2.108-.918 3.549-.712 5.922-2.263 2.374-1.55 3.868-3.294 5.946-5.49s2.745-4 4.445-5.49c1.699-1.49 1.964-1.001 4.05-1.957 2.087-.957 3.801-1.524 6.383-2.825 2.58-1.3 4.219-2.59 6.523-3.68 2.304-1.09 3.998-1.415 4.998-1.768" />
  <path stroke="#84e151" d="M52.24 48.33c.925-.813 2.79-2.698 4.624-4.066 1.834-1.368 3.637-2.22 4.547-2.776" />
  <path stroke="#51aae1" d="M41.99 49.057c1.208-.726 3.919-2.448 6.036-3.631 2.118-1.184 2.557-.997 4.552-2.285 1.996-1.288 3.479-2.985 5.425-4.156 1.946-1.172 3.446-1.36 4.308-1.7" />
  <path stroke="#51e170" d="M25.883 21.572c.92-.882 2.852-2.394 4.597-4.408 1.745-2.013 3.303-4.527 4.129-5.66" />
  <path stroke="#e15165" d="M1.885 24.078c1.163.103 3.23.18 5.816.517 2.585.337 4.455 1.271 7.111 1.169 2.657-.102 3.856-.81 6.171-1.68 2.316-.871 3.398-1.272 5.409-2.672 2.01-1.4 2.877-2.345 4.646-4.329 1.768-1.984 3.356-4.473 4.195-5.591" />
  <path stroke="#51e1b8" d="M47.929 45.662c.907-.468 2.55-1.037 4.535-2.34 1.985-1.305 3.46-3.002 5.392-4.18 1.931-1.177 3.411-1.366 4.264-1.708" />
  <path stroke="#e19951" d="M9.206 32.566c1.375.484 3.869 2.455 6.871 2.422 3.002-.032 4.904-1.538 8.14-2.587 3.236-1.048 5.219-1.593 8.041-2.656 2.823-1.063 3.494-1.54 6.071-2.66 2.578-1.121 3.984-1.602 6.818-2.944 2.835-1.343 5.06-2.294 7.356-3.769 2.296-1.474 2.95-2.259 4.126-3.604 1.176-1.344 1.401-2.496 1.752-3.12" />
  <path stroke="#d251e1" d="M45.977 47.36c.856-.578 2.387-1.546 4.282-2.887 1.894-1.34 3.24-2.61 5.192-3.817 1.952-1.207 3.654-1.776 4.568-2.22" />
  <path stroke="#d5e151" d="M17.341 37.74c1.715-.38 4.935-.883 8.572-1.898 3.636-1.016 6.608-2.062 9.611-3.18 3.003-1.117 2.88-1.38 5.403-2.406 2.523-1.026 4.126-1.709 7.213-2.722 3.087-1.014 5.598-1.47 8.22-2.347 2.623-.876 3.914-1.628 4.892-2.036" />
  <path stroke="#e19751" d="M24.419 31.353c1.793-.662 5.919-2.313 8.967-3.312 3.048-.999 3.49-.6 6.272-1.683 2.781-1.082 4.866-2.166 7.634-3.732 2.768-1.566 4.471-2.168 6.205-4.096 1.734-1.927 1.973-4.434 2.466-5.542" />
  <path stroke="#cbe151" d="M40.282 41.297c.796-.419 1.996-.949 3.977-2.092 1.981-1.143 3.594-2.354 5.929-3.624 2.334-1.27 3.582-2.04 5.743-2.726 2.16-.687 4.047-.567 5.06-.708" />
  <path stroke="#88e151" d="M26.046 34.425c1.954-.708 6.832-2.478 9.77-3.539 2.939-1.06 2.459-.86 4.922-1.764 2.464-.905 4.413-1.68 7.396-2.76 2.983-1.082 4.973-1.558 7.52-2.646 2.546-1.088 4.17-2.236 5.213-2.796" />
  <path stroke="#e1517c" d="M20.677 42.51c1.816.035 5.971 1.264 9.083.18 3.111-1.086 4.347-3.779 6.475-5.605 2.129-1.826 2.199-2.412 4.166-3.527 1.967-1.116 3.096-1.034 5.67-2.052 2.573-1.018 4.836-2.209 7.198-3.037 2.363-.828 2.666-.47 4.614-1.104 1.948-.634 4.101-1.651 5.127-2.064" />
  <path stroke="#e151d7" d="M2.373 26.422c1.067.286 2.992.895 5.332 1.428 2.34.532 3.504.984 6.371 1.236 2.867.252 4.576.55 7.965.024 3.39-.526 5.923-1.803 8.98-2.657 3.058-.854 3.776-.598 6.307-1.611 2.531-1.013 4.043-2.078 6.35-3.453 2.307-1.375 3.558-2.162 5.184-3.422 1.626-1.259 2.106-1.299 2.946-2.874.84-1.575 1.005-4 1.256-5" />
  <path stroke="#51e15b" d="M11.566 30.868c1.447.034 4.602.764 7.237.167s3.484-1.39 5.937-3.153c2.453-1.762 4.089-3.847 6.326-5.658 2.237-1.81 2.877-1.941 4.858-3.395 1.981-1.454 3.417-2.44 5.048-3.875 1.63-1.435 2.484-2.639 3.105-3.298" />
  <path stroke="#51e1bf" d="m53.298 38.79 6.96-1.941" />
  <path stroke="#e1b351" d="M31.09 37.497c1.434-1.192 4.664-4.294 7.174-5.958 2.51-1.665 2.848-1.104 5.378-2.364 2.529-1.26 4.634-2.68 7.268-3.938 2.634-1.259 3.89-1.233 5.903-2.354 2.014-1.122 3.332-2.602 4.165-3.253" />
  <path stroke="#de51e1" d="M5.79 39.033c1.222.422 3.49 1.84 6.11 2.11 2.62.272 3.865-.318 6.989-.753 3.124-.436 5.087-.315 8.63-1.424 3.543-1.11 6.267-2.723 9.084-4.123 2.817-1.4 2.592-1.77 5.001-2.878 2.41-1.109 4.184-1.631 7.044-2.667 2.86-1.035 4.747-1.515 7.253-2.51 2.506-.996 4.22-1.974 5.276-2.468" />
  </g>
</svg>
