<?xml version="1.0" encoding="UTF-8" standalone="no"?>
<!-- Created with Inkscape (http://www.inkscape.org/) -->

<svg
   width="950"
   height="489.99997"
   viewBox="0 0 251.35417 129.64583"
   version="1.1"
   id="svg4365"
   xmlns="http://www.w3.org/2000/svg"
   xmlns:svg="http://www.w3.org/2000/svg">
  <defs
     id="defs4362" />
  <g
     id="layer1"
     transform="translate(232.04477,139.42038)">
    <rect
       style="fill:#f2f5f9;fill-opacity:1;stroke:none;stroke-width:0.264582;stroke-linecap:round;stroke-linejoin:round"
       id="rect4667"
       width="251.35417"
       height="129.646"
       x="-232.04477"
       y="-139.42038" />
    <g
       id="g9218"
       transform="translate(21.074162,1.175113)">
      <path
         d="m -159.69518,-83.71008 h -2.17418 c -2.13969,0 -4.21033,1.150358 -5.01558,2.300717 -0.80527,-1.150359 -2.8759,-2.300717 -5.0156,-2.300717 h -3.91121 v 15.875 h 3.91121 v -11.963788 c 1.49549,0.06915 3.22103,1.12737 3.22103,3.336066 v 8.627722 h 3.58913 v -8.627722 c 0,-2.208696 1.72554,-3.267034 3.22102,-3.336066 v 11.963788 h 2.17418 2.17418 v -11.963788 c 1.49549,0.06915 3.22103,1.12737 3.22103,3.336066 v 8.627722 h 3.58914 v -8.627722 c 0,-2.208696 1.72554,-3.267034 3.22099,-3.336066 v 11.963788 h 3.91125 v -15.875 h -3.91125 c -2.13966,0 -4.21033,1.150358 -5.01556,2.300717 -0.80527,-1.150359 -2.87593,-2.300717 -5.0156,-2.300717 z"
         fill="#161617"
         id="path4532"
         style="fill:#356cde;fill-opacity:1;stroke-width:0.264583" />
      <text
         xml:space="preserve"
         style="font-style:normal;font-weight:normal;font-size:10.5833px;line-height:1.25;font-family:sans-serif;letter-spacing:0.132292px;fill:#000000;fill-opacity:1;stroke:none;stroke-width:0.264583"
         x="-136.82545"
         y="-71.447525"
         id="text4959"><tspan
           id="tspan4957"
           style="font-style:normal;font-variant:normal;font-weight:normal;font-stretch:normal;font-family:'Marvin Visions';-inkscape-font-specification:'Marvin Visions';stroke-width:0.264583"
           x="-136.82545"
           y="-71.447525"><tspan
             style="font-size:12.7px"
             id="tspan6575">M</tspan><tspan
             style="font-size:11.2889px"
             id="tspan7927">uffin</tspan><tspan
             style="font-size:12.7px"
             id="tspan7125">M</tspan><tspan
             style="font-size:11.2889px"
             id="tspan8799">an</tspan></tspan></text>
    </g>
  </g>
</svg>
