<?xml version="1.0" encoding="UTF-8" standalone="no"?>
<svg
   aria-hidden="true"
   width="32"
   height="32"
   version="1.1"
   id="svg826"
   sodipodi:docname="icon-padding.svg"
   inkscape:version="1.1.1 (c3084ef, 2021-09-22)"
   inkscape:export-filename="/Users/stanko/Projects/muffinman-zola/static/favicon/icon-180-gray.png"
   inkscape:export-xdpi="540.00006"
   inkscape:export-ydpi="540.00006"
   xmlns:inkscape="http://www.inkscape.org/namespaces/inkscape"
   xmlns:sodipodi="http://sodipodi.sourceforge.net/DTD/sodipodi-0.dtd"
   xmlns="http://www.w3.org/2000/svg"
   xmlns:svg="http://www.w3.org/2000/svg">
  <defs
     id="defs830" />
  <sodipodi:namedview
     id="namedview828"
     pagecolor="#ffffff"
     bordercolor="#666666"
     borderopacity="1.0"
     inkscape:pageshadow="2"
     inkscape:pageopacity="0.0"
     inkscape:pagecheckerboard="0"
     showgrid="false"
     inkscape:zoom="9.1331072"
     inkscape:cx="15.164609"
     inkscape:cy="24.471409"
     inkscape:window-width="1728"
     inkscape:window-height="1051"
     inkscape:window-x="0"
     inkscape:window-y="38"
     inkscape:window-maximized="0"
     inkscape:current-layer="svg826" />
  <rect
     style="fill:#ffffff;fill-opacity:1;stroke-width:1;stroke-linecap:round;stroke-linejoin:round"
     id="rect1004"
     width="32.000004"
     height="32"
     x="0"
     y="0" />
  <path
     d="m 16,10.09 h -1.6185 c -1.593,0 -3.135,0.8565 -3.735,1.713 -0.6,-0.8565 -2.14125,-1.713 -3.735,-1.713 H 4 v 11.82 h 2.91225 v -8.90775 c 1.11375,0.05175 2.3985,0.84 2.3985,2.484 V 21.91 H 11.983 v -6.42375 c 0,-1.64475 1.28475,-2.43225 2.3985,-2.484 V 21.91 h 3.237 v -8.90775 c 1.11375,0.05175 2.3985,0.84 2.3985,2.484 V 21.91 h 2.67225 v -6.42375 c 0,-1.64475 1.28475,-2.43225 2.3985,-2.484 V 21.91 H 28 V 10.09 h -2.9115 c -1.59375,0 -3.135,0.8565 -3.735,1.713 -0.6,-0.8565 -2.14125,-1.713 -3.735,-1.713 z"
     style="fill:#304f6e;fill-opacity:1;stroke:none;stroke-width:0.999997"
     id="path824"
     inkscape:export-filename="/Users/stanko/Projects/muffinman-zola/static/favicon/icon-180-purple.png"
     inkscape:export-xdpi="3840.0002"
     inkscape:export-ydpi="3840.0002" />
</svg>
