<?xml version="1.0" encoding="UTF-8" standalone="no"?>
<svg
   aria-hidden="true"
   width="32"
   height="32"
   version="1.1"
   id="svg1172"
   sodipodi:docname="icon-red.svg"
   inkscape:version="1.1.1 (c3084ef, 2021-09-22)"
   inkscape:export-filename="/Users/stanko/Projects/muffinman-zola/static/favicon/icon-32-red.png"
   inkscape:export-xdpi="96"
   inkscape:export-ydpi="96"
   xmlns:inkscape="http://www.inkscape.org/namespaces/inkscape"
   xmlns:sodipodi="http://sodipodi.sourceforge.net/DTD/sodipodi-0.dtd"
   xmlns="http://www.w3.org/2000/svg"
   xmlns:svg="http://www.w3.org/2000/svg">
  <defs
     id="defs1176" />
  <sodipodi:namedview
     id="namedview1174"
     pagecolor="#ffffff"
     bordercolor="#666666"
     borderopacity="1.0"
     inkscape:pageshadow="2"
     inkscape:pageopacity="0.0"
     inkscape:pagecheckerboard="0"
     showgrid="false"
     inkscape:zoom="22.46875"
     inkscape:cx="12.216968"
     inkscape:cy="16.623088"
     inkscape:window-width="1728"
     inkscape:window-height="1051"
     inkscape:window-x="0"
     inkscape:window-y="38"
     inkscape:window-maximized="0"
     inkscape:current-layer="svg1172" />
  <path
     d="M16 8.12h-2.158c-2.124 0-4.18 1.142-4.98 2.284-.8-1.142-2.855-2.284-4.98-2.284H0v15.76h3.883V12.003c1.485.069 3.198 1.12 3.198 3.312v8.565h3.563v-8.565c0-2.193 1.713-3.243 3.198-3.312V23.88h4.316V12.003c1.485.069 3.198 1.12 3.198 3.312v8.565h3.563v-8.565c0-2.193 1.713-3.243 3.198-3.312V23.88H32V8.12h-3.882c-2.125 0-4.18 1.142-4.98 2.284-.8-1.142-2.855-2.284-4.98-2.284Z"
     style="fill:#d62940;fill-opacity:1;stroke:none"
     id="path1170" />
</svg>
