<svg aria-hidden="true" width="32" height="32" xmlns="http://www.w3.org/2000/svg">
<path fill="#304f6e" stroke="none" d="M16 8.12h-2.158c-2.124 0-4.18 1.142-4.98 2.284-.8-1.142-2.855-2.284-4.98-2.284H0v15.76h3.883V12.003c1.485.069 3.198 1.12 3.198 3.312v8.565h3.563v-8.565c0-2.193 1.713-3.243 3.198-3.312V23.88h4.316V12.003c1.485.069 3.198 1.12 3.198 3.312v8.565h3.563v-8.565c0-2.193 1.713-3.243 3.198-3.312V23.88H32V8.12h-3.882c-2.125 0-4.18 1.142-4.98 2.284-.8-1.142-2.855-2.284-4.98-2.284Z" />
</svg>