<?xml version="1.0" encoding="UTF-8" standalone="no"?>
<!-- Generator: Adobe Illustrator 16.0.0, SVG Export Plug-In . SVG Version: 6.00 Build 0)  -->

<svg
   xmlns:dc="http://purl.org/dc/elements/1.1/"
   xmlns:cc="http://creativecommons.org/ns#"
   xmlns:rdf="http://www.w3.org/1999/02/22-rdf-syntax-ns#"
   xmlns:svg="http://www.w3.org/2000/svg"
   xmlns="http://www.w3.org/2000/svg"
   xmlns:sodipodi="http://sodipodi.sourceforge.net/DTD/sodipodi-0.dtd"
   xmlns:inkscape="http://www.inkscape.org/namespaces/inkscape"
   version="1.1"
   id="Layer_1"
   x="0px"
   y="0px"
   width="203.56859"
   height="40"
   viewBox="0 0 203.56858 39.999999"
   enable-background="new 0 0 65.258 12.824"
   xml:space="preserve"
   inkscape:version="0.91+devel+osxmenu r12896"
   sodipodi:docname="null-object-logo.svg"><metadata
     id="metadata4523"><rdf:RDF><cc:Work
         rdf:about=""><dc:format>image/svg+xml</dc:format><dc:type
           rdf:resource="http://purl.org/dc/dcmitype/StillImage" /><dc:title></dc:title></cc:Work></rdf:RDF></metadata><defs
     id="defs4521" /><sodipodi:namedview
     pagecolor="#ffffff"
     bordercolor="#666666"
     borderopacity="1"
     objecttolerance="10"
     gridtolerance="10"
     guidetolerance="10"
     inkscape:pageopacity="0"
     inkscape:pageshadow="2"
     inkscape:window-width="1680"
     inkscape:window-height="1005"
     id="namedview4519"
     showgrid="false"
     fit-margin-top="0"
     fit-margin-left="0"
     fit-margin-right="0"
     fit-margin-bottom="0"
     inkscape:zoom="4.7197276"
     inkscape:cx="101.78379"
     inkscape:cy="19.9995"
     inkscape:window-x="0"
     inkscape:window-y="23"
     inkscape:window-maximized="0"
     inkscape:current-layer="Layer_1" /><g
     id="g4525"
     transform="scale(3.1193947)"
     style="stroke-width:0.320575"><path
       id="path4515"
       d="m 16.048,8.922 1.462,0 0,-2.742 0.014,0 1.54,2.742 1.504,0 0,-5.019 -1.462,0 0,2.685 -0.014,0 -1.462,-2.685 -1.581,0 0,5.019 -0.001,0 z m 9.883,-5.019 -1.547,0 0,2.734 c 0,0.513 0,1.152 -0.731,1.152 -0.752,0 -0.752,-0.64 -0.752,-1.152 l 0,-2.734 -1.546,0 0,3.078 c 0,1.393 0.759,2.061 2.291,2.061 1.532,0 2.285,-0.668 2.285,-2.061 l 0,-3.078 0,0 z m 0.78,5.019 3.768,0 0,-1.286 -2.221,0 0,-3.733 -1.546,0 0,5.019 -0.001,0 z m 4.428,0 3.767,0 0,-1.286 -2.22,0 0,-3.733 -1.547,0 0,5.019 0,0 z m 4.295,-2.509 c 0,0.426 0.073,0.805 0.219,1.139 0.145,0.332 0.345,0.609 0.601,0.832 0.255,0.223 0.546,0.389 0.872,0.5 0.325,0.109 0.67,0.164 1.036,0.164 0.366,0 0.711,-0.055 1.036,-0.164 0.326,-0.111 0.617,-0.277 0.872,-0.5 0.255,-0.223 0.456,-0.5 0.601,-0.832 C 40.817,7.218 40.89,6.839 40.89,6.413 40.89,5.987 40.817,5.607 40.671,5.274 40.526,4.941 40.325,4.663 40.07,4.441 39.815,4.218 39.524,4.052 39.198,3.942 38.873,3.832 38.528,3.776 38.162,3.776 c -0.366,0 -0.711,0.056 -1.036,0.166 -0.326,0.11 -0.617,0.276 -0.872,0.499 -0.256,0.222 -0.456,0.5 -0.601,0.833 -0.146,0.332 -0.219,0.712 -0.219,1.139 l 0,0 z m 0.562,0 c 0,-0.365 0.059,-0.685 0.176,-0.959 0.117,-0.274 0.277,-0.5 0.48,-0.679 0.205,-0.177 0.436,-0.309 0.693,-0.394 0.258,-0.084 0.529,-0.126 0.815,-0.126 0.286,0 0.558,0.042 0.815,0.126 0.258,0.084 0.488,0.216 0.691,0.394 0.205,0.178 0.365,0.404 0.482,0.679 0.117,0.275 0.176,0.594 0.176,0.959 0,0.366 -0.059,0.686 -0.176,0.959 -0.117,0.273 -0.277,0.5 -0.482,0.678 -0.203,0.179 -0.434,0.31 -0.691,0.395 -0.258,0.084 -0.529,0.126 -0.815,0.126 -0.286,0 -0.558,-0.044 -0.815,-0.13 C 37.088,8.355 36.857,8.223 36.652,8.047 36.449,7.871 36.289,7.646 36.172,7.372 36.055,7.098 35.996,6.778 35.996,6.413 l 0,0 z m 5.623,2.509 2.791,0 c 0.206,0 0.406,-0.026 0.601,-0.081 0.194,-0.054 0.371,-0.138 0.53,-0.253 0.16,-0.114 0.287,-0.264 0.384,-0.446 0.096,-0.183 0.144,-0.4 0.144,-0.654 0,-0.327 -0.095,-0.603 -0.284,-0.825 -0.19,-0.222 -0.448,-0.357 -0.776,-0.404 l 0,-0.015 C 45.294,6.178 45.51,6.047 45.655,5.85 45.8,5.654 45.872,5.426 45.872,5.168 45.872,4.789 45.757,4.483 45.524,4.251 45.293,4.019 44.942,3.903 44.473,3.903 l -2.854,0 0,5.019 0,0 z m 0.521,-4.541 2.235,0 c 0.309,0 0.549,0.062 0.721,0.187 0.17,0.124 0.256,0.332 0.256,0.622 0,0.318 -0.098,0.547 -0.295,0.685 C 44.86,6.014 44.575,6.083 44.2,6.083 l -2.06,0 0,-1.702 0,0 z m 0,2.179 2.312,0 c 0.333,0 0.591,0.069 0.776,0.208 0.186,0.139 0.277,0.378 0.277,0.72 0,0.328 -0.105,0.57 -0.319,0.725 -0.214,0.155 -0.501,0.232 -0.86,0.232 l -2.186,0 0,-1.885 0,0 z m 4.921,0.716 -0.521,0 0,0.008 c 0.005,0.229 0.02,0.434 0.046,0.611 0.025,0.178 0.089,0.355 0.189,0.534 0.1,0.179 0.262,0.326 0.484,0.442 0.223,0.117 0.518,0.176 0.883,0.176 0.553,0 0.969,-0.139 1.248,-0.414 0.278,-0.277 0.418,-0.648 0.418,-1.117 l 0,-3.613 -0.521,0 0,3.473 c 0,0.463 -0.093,0.785 -0.278,0.966 -0.185,0.181 -0.465,0.271 -0.839,0.271 -0.38,0 -0.659,-0.098 -0.841,-0.295 -0.18,-0.197 -0.27,-0.482 -0.27,-0.857 l 0,-0.185 0.002,0 z m 3.759,1.646 4.049,0 0,-0.478 -3.529,0 0,-1.884 3.347,0 0,-0.478 -3.347,0 0,-1.701 3.473,0 0,-0.478 -3.993,0 0,5.019 0,0 z M 60.007,7.01 C 59.914,7.507 59.707,7.891 59.389,8.163 59.07,8.435 58.623,8.57 58.046,8.57 57.676,8.57 57.356,8.512 57.087,8.397 56.816,8.283 56.598,8.125 56.43,7.923 56.261,7.721 56.137,7.492 56.057,7.235 55.978,6.977 55.938,6.703 55.938,6.412 c 0,-0.708 0.189,-1.244 0.569,-1.61 0.38,-0.365 0.894,-0.548 1.539,-0.548 0.234,0 0.458,0.026 0.672,0.078 0.213,0.051 0.406,0.131 0.579,0.238 0.174,0.108 0.318,0.249 0.436,0.422 0.118,0.173 0.195,0.375 0.232,0.604 l 0.52,0 C 60.448,5.277 60.354,5.001 60.204,4.766 60.056,4.532 59.864,4.342 59.636,4.197 59.406,4.051 59.156,3.945 58.884,3.877 58.613,3.81 58.333,3.775 58.047,3.775 c -0.464,0 -0.868,0.079 -1.212,0.236 -0.346,0.157 -0.625,0.366 -0.84,0.629 -0.217,0.263 -0.373,0.547 -0.472,0.854 -0.099,0.307 -0.147,0.613 -0.147,0.917 0,0.398 0.062,0.76 0.187,1.086 0.124,0.325 0.304,0.604 0.538,0.836 0.234,0.232 0.516,0.408 0.847,0.531 0.33,0.121 0.696,0.182 1.1,0.182 0.352,0 0.675,-0.053 0.97,-0.158 0.295,-0.105 0.551,-0.25 0.767,-0.436 C 60.001,8.266 60.171,8.05 60.298,7.802 60.425,7.554 60.5,7.291 60.527,7.01 l -0.52,0 0,0 z m 2.763,1.912 0.52,0 0,-4.541 1.969,0 0,-0.478 -4.457,0 0,0.478 1.969,0 0,4.541 z"
       inkscape:connector-curvature="0"
       style="clip-rule:evenodd;fill:#ffffff;fill-rule:evenodd;stroke-width:0.08221468" /><path
       id="path4517"
       d="m 6.412,0 c 3.542,0 6.412,2.871 6.412,6.413 0,2.735 -1.712,5.069 -4.123,5.991 L 8.14,11.286 3.666,2.365 c -1.294,0.88 -2.145,2.364 -2.145,4.048 0,2.306 1.597,4.24 3.744,4.755 L 4.056,8.757 4.483,7.468 3.318,5.146 3.61,4.264 5.131,7.297 7.247,11.514 7.825,12.667 C 7.37,12.77 6.897,12.823 6.411,12.823 2.871,12.824 0,9.954 0,6.413 0,3.666 1.727,1.323 4.154,0.41 l 0.561,1.119 4.471,8.913 C 10.465,9.56 11.303,8.085 11.303,6.413 11.303,4.107 9.707,2.174 7.56,1.657 L 8.77,4.069 8.343,5.357 9.521,7.706 9.229,8.588 7.707,5.554 5.578,1.31 4.999,0.157 C 5.454,0.054 5.927,0 6.412,0 Z"
       inkscape:connector-curvature="0"
       style="clip-rule:evenodd;fill:#fec40e;fill-rule:evenodd;stroke-width:0.08221468" /></g></svg>