<?xml version="1.0" standalone="no"?>
<!DOCTYPE svg PUBLIC "-//W3C//DTD SVG 20010904//EN"
 "http://www.w3.org/TR/2001/REC-SVG-20010904/DTD/svg10.dtd">
<svg version="1.0" xmlns="http://www.w3.org/2000/svg"
 width="342.000000pt" height="342.000000pt" viewBox="0 0 342.000000 342.000000"
 preserveAspectRatio="xMidYMid meet">
<metadata>
Created by potrace 1.11, written by Peter Selinger 2001-2013
</metadata>
<g transform="translate(0.000000,342.000000) scale(0.100000,-0.100000)"
fill="#000000" stroke="none">
<path d="M1588 3405 c-2 -1 -37 -6 -78 -9 -88 -9 -170 -25 -170 -34 0 -4 47
-99 104 -212 57 -113 306 -611 555 -1107 249 -497 456 -903 461 -903 6 0 10 6
10 14 0 16 47 164 59 186 6 11 -40 112 -149 332 l-158 316 57 169 57 168 -158
319 c-88 175 -158 320 -156 321 15 15 334 -121 379 -161 8 -8 19 -14 23 -14 4
0 12 -5 19 -10 7 -6 37 -29 67 -52 134 -103 282 -283 362 -442 50 -100 106
-274 125 -391 2 -16 6 -93 7 -170 5 -261 -61 -497 -199 -715 -43 -67 -130
-176 -176 -220 -85 -82 -177 -156 -184 -148 -1 1 -302 599 -668 1328 -548
1092 -669 1324 -684 1322 -10 -2 -50 -19 -89 -38 -40 -19 -77 -34 -83 -34 -6
0 -11 -3 -11 -7 0 -5 -26 -21 -58 -38 -87 -46 -245 -167 -341 -263 -139 -139
-238 -275 -324 -448 -46 -92 -131 -323 -122 -332 3 -3 0 -10 -5 -17 -5 -6 -12
-29 -16 -50 -3 -20 -8 -47 -10 -59 -4 -20 -9 -61 -19 -136 -5 -44 -5 -270 0
-330 21 -230 110 -499 233 -705 146 -244 376 -471 612 -604 55 -31 197 -99
220 -106 14 -4 39 -13 55 -20 84 -38 260 -77 405 -91 119 -12 414 -5 440 11 3
2 23 6 45 9 22 4 43 10 48 15 4 4 -126 273 -289 597 -163 324 -402 800 -531
1059 -253 508 -272 546 -283 558 -3 4 -23 -44 -44 -107 l-37 -115 148 -293
c81 -161 150 -301 153 -312 3 -10 -20 -93 -50 -185 l-56 -166 158 -315 c87
-173 158 -318 158 -321 0 -4 -46 9 -102 28 -410 138 -729 475 -841 888 -41
151 -55 363 -34 519 17 122 69 293 119 389 12 23 22 44 23 47 1 10 115 180
142 212 50 59 179 182 226 216 l46 33 12 -23 c20 -36 1120 -2228 1225 -2441
114 -228 91 -214 233 -143 141 71 194 104 321 201 181 139 370 377 472 593 50
105 112 279 123 342 3 19 10 51 15 70 5 19 13 62 17 95 10 74 11 395 1 450 -4
22 -10 58 -13 80 -16 106 -72 287 -121 393 -13 29 -24 55 -24 57 0 8 -102 178
-138 230 -266 385 -711 652 -1187 711 -11 1 -20 3 -20 4 0 3 -304 8 -307 5z"/>
</g>
</svg>
