<svg width="106px" height="137px" viewBox="0 0 106 137" version="1.1" xmlns="http://www.w3.org/2000/svg" xmlns:xlink="http://www.w3.org/1999/xlink">
  <path fill="#FB651E" d="M44.374,82.746 L0.433,0.432 L20.514,0.432 L46.362,52.524 C46.76,53.452 47.224,54.413 47.754,55.407 C48.284,56.401 48.748,57.429 49.145,58.489 C49.411,58.887 49.609,59.251 49.742,59.583 C49.875,59.913 50.007,60.213 50.14,60.477 C50.778555,61.7495787 51.3755374,63.0425961 51.93,64.354 C52.46,65.614 52.923,66.774 53.32,67.834 C54.381,65.58 55.541,63.161 56.8,60.577 C58.06,57.992 59.352,55.307 60.677,52.524 L86.923,0.432 L105.613,0.432 L61.273,83.74 L61.273,136.827 L44.373,136.827 L44.373,82.746 L44.374,82.746 Z" id="Shape"></path>
</svg>
