<svg class="Keyboard-svg" viewBox="0 0 609 240" version="1.1" xmlns="http://www.w3.org/2000/svg" xmlns:xlink="http://www.w3.org/1999/xlink">
  <g stroke="none" stroke-width="1" fill="#FFFFFF" fill-rule="evenodd">
    <rect class="Key" id="Key--q" x="52" y="70" width="36" height="37" rx="6"></rect>
    <rect class="Key" id="Key--w" x="95" y="70" width="36" height="37" rx="6"></rect>
    <rect class="Key" id="Key--e" x="138" y="70" width="36" height="37" rx="6"></rect>
    <rect class="Key" id="Key--r" x="182" y="70" width="36" height="37" rx="6"></rect>
    <rect class="Key" id="Key--t" x="225" y="70" width="36" height="37" rx="6"></rect>
    <rect class="Key" id="Key--y" x="269" y="70" width="36" height="37" rx="6"></rect>
    <rect class="Key" id="Key--u" x="312" y="70" width="36" height="37" rx="6"></rect>
    <rect class="Key" id="Key--i" x="356" y="70" width="36" height="37" rx="6"></rect>
    <rect class="Key" id="Key--o" x="399" y="70" width="36" height="37" rx="6"></rect>
    <rect class="Key" id="Key--p" x="442" y="70" width="36" height="37" rx="6"></rect>
    <rect class="Key" id="Key--squareBracketLeft" x="486" y="70" width="36" height="37" rx="6"></rect>
    <rect class="Key" id="Key--squareBracketRight" x="529" y="70" width="36" height="37" rx="6"></rect>
    <rect class="Key" id="Key--backslash" x="573" y="70" width="36" height="37" rx="6"></rect>
    <rect class="Key" id="Key--tilde" x="1" y="25" width="36" height="37" rx="6"></rect>
    <rect class="Key" id="Key--1" x="44" y="25" width="36" height="37" rx="6"></rect>
    <rect class="Key" id="Key--2" x="88" y="25" width="36" height="37" rx="6"></rect>
    <rect class="Key" id="Key--3" x="131" y="25" width="36" height="37" rx="6"></rect>
    <rect class="Key" id="Key--4" x="175" y="25" width="36" height="37" rx="6"></rect>
    <rect class="Key" id="Key--5" x="218" y="25" width="36" height="37" rx="6"></rect>
    <rect class="Key" id="Key--6" x="262" y="25" width="36" height="37" rx="6"></rect>
    <rect class="Key" id="Key--7" x="305" y="25" width="36" height="37" rx="6"></rect>
    <rect class="Key" id="Key--8" x="348" y="25" width="36" height="37" rx="6"></rect>
    <rect class="Key" id="Key--9" x="392" y="25" width="36" height="37" rx="6"></rect>
    <rect class="Key" id="Key--0" x="435" y="25" width="36" height="37" rx="6"></rect>
    <rect class="Key" id="Key--minus" x="479" y="25" width="36" height="37" rx="6"></rect>
    <rect class="Key" id="Key--equals" x="522" y="25" width="36" height="37" rx="6"></rect>
    <rect class="Key" id="Key--esc" x="1" y="0" width="37" height="18" rx="6"></rect>
    <rect class="Key" id="Key--f1" x="45" y="0" width="37" height="18" rx="6"></rect>
    <rect class="Key" id="Key--f2" x="89" y="0" width="37" height="18" rx="6"></rect>
    <rect class="Key" id="Key--f3" x="133" y="0" width="37" height="18" rx="6"></rect>
    <rect class="Key" id="Key--f4" x="176" y="0" width="37" height="18" rx="6"></rect>
    <rect class="Key" id="Key--f5" x="221" y="0" width="37" height="18" rx="6"></rect>
    <rect class="Key" id="Key--f6" x="264" y="0" width="37" height="18" rx="6"></rect>
    <rect class="Key" id="Key--f7" x="308" y="0" width="37" height="18" rx="6"></rect>
    <rect class="Key" id="Key--f8" x="352" y="0" width="37" height="18" rx="6"></rect>
    <rect class="Key" id="Key--f9" x="396" y="0" width="37" height="18" rx="6"></rect>
    <rect class="Key" id="Key--f10" x="440" y="0" width="37" height="18" rx="6"></rect>
    <rect class="Key" id="Key--f11" x="484" y="0" width="37" height="18" rx="6"></rect>
    <rect class="Key" id="Key--f12" x="528" y="0" width="37" height="18" rx="6"></rect>
    <rect class="Key" id="Key--power" x="572" y="0" width="37" height="18" rx="6"></rect>
    <rect class="Key" id="Key--delete" x="566" y="25" width="43" height="37" rx="6"></rect>
    <rect class="Key" id="Key--a" x="65" y="114" width="36" height="37" rx="6"></rect>
    <rect class="Key" id="Key--s" x="109" y="114" width="36" height="37" rx="6"></rect>
    <rect class="Key" id="Key--d" x="152" y="114" width="36" height="37" rx="6"></rect>
    <rect class="Key" id="Key--f" x="195" y="114" width="36" height="37" rx="6"></rect>
    <rect class="Key" id="Key--g" x="239" y="114" width="36" height="37" rx="6"></rect>
    <rect class="Key" id="Key--h" x="282" y="114" width="36" height="37" rx="6"></rect>
    <rect class="Key" id="Key--j" x="326" y="114" width="36" height="37" rx="6"></rect>
    <rect class="Key" id="Key--k" x="369" y="114" width="36" height="37" rx="6"></rect>
    <rect class="Key" id="Key--l" x="413" y="114" width="36" height="37" rx="6"></rect>
    <rect class="Key" id="Key--semicolon" x="456" y="114" width="36" height="37" rx="6"></rect>
    <rect class="Key" id="Key--apostrophe" x="500" y="114" width="36" height="37" rx="6"></rect>
    <rect class="Key" id="Key--z" x="88" y="158" width="36" height="37" rx="6"></rect>
    <rect class="Key" id="Key--x" x="131" y="158" width="36" height="37" rx="6"></rect>
    <rect class="Key" id="Key--c" x="175" y="158" width="36" height="37" rx="6"></rect>
    <rect class="Key" id="Key--v" x="218" y="158" width="36" height="37" rx="6"></rect>
    <rect class="Key" id="Key--b" x="262" y="158" width="36" height="37" rx="6"></rect>
    <rect class="Key" id="Key--n" x="305" y="158" width="36" height="37" rx="6"></rect>
    <rect class="Key" id="Key--m" x="348" y="158" width="36" height="37" rx="6"></rect>
    <rect class="Key" id="Key--comma" x="392" y="158" width="36" height="37" rx="6"></rect>
    <rect class="Key" id="Key--dot" x="435" y="158" width="36" height="37" rx="6"></rect>
    <rect class="Key" id="Key--slash" x="479" y="158" width="36" height="37" rx="6"></rect>
    <rect class="Key" id="Key--fn" x="0" y="203" width="33" height="37" rx="6"></rect>
    <rect class="Key" id="Key--controlLeft" x="41" y="203" width="33" height="37" rx="6"></rect>
    <rect class="Key" id="Key--altLeft" x="81" y="203" width="33" height="37" rx="6"></rect>x
    <rect class="Key" id="Key--altRight" x="444" y="203" width="33" height="37" rx="6"></rect>
    <rect class="Key" id="Key--arrowLeft" x="485" y="221" width="37" height="19" rx="6"></rect>

    <g class="Key" id="Key--arrowUp" >
      <rect x="529" y="203" width="37" height="19" rx="6"></rect>
      <rect x="529" y="213" width="37" height="9"></rect>
    </g>
    <g class="Key" id="Key--arrowDown" >
      <rect x="529" y="222" width="37" height="19" rx="6"></rect>
      <rect x="529" y="222" width="37" height="9"></rect>
    </g>

    <rect class="Key" id="Key--arrowRight" x="573" y="221" width="36" height="19" rx="6"></rect>
    <rect class="Key" id="Key--enter" x="543" y="114" width="66" height="37" rx="6"></rect>
    <rect class="Key" id="Key--cmdLeft" x="122" y="203" width="45" height="37" rx="6"></rect>
    <rect class="Key" id="Key--cmdRight" x="392" y="203" width="45" height="37" rx="6"></rect>
    <rect class="Key" id="Key--shiftRight" x="522" y="158" width="87" height="37" rx="6"></rect>
    <rect class="Key" id="Key--tab" x="0" y="70" width="44" height="37" rx="6"></rect>
    <rect class="Key" id="Key--capsLock" x="0" y="114" width="57" height="37" rx="6"></rect>
    <rect class="Key" id="Key--shiftLeft" x="0" y="158" width="80" height="37" rx="6"></rect>
    <rect class="Key" id="Key--space" x="175" y="203" width="210" height="37" rx="6"></rect>
  </g>
</svg>
