<svg class="Logo-svg" width="60px" height="60px" viewBox="0 0 60 60" version="1.1" xmlns="http://www.w3.org/2000/svg" xmlns:xlink="http://www.w3.org/1999/xlink">
  <g id="Desktop-HD-Copy-2" transform="translate(-330.000000, -17.000000)">
    <rect fill="#E03646" x="330" y="17" width="60" height="60" stroke="none"></rect>
    <path
      d="M360.28913,38 L357.686957,38 C355.126087,38 352.647826,39.3768116 351.684058,40.7536232 C350.72029,39.3768116 348.242029,38 345.681159,38 L341,38 L341,57 L345.681159,57 L345.681159,42.6811594 C347.471014,42.7637681 349.536232,44.0304348 349.536232,46.673913 L349.536232,57 L353.831884,57 L353.831884,46.673913 C353.831884,44.0304348 355.897101,42.7637681 357.686957,42.6811594 L357.686957,57 L360.28913,57 L362.891304,57 L362.891304,42.6811594 C364.681159,42.7637681 366.746377,44.0304348 366.746377,46.673913 L366.746377,57 L371.042029,57 L371.042029,46.673913 C371.042029,44.0304348 373.107246,42.7637681 374.897101,42.6811594 L374.897101,57 L379.578261,57 L379.578261,38 L374.897101,38 C372.336232,38 369.857971,39.3768116 368.894203,40.7536232 C367.930435,39.3768116 365.452174,38 362.891304,38 L360.28913,38 Z"
      fill="#161617">
    </path>
  </g>
</svg>
