<?xml version="1.0" encoding="utf-8"?>
<!-- Generator: Adobe Illustrator 16.0.0, SVG Export Plug-In . SVG Version: 6.00 Build 0)  -->
<!DOCTYPE svg PUBLIC "-//W3C//DTD SVG 1.1//EN" "http://www.w3.org/Graphics/SVG/1.1/DTD/svg11.dtd">
<svg version="1.1" id="Layer_1" xmlns="http://www.w3.org/2000/svg" xmlns:xlink="http://www.w3.org/1999/xlink" x="0px" y="0px"
	 width="672.666px" height="550.667px" viewBox="-3.167 -2.584 672.666 550.667"
	 enable-background="new -3.167 -2.584 672.666 550.667" xml:space="preserve">
<g id="Ñëîé_2">
	
		<radialGradient id="SVGID_1_" cx="324.5" cy="248.25" r="690.79" gradientTransform="matrix(1 0 0 -1 8.5 520.5)" gradientUnits="userSpaceOnUse">
		<stop  offset="0" style="stop-color:#FFFFFF"/>
		<stop  offset="0.2296" style="stop-color:#FDFDFD"/>
		<stop  offset="0.5153" style="stop-color:#F9F9F9"/>
		<stop  offset="0.7704" style="stop-color:#F4F4F4"/>
		<stop  offset="1" style="stop-color:#EBEBEB"/>
	</radialGradient>
	<rect x="-167" y="-227.75" display="none" fill="url(#SVGID_1_)" width="1000" height="1000"/>
</g>
<g id="Ñëîé_3">
	<g display="none">
		<g display="inline">
			<defs>
				<rect id="SVGID_2_" x="-167" y="-227.75" width="1000" height="1000"/>
			</defs>
			<use xlink:href="#SVGID_2_"  overflow="visible" fill="#EBEBEB"/>
			<clipPath id="SVGID_3_">
				<use xlink:href="#SVGID_2_"  overflow="visible"/>
			</clipPath>
			<g clip-path="url(#SVGID_3_)">
				<path fill="#EBEBEB" stroke="#EBEBEB" stroke-miterlimit="10" d="M935.221,625.558c0,21.693-237.756,39.271-531.028,39.271
					c-293.294,0-531.042-17.576-531.042-39.271c0-21.688,237.747-39.266,531.042-39.266
					C697.465,586.292,935.221,603.868,935.221,625.558z"/>
				<path opacity="0.7" fill="#EBEBEB" stroke="#EBEBEB" stroke-miterlimit="10" enable-background="new    " d="M348.965,608.639
					c0,9.502-102.759,17.228-229.476,17.228c-126.742,0-229.477-7.726-229.477-17.228c0-9.516,102.734-17.225,229.477-17.225
					C246.206,591.414,348.965,599.123,348.965,608.639z"/>
				<path opacity="0.8" fill="#EBEBEB" stroke="#EBEBEB" stroke-miterlimit="10" enable-background="new    " d="M759.676,621.302
					c0,12.418-79.285,22.511-177.061,22.511c-97.793,0-177.062-10.093-177.062-22.511c0-12.432,79.269-22.504,177.062-22.504
					C680.391,598.798,759.676,608.87,759.676,621.302z"/>
				<path fill="#EBEBEB" stroke="#EBEBEB" stroke-miterlimit="10" d="M159.021,629.931c0,8.067-55.382,14.624-123.68,14.624
					c-68.31,0-123.68-6.557-123.68-14.624c0-8.075,55.37-14.618,123.68-14.618C103.638,615.312,159.021,621.854,159.021,629.931z"/>
				<path opacity="0.8" fill="#EBEBEB" stroke="#EBEBEB" stroke-miterlimit="10" enable-background="new    " d="M545.956,621.304
					c0,5.218-19.246,9.455-42.98,9.455c-23.737,0-42.979-4.237-42.979-9.455c0-5.223,19.241-9.455,42.979-9.455
					C526.71,611.849,545.956,616.081,545.956,621.304z"/>
				<path opacity="0.8" fill="#EBEBEB" stroke="#EBEBEB" stroke-miterlimit="10" enable-background="new    " d="M368.938,631.305
					c0,5.217-19.245,9.455-42.979,9.455c-23.738,0-42.979-4.237-42.979-9.455c0-5.223,19.24-9.455,42.979-9.455
					C349.692,621.85,368.938,626.082,368.938,631.305z"/>
				<path opacity="0.8" fill="#EBEBEB" stroke="#EBEBEB" stroke-miterlimit="10" enable-background="new    " d="M198.956,611.192
					c0,5.688-22.387,10.306-50,10.306c-27.615,0-50-4.617-50-10.306c0-5.692,22.385-10.303,50-10.303
					C176.568,600.891,198.956,605.5,198.956,611.192z"/>
			</g>
			<use xlink:href="#SVGID_2_"  overflow="visible" fill="none" stroke="#EBEBEB" stroke-miterlimit="10"/>
		</g>
	</g>
	<g display="none">
		<path display="inline" fill="#EBEBEB" stroke="#EBEBEB" stroke-miterlimit="10" d="M564.451,123.753
			c-0.086,0-0.174-0.022-0.25-0.066c-0.154-0.09-0.25-0.255-0.25-0.434V5.28c0-0.179,0.094-0.344,0.25-0.433
			c0.154-0.089,0.346-0.089,0.5,0l102.166,58.986c0.156,0.089,0.25,0.254,0.25,0.433c0,0.179-0.094,0.344-0.25,0.433
			l-102.166,58.987C564.623,123.73,564.537,123.753,564.451,123.753z M564.951,6.146v116.241l100.666-58.121L564.951,6.146z"/>
		<path display="inline" fill="#EBEBEB" stroke="#EBEBEB" stroke-miterlimit="10" d="M505.904,278.014
			c-0.088,0-0.174-0.022-0.25-0.068c-0.156-0.088-0.25-0.254-0.25-0.432V159.539c0-0.179,0.094-0.344,0.25-0.434
			c0.153-0.088,0.346-0.088,0.5,0l102.168,58.986c0.153,0.09,0.25,0.255,0.25,0.434c0,0.179-0.097,0.344-0.25,0.434l-102.168,58.986
			C506.076,277.99,505.99,278.014,505.904,278.014z M506.404,160.405v116.241l100.668-58.121L506.404,160.405z"/>
		<path display="inline" fill="#EBEBEB" stroke="#EBEBEB" stroke-miterlimit="10" d="M522.565,459.724
			c0.087,0,0.174-0.021,0.25-0.066c0.154-0.089,0.25-0.254,0.25-0.434l0.001-117.973c0-0.179-0.096-0.344-0.25-0.435
			c-0.154-0.088-0.347-0.088-0.5,0l-102.17,58.986c-0.153,0.09-0.25,0.256-0.25,0.434c0,0.18,0.097,0.345,0.25,0.435l102.168,58.985
			C522.394,459.701,522.479,459.724,522.565,459.724z M522.065,342.117l0.001,116.24l-100.67-58.121L522.065,342.117z"/>
		<path display="inline" fill="#EBEBEB" stroke="#EBEBEB" stroke-miterlimit="10" d="M158.053,75.798
			c0.086,0,0.172-0.021,0.25-0.066l102.168-58.986c0.154-0.09,0.25-0.254,0.25-0.434c0-0.178-0.096-0.344-0.25-0.434L158.303-43.108
			c-0.154-0.09-0.346-0.09-0.5,0c-0.154,0.09-0.25,0.254-0.25,0.434V75.298c0,0.18,0.096,0.344,0.25,0.434
			C157.879,75.777,157.967,75.798,158.053,75.798z M259.221,16.312L158.553,74.433V-41.809L259.221,16.312z"/>
		<path display="inline" fill="#EBEBEB" stroke="#EBEBEB" stroke-miterlimit="10" d="M605.752,186.16
			c-0.088,0-0.174-0.022-0.25-0.066c-0.156-0.09-0.25-0.255-0.25-0.434V67.687c0-0.179,0.094-0.344,0.25-0.433
			c0.154-0.089,0.346-0.089,0.5,0l102.166,58.986c0.156,0.089,0.25,0.254,0.25,0.433c0,0.179-0.094,0.344-0.25,0.433
			l-102.166,58.988C605.924,186.137,605.838,186.16,605.752,186.16z M606.252,68.553v116.24l100.666-58.121L606.252,68.553z"/>
		<g display="inline">
			<path fill="#EBEBEB" stroke="#EBEBEB" stroke-miterlimit="10" d="M348.22,517.661c0.088,0,0.174-0.021,0.25-0.066l102.168-58.985
				c0.155-0.09,0.25-0.255,0.25-0.435c0-0.179-0.095-0.344-0.25-0.434L348.47,398.755c-0.153-0.09-0.346-0.09-0.5,0
				c-0.153,0.089-0.25,0.254-0.25,0.433v117.975c0,0.18,0.097,0.344,0.25,0.434C348.048,517.64,348.134,517.661,348.22,517.661z
				 M449.388,458.175L348.72,516.296V400.055L449.388,458.175z"/>
			<path fill="#EBEBEB" stroke="#EBEBEB" stroke-miterlimit="10" d="M450.388,458.675c0.087,0,0.175-0.021,0.25-0.065
				c0.155-0.091,0.25-0.256,0.25-0.435V340.202c0-0.179-0.095-0.345-0.25-0.435c-0.153-0.088-0.346-0.088-0.5,0L347.97,398.755
				c-0.153,0.089-0.25,0.254-0.25,0.433c0,0.18,0.097,0.345,0.25,0.434l102.168,58.988
				C450.216,458.652,450.302,458.675,450.388,458.675z M449.888,341.068v116.239l-100.668-58.12L449.888,341.068z"/>
			<path fill="#EBEBEB" stroke="#EBEBEB" stroke-miterlimit="10" d="M348.22,399.688c0.088,0,0.174-0.021,0.25-0.066l102.168-58.984
				c0.154-0.09,0.25-0.255,0.25-0.434c0-0.18-0.096-0.344-0.25-0.434L348.47,280.781c-0.153-0.092-0.346-0.092-0.5,0
				c-0.153,0.088-0.25,0.254-0.25,0.432v117.975c0,0.18,0.097,0.345,0.25,0.434C348.048,399.665,348.134,399.688,348.22,399.688z
				 M449.388,340.202L348.72,398.32V282.079L449.388,340.202z"/>
		</g>
		<path display="inline" fill="#EBEBEB" stroke="#EBEBEB" stroke-miterlimit="10" d="M32.04,458.175
			c-0.086,0-0.172-0.022-0.25-0.067L-70.377,399.12c-0.155-0.088-0.25-0.254-0.25-0.433c0-0.18,0.095-0.344,0.25-0.434L31.79,339.27
			c0.154-0.09,0.346-0.09,0.5,0s0.25,0.254,0.25,0.434v117.973c0,0.178-0.095,0.344-0.25,0.433
			C32.214,458.151,32.127,458.175,32.04,458.175z M-69.127,398.688l100.667,58.12V340.568L-69.127,398.688z"/>
		<path display="inline" fill="#EBEBEB" stroke="#EBEBEB" stroke-miterlimit="10" d="M330.678,129.716
			c-0.088,0-0.174-0.023-0.25-0.068L228.26,70.662c-0.154-0.088-0.25-0.254-0.25-0.432c0-0.18,0.096-0.344,0.25-0.434L330.428,10.81
			c0.154-0.09,0.347-0.09,0.5,0c0.154,0.088,0.25,0.254,0.25,0.432v117.975c0,0.178-0.096,0.344-0.25,0.432
			C330.85,129.693,330.764,129.716,330.678,129.716z M229.51,70.23l100.668,58.119V12.109L229.51,70.23z"/>
		<path display="inline" fill="#EBEBEB" stroke="#EBEBEB" stroke-miterlimit="10" d="M228.51,70.73c-0.086,0-0.174-0.023-0.25-0.068
			c-0.154-0.088-0.25-0.254-0.25-0.432V-47.743c0-0.18,0.096-0.344,0.25-0.434c0.154-0.09,0.346-0.09,0.5,0L330.928,10.81
			c0.154,0.088,0.25,0.254,0.25,0.432c0,0.18-0.096,0.344-0.25,0.434L228.76,70.662C228.682,70.707,228.596,70.73,228.51,70.73z
			 M229.01-46.877v116.24l100.668-58.121L229.01-46.877z"/>
		<path display="inline" fill="#EBEBEB" stroke="#EBEBEB" stroke-miterlimit="10" d="M330.678,11.742
			c-0.088,0-0.174-0.021-0.25-0.066L228.26-47.311c-0.154-0.088-0.25-0.254-0.25-0.432c0-0.18,0.096-0.344,0.25-0.434
			l102.168-58.988c0.154-0.088,0.347-0.088,0.5,0c0.154,0.09,0.25,0.255,0.25,0.434V11.242c0,0.18-0.096,0.344-0.25,0.434
			C330.85,11.72,330.764,11.742,330.678,11.742z M229.51-47.743l100.668,58.119v-116.241L229.51-47.743z"/>
		<path display="inline" fill="#EBEBEB" stroke="#EBEBEB" stroke-miterlimit="10" d="M-25.047,38.845
			c-0.086,0-0.172-0.022-0.25-0.068L-102.491-5.79c-0.154-0.09-0.25-0.254-0.25-0.434c0-0.178,0.096-0.344,0.25-0.432l77.193-44.568
			c0.154-0.09,0.346-0.09,0.5,0c0.154,0.09,0.25,0.254,0.25,0.434v89.135c0,0.178-0.096,0.344-0.25,0.432
			C-24.874,38.822-24.961,38.845-25.047,38.845z M-101.241-6.223l75.693,43.701v-87.402L-101.241-6.223z"/>
		<path display="inline" fill="#EBEBEB" stroke="#EBEBEB" stroke-miterlimit="10" d="M571.985-14.245
			c-0.086,0-0.173-0.023-0.25-0.068L494.542-58.88c-0.154-0.09-0.25-0.254-0.25-0.434c0-0.178,0.096-0.344,0.25-0.432l77.193-44.568
			c0.153-0.09,0.346-0.09,0.5,0c0.153,0.09,0.25,0.254,0.25,0.434v89.135c0,0.178-0.097,0.344-0.25,0.432
			C572.159-14.269,572.071-14.245,571.985-14.245z M495.792-59.313l75.693,43.701v-87.402L495.792-59.313z"/>
		<path display="inline" fill="#EBEBEB" stroke="#EBEBEB" stroke-miterlimit="10" d="M399.805,549.68
			c0.086,0,0.172-0.022,0.25-0.067l77.193-44.566c0.154-0.09,0.25-0.254,0.25-0.434c0-0.179-0.096-0.345-0.25-0.433l-77.193-44.567
			c-0.153-0.09-0.346-0.09-0.5,0c-0.153,0.09-0.25,0.254-0.25,0.434v89.135c0,0.179,0.097,0.345,0.25,0.433
			C399.631,549.656,399.719,549.68,399.805,549.68z M475.998,504.611l-75.693,43.701V460.91L475.998,504.611z"/>
		<path display="inline" fill="#EBEBEB" stroke="#EBEBEB" stroke-miterlimit="10" d="M585.471,363.029
			c-0.086,0-0.172-0.021-0.25-0.065c-0.153-0.09-0.25-0.254-0.25-0.435v-89.135c0-0.181,0.097-0.345,0.25-0.435
			c0.154-0.089,0.347-0.089,0.5,0l77.193,44.569c0.154,0.091,0.25,0.255,0.25,0.435c0,0.179-0.096,0.345-0.25,0.433l-77.193,44.567
			C585.645,363.009,585.557,363.029,585.471,363.029z M585.971,274.26v87.405l75.693-43.701L585.971,274.26z"/>
		<path display="inline" fill="#EBEBEB" stroke="#EBEBEB" stroke-miterlimit="10" d="M585.471,363.029
			c-0.086,0-0.172-0.021-0.25-0.065l-77.192-44.565c-0.154-0.09-0.25-0.256-0.25-0.435c0-0.18,0.096-0.344,0.25-0.435l77.192-44.569
			c0.154-0.089,0.347-0.089,0.5,0c0.154,0.09,0.25,0.254,0.25,0.435v89.135c0,0.181-0.096,0.345-0.25,0.435
			C585.645,363.009,585.557,363.029,585.471,363.029z M509.277,317.964l75.692,43.701V274.26L509.277,317.964z"/>
		<path display="inline" fill="#EBEBEB" stroke="#EBEBEB" stroke-miterlimit="10" d="M611.658,414.335
			c-0.086,0-0.174-0.022-0.25-0.065c-0.154-0.09-0.25-0.256-0.25-0.435v-89.136c0-0.18,0.096-0.344,0.25-0.434s0.346-0.09,0.5,0
			l77.195,44.566c0.153,0.09,0.25,0.256,0.25,0.434c0,0.18-0.097,0.344-0.25,0.435l-77.195,44.567
			C611.83,414.312,611.744,414.335,611.658,414.335z M612.158,325.564v87.402l75.695-43.701L612.158,325.564z"/>
		<path display="inline" fill="#EBEBEB" stroke="#EBEBEB" stroke-miterlimit="10" d="M-13.042,83.914
			c-0.086,0-0.174-0.023-0.25-0.066c-0.154-0.09-0.25-0.256-0.25-0.434V-5.723c0-0.178,0.096-0.344,0.25-0.432
			c0.154-0.09,0.346-0.09,0.5,0l77.195,44.566c0.154,0.09,0.25,0.256,0.25,0.434c0,0.18-0.096,0.344-0.25,0.434l-77.195,44.568
			C-12.87,83.89-12.956,83.914-13.042,83.914z M-12.542-4.856v87.402l75.695-43.701L-12.542-4.856z"/>
	</g>
	<path fill="#EBEBEB" stroke="#EBEBEB" stroke-miterlimit="10" d="M661.931,13.7c-2.242,0-4.062,1.817-4.067,4.057L480.164,46.902
		c-0.406-0.886-1.296-1.506-2.332-1.506c-0.826,0-1.553,0.398-2.023,1.005L376.877,5.465c0.075-0.315,0.125-0.639,0.125-0.977
		c0-2.347-1.898-4.246-4.244-4.246s-4.245,1.899-4.245,4.246c0,1.382,0.677,2.604,1.705,3.379l-48.879,92.791
		c-0.181-0.041-0.367-0.065-0.56-0.065c-0.954,0-1.779,0.529-2.223,1.304L135.9,54.829c0.004-0.072,0.021-0.139,0.021-0.211
		c0-1.948-1.575-3.531-3.531-3.531c-1.948,0-3.53,1.583-3.53,3.531c0,0.793,0.27,1.516,0.709,2.105l-90.332,99.322
		c-0.498-0.268-1.059-0.434-1.665-0.434c-1.948,0-3.53,1.583-3.53,3.531c0,1.15,0.556,2.159,1.403,2.803L5.84,233.715
		c-1.34-0.337-2.811-0.101-3.995,0.808c-2.059,1.577-2.458,4.525-0.881,6.582c1.504,1.962,4.251,2.39,6.29,1.062l89.511,101.59
		l-62.347,101.39c-1.218-0.434-2.625-0.105-3.513,0.938c-1.148,1.353-0.989,3.381,0.363,4.528c1.091,0.927,2.621,0.98,3.776,0.264
		l53.088,54.777c0.128,0.132,0.303,0.205,0.482,0.205c0.046,0,0.092-0.006,0.138-0.016l107.227-22.441
		c0.524,1.232,1.747,2.099,3.176,2.099c0.248,0,0.488-0.028,0.721-0.078l22.804,53.246c-0.092,0.064-0.188,0.118-0.274,0.193
		c-1.339,1.161-1.489,3.189-0.328,4.527c1.162,1.341,3.197,1.486,4.536,0.323c1.156-1.001,1.412-2.646,0.717-3.939l85.054-72.854
		c0.586,0.461,1.316,0.746,2.121,0.746c1.678,0,3.082-1.194,3.396-2.78h27.55c0.31,1.586,1.702,2.781,3.382,2.781
		c1.906,0,3.463-1.541,3.463-3.447c0-1.008-0.438-1.903-1.124-2.535l81.477-133.456c0.229,0.064,0.465,0.111,0.714,0.111
		c1.417,0,2.568-1.152,2.568-2.568c0-0.07-0.016-0.138-0.021-0.207h0.003l0.019,0.207l0.061,0.67l110.818-9.838
		c0.234,0.873,0.793,1.66,1.633,2.16c1.702,1.014,3.908,0.454,4.921-1.248c0.512-0.858,0.622-1.843,0.391-2.738l84.805-61.207
		c0.595,0.435,1.32,0.7,2.115,0.7c1.982,0,3.591-1.609,3.591-3.589c0-1.988-1.607-3.596-3.591-3.596
		c-0.836,0-1.596,0.297-2.207,0.775l-89.322-60.714L660.257,21.47c0.513,0.232,1.075,0.369,1.674,0.369
		c2.245,0,4.069-1.824,4.069-4.069C666,15.524,664.176,13.7,661.931,13.7z M432.837,323.256c-0.504,0.104-0.952,0.358-1.302,0.712
		l-92.493-52.343c0.149-0.414,0.244-0.854,0.244-1.319c0-0.411-0.08-0.798-0.196-1.169l97.651-50.233
		c0.547,0.721,1.318,1.247,2.205,1.457L432.837,323.256z M345.451,463.544h-27.552c-0.315-1.589-1.72-2.78-3.396-2.78
		c-0.146,0-0.287,0.025-0.429,0.043l-85.35-254.39c0.566-0.287,1.055-0.679,1.454-1.151l101.527,63.552
		c-0.188,0.459-0.296,0.96-0.296,1.488c0,2.034,1.555,3.692,3.535,3.896l12.988,186.694
		C346.68,461.235,345.705,462.252,345.451,463.544z M198.821,478.631c-0.396,0.039-0.773,0.136-1.119,0.297l-99.564-135.64
		c-0.005-0.007-0.013-0.011-0.018-0.017c-0.008-0.01-0.011-0.021-0.02-0.031l-0.389-0.441c0.338-0.061,0.584-0.361,0.554-0.709
		L84.197,177.318c1.598-0.375,2.812-1.529,3.338-2.974l134.412,27.625c-0.023,0.412-0.013,0.829,0.078,1.252
		c0.389,1.816,1.783,3.146,3.471,3.566L198.821,478.631z M132.391,58.15c0.459,0,0.895-0.094,1.297-0.252l89.872,140.804
		c-0.61,0.527-1.078,1.193-1.351,1.95L87.801,173.027c0.025-0.417,0.016-0.839-0.076-1.268c-0.285-1.324-1.109-2.384-2.187-3.028
		l46.138-110.654C131.907,58.125,132.146,58.15,132.391,58.15z M319.566,105.414c0.234,0.127,0.486,0.224,0.759,0.273
		l14.019,160.828c-0.751,0.199-1.41,0.609-1.915,1.171l-101.53-63.555c0.389-0.876,0.525-1.874,0.31-2.881
		c-0.156-0.724-0.484-1.359-0.914-1.903L319.566,105.414z M372.84,8.724c0.184-0.004,0.36-0.028,0.537-0.055l64.67,204.424
		c-1.471,0.763-2.355,2.396-2.059,4.119c0.028,0.173,0.087,0.333,0.138,0.496L338.48,267.94c-0.483-0.637-1.151-1.114-1.93-1.365
		L372.84,8.724z M442.26,213.489c-0.279-0.22-0.584-0.406-0.914-0.543l36.599-162.422c1.273-0.056,2.301-1.04,2.431-2.294
		l177.722-29.15c0.104,0.304,0.234,0.594,0.403,0.861L442.26,213.489z M475.295,47.643c-0.013,0.107-0.032,0.212-0.032,0.323
		c0,0.982,0.561,1.827,1.372,2.259l-36.6,162.423c-0.232-0.011-0.47,0.004-0.709,0.036l-64.67-204.42
		c0.703-0.355,1.292-0.893,1.704-1.559L475.295,47.643z M371.407,8.491c0.034,0.011,0.068,0.021,0.104,0.032l-36.006,255.849
		l-13.842-158.805c0.98-0.362,1.686-1.298,1.686-2.403c0-0.741-0.319-1.404-0.822-1.875L371.407,8.491z M318.213,103.195
		c0.006,0.475,0.146,0.916,0.377,1.296l-89.268,93.93c-1.037-0.732-2.358-1.057-3.697-0.769c-0.332,0.071-0.646,0.179-0.942,0.313
		L134.82,57.175c0.312-0.297,0.564-0.65,0.751-1.044L318.213,103.195z M36.654,162.538c0.294,0.08,0.598,0.136,0.918,0.136
		c1.956,0,3.531-1.578,3.531-3.533c0-0.857-0.317-1.633-0.825-2.245l90-98.959L84.295,168.222c-0.686-0.176-1.415-0.218-2.153-0.06
		c-2.534,0.544-4.145,3.032-3.6,5.568c0.116,0.54,0.335,1.027,0.609,1.473L7.828,234.76c-0.231-0.208-0.479-0.39-0.741-0.545
		L36.654,162.538z M8.275,241.294c1.304-1.53,1.473-3.749,0.4-5.492l71.333-59.563c0.779,0.699,1.779,1.121,2.851,1.184
		L96.9,341.878L8.275,241.294z M97.646,344.887l98.974,134.835c-0.267,0.291-0.492,0.621-0.647,0.991L36.547,448.132
		c-0.01-0.838-0.344-1.66-0.989-2.276L97.646,344.887z M88.839,504.455l-52.832-54.513c0.107-0.159,0.197-0.323,0.272-0.494
		l159.428,32.58c0,0.009-0.002,0.017-0.002,0.024c0,0.013,0.003,0.021,0.003,0.032L88.839,504.455z M201.11,484.895
		c0.908-0.62,1.507-1.658,1.507-2.841c0-1.562-1.042-2.858-2.459-3.29l26.674-271.843c0.207-0.01,0.414-0.031,0.622-0.069
		l85.347,254.379c-1.039,0.594-1.746,1.699-1.746,2.988c0,0.614,0.173,1.184,0.455,1.684l-85.044,72.843
		c-0.734-0.569-1.667-0.768-2.551-0.602L201.11,484.895z M349.275,460.81l-12.988-186.691c0.837-0.205,1.56-0.681,2.091-1.326
		l92.502,52.347c-0.053,0.204-0.089,0.414-0.089,0.635c0,0.682,0.272,1.299,0.708,1.76l-81.476,133.456
		C349.784,460.9,349.534,460.843,349.275,460.81z M434.177,323.348l6.111-102.925c0.073-0.008,0.146-0.002,0.219-0.015
		c1.442-0.25,2.548-1.268,3.008-2.554l193.567,32.774c0,0.019-0.006,0.037-0.006,0.056c0,0.281,0.04,0.551,0.102,0.813L435.46,324.3
		C435.148,323.857,434.7,323.523,434.177,323.348z M552.114,312.59c-1.709-1.016-3.911-0.457-4.93,1.252
		c-0.268,0.449-0.418,0.934-0.475,1.424l-109.09,9.683l199.521-72.011l-83.975,60.606
		C552.892,313.169,552.538,312.843,552.114,312.59z M637.576,248.881c-0.082,0.14-0.164,0.278-0.227,0.429l-193.603-32.78
		c0-0.109-0.014-0.22-0.023-0.33l104.366-28.144L637.576,248.881z M547.795,186.745l-104.416,28.158
		c-0.066-0.144-0.133-0.288-0.216-0.421L658.396,21.834L547.795,186.745z"/>
	<g display="none">
		<path display="inline" fill="#EBEBEB" stroke="#EBEBEB" stroke-miterlimit="10" d="M212.201-32.516
			c-5.514,0-9.996-4.484-9.996-10.004c0-5.522,4.482-10.004,9.996-10.004c5.512,0,10.004,4.482,10.004,10.004
			C222.205-37,217.713-32.516,212.201-32.516z M212.201-51.419c-4.913,0-8.908,3.988-8.908,8.9c0,4.911,3.995,8.906,8.908,8.906
			c4.912,0,8.906-3.996,8.906-8.906C221.107-47.432,217.113-51.419,212.201-51.419z"/>
		<path display="inline" fill="#EBEBEB" stroke="#EBEBEB" stroke-miterlimit="10" d="M637.488,412.32
			c-6.66,0-12.074-5.415-12.074-12.084c0-6.67,5.414-12.084,12.074-12.084c6.658,0,12.084,5.414,12.084,12.084
			C649.572,406.904,644.146,412.32,637.488,412.32z M637.488,389.486c-5.935,0-10.761,4.816-10.761,10.75
			c0,5.933,4.826,10.759,10.761,10.759c5.934,0,10.758-4.826,10.758-10.759C648.246,394.305,643.422,389.486,637.488,389.486z"/>
		<path display="inline" fill="#EBEBEB" stroke="#EBEBEB" stroke-miterlimit="10" d="M7.706,501.034
			c-4.685,0-8.495-3.812-8.495-8.502c0-4.68,3.81-8.49,8.495-8.49c4.693,0,8.505,3.812,8.505,8.49
			C16.211,497.224,12.399,501.034,7.706,501.034z M7.706,484.969c-4.174,0-7.563,3.389-7.563,7.563c0,4.174,3.39,7.578,7.563,7.578
			c4.175,0,7.572-3.404,7.572-7.578C15.278,488.356,11.881,484.969,7.706,484.969z"/>
		<path display="inline" fill="#EBEBEB" stroke="#EBEBEB" stroke-miterlimit="10" d="M749.551,160.02
			c0,2.578-2.069,4.646-4.646,4.646c-2.57,0-4.65-2.068-4.65-4.646c0-2.568,2.08-4.648,4.65-4.648
			C747.48,155.371,749.551,157.451,749.551,160.02z"/>
		<path display="inline" fill="#EBEBEB" stroke="#EBEBEB" stroke-miterlimit="10" d="M359.464-92.695
			c0,1.803-1.463,3.275-3.276,3.275c-1.818,0-3.271-1.473-3.271-3.275c0-1.822,1.453-3.283,3.271-3.283
			C358.001-95.979,359.464-94.518,359.464-92.695z"/>
		<path display="inline" fill="#EBEBEB" stroke="#EBEBEB" stroke-miterlimit="10" d="M656.31,118.624
			c0,1.801-1.463,3.273-3.272,3.273c-1.822,0-3.285-1.473-3.285-3.273c0-1.822,1.463-3.285,3.285-3.285
			C654.847,115.339,656.31,116.802,656.31,118.624z"/>
		<path display="inline" fill="#EBEBEB" stroke="#EBEBEB" stroke-miterlimit="10" d="M405.822,514.367
			c0,1.811-1.463,3.283-3.275,3.283c-1.82,0-3.272-1.474-3.272-3.283c0-1.813,1.452-3.285,3.272-3.285
			C404.359,511.082,405.822,512.555,405.822,514.367z"/>
		<path display="inline" fill="#EBEBEB" stroke="#EBEBEB" stroke-miterlimit="10" d="M376.999,482.625
			c0,2.566-2.07,4.637-4.637,4.637c-2.568,0-4.66-2.069-4.66-4.637c0-2.578,2.092-4.658,4.66-4.658
			C374.929,477.967,376.999,480.047,376.999,482.625z"/>
		<path display="inline" fill="#EBEBEB" stroke="#EBEBEB" stroke-miterlimit="10" d="M499.903-76.037
			c0,1.813-1.463,3.275-3.283,3.275c-1.813,0-3.266-1.463-3.266-3.275c0-1.811,1.452-3.283,3.266-3.283
			C498.44-79.32,499.903-77.848,499.903-76.037z"/>
		<path display="inline" fill="#EBEBEB" stroke="#EBEBEB" stroke-miterlimit="10" d="M249.437-19.051
			c0,1.801-1.465,3.266-3.277,3.266c-1.82,0-3.273-1.465-3.273-3.266c0-1.83,1.453-3.285,3.273-3.285
			C247.972-22.336,249.437-20.881,249.437-19.051z"/>
		<path display="inline" fill="#EBEBEB" stroke="#EBEBEB" stroke-miterlimit="10" d="M496.635,414.339
			c0,1.813-1.473,3.274-3.285,3.274c-1.812,0-3.274-1.463-3.274-3.274c0-1.821,1.463-3.282,3.274-3.282
			C495.162,411.057,496.635,412.518,496.635,414.339z"/>
		<path display="inline" fill="#EBEBEB" stroke="#EBEBEB" stroke-miterlimit="10" d="M-6.692,265.934
			c0,1.801-1.463,3.273-3.275,3.273c-1.82,0-3.283-1.473-3.283-3.273c0-1.822,1.463-3.285,3.283-3.285
			C-8.155,262.649-6.692,264.112-6.692,265.934z"/>
		<path display="inline" fill="#EBEBEB" stroke="#EBEBEB" stroke-miterlimit="10" d="M722.405,0.108
			c0,1.801-1.463,3.273-3.275,3.273c-1.82,0-3.283-1.473-3.283-3.273c0-1.822,1.463-3.285,3.283-3.285
			C720.942-3.177,722.405-1.714,722.405,0.108z"/>
		<path display="inline" fill="#EBEBEB" stroke="#EBEBEB" stroke-miterlimit="10" d="M-29.535,44.03c0,2.57-2.07,4.647-4.649,4.647
			c-2.568,0-4.647-2.078-4.647-4.647c0-2.578,2.079-4.646,4.647-4.646C-31.605,39.383-29.535,41.452-29.535,44.03z"/>
		<polygon display="inline" fill="#EBEBEB" stroke="#EBEBEB" stroke-miterlimit="10" points="-0.944,348.624 -9.464,348.624 
			-9.464,339.807 -10.479,339.807 -10.479,348.624 -18.999,348.624 -18.999,349.561 -10.479,349.561 -10.479,358.449 
			-9.464,358.449 -9.464,349.561 -0.944,349.561 		"/>
		<polygon display="inline" fill="#EBEBEB" stroke="#EBEBEB" stroke-miterlimit="10" points="648.462,135.706 639.944,135.706 
			639.944,126.888 638.928,126.888 638.928,135.706 630.41,135.706 630.41,136.644 638.928,136.644 638.928,145.542 
			639.944,145.542 639.944,136.644 648.462,136.644 		"/>
		<polygon display="inline" fill="#EBEBEB" stroke="#EBEBEB" stroke-miterlimit="10" points="386.463,532.621 377.943,532.621 
			377.943,523.803 376.928,523.803 376.928,532.621 368.418,532.621 368.418,533.566 376.928,533.566 376.928,542.455 
			377.943,542.455 377.943,533.566 386.463,533.566 		"/>
		<polygon display="inline" fill="#EBEBEB" stroke="#EBEBEB" stroke-miterlimit="10" points="544.554,-93.484 531.277,-93.484 
			531.277,-107.23 529.683,-107.23 529.683,-93.484 516.416,-93.484 516.416,-92.02 529.683,-92.02 529.683,-78.168 
			531.277,-78.168 531.277,-92.02 544.554,-92.02 		"/>
		<path display="inline" fill="#EBEBEB" stroke="#EBEBEB" stroke-miterlimit="10" d="M27.247,322.434
			c0,2.571-2.07,4.649-4.648,4.649c-2.568,0-4.648-2.078-4.648-4.649c0-2.578,2.08-4.646,4.648-4.646
			C25.177,317.787,27.247,319.855,27.247,322.434z"/>
		<path display="inline" fill="#EBEBEB" stroke="#EBEBEB" stroke-miterlimit="10" d="M706.315,20.012c0,2.572-2.07,4.65-4.648,4.65
			c-2.568,0-4.648-2.078-4.648-4.65c0-2.578,2.08-4.646,4.648-4.646C704.245,15.366,706.315,17.434,706.315,20.012z"/>
	</g>
</g>
</svg>
