<svg xmlns="http://www.w3.org/2000/svg" viewBox="-20 -20 1240 928.254">
  <rect x="-20" y="-20" width="1240" height="928.254" fill="white" />
  <g fill-rule="evenodd" fill="none">
    <g transform="translate(2.936 35.726) scale(1.95759)" stroke="#000" stroke-width="3">
      <circle cx="72" cy="72" r="72"/>
      <circle cx="190" cy="104" r="88"/>
    </g>
    <g transform="translate(652.855 35.726) scale(1.95759)" stroke-width="3">
      <circle stroke="#DDD" cx="72" cy="72" r="72"/>
      <circle stroke="#DDD" cx="190" cy="104" r="88"/>
      <path d="M103.899 7.43c22.851 12.477 46.302 15.789 70.353 9.935" stroke="#000"/>
    </g>
    <g transform="translate(2.936 509.462) scale(1.95759)">
      <circle stroke="#DDD" stroke-width="3" cx="72" cy="72" r="72"/>
      <circle stroke="#DDD" stroke-width="3" cx="190" cy="104" r="88"/>
      <path d="M103.899 7.43c22.851 12.477 46.302 15.789 70.353 9.935M66.097 143.635c26.028.62 47.993 9.476 65.895 26.571" stroke="#000" stroke-width="3"/>
      <path d="M68.097 144c-8.39-59.081 4.21-104.605 37.802-136.57M131.5 169.849c-10.406-60.977 3.844-111.805 42.752-152.484" stroke="#000" stroke-width="4"/>
    </g>
    <path d="M793.801 509.462c22.421 0 43.62 5.235 62.44 14.55l.004-.008.23.124c1.952.97 3.878 1.985 5.778 3.042 39.876 20.3 80.682 26.405 122.417 18.317 2.558-.617 5.14-1.171 7.744-1.666a85.21 85.21 0 0 0 1.553-.367 33.451 33.451 0 0 1 6.207-.93 174.432 174.432 0 0 1 24.622-1.741c95.14 0 172.268 77.127 172.268 172.268 0 95.14-77.127 172.267-172.268 172.267-41.46 0-79.5-14.647-109.227-39.049a39.689 39.689 0 0 1-4.329-3.614c-.335-.32-.67-.638-1.007-.955a160.358 160.358 0 0 1-3.796-3.48c-30.98-27.733-67.933-43.359-110.858-46.88l-1.778.014c-77.842 0-140.946-63.104-140.946-140.946 0-77.843 63.104-140.946 140.946-140.946z" stroke="#000" stroke-width="5.873"/>
    <text y="-29.978" x="-48" font-family="ArialMT, Arial" font-size="24" fill="#000" transform="translate(-.979 -1.468) scale(1.95759)"><tspan x="334" y="19.022">2.</tspan><tspan x="334" y="262.022">4.</tspan></text>
    <text y="-29.978" x="-48" font-family="ArialMT, Arial" font-size="24" fill="#000" transform="translate(-.979 -1.468) scale(1.95759)"><tspan x="2" y="19.022">1.</tspan><tspan x="2" y="262.022">3.</tspan></text>
  </g>
</svg>
