<?xml version="1.0" encoding="UTF-8" standalone="no"?>
<svg
   xmlns:dc="http://purl.org/dc/elements/1.1/"
   xmlns:cc="http://creativecommons.org/ns#"
   xmlns:rdf="http://www.w3.org/1999/02/22-rdf-syntax-ns#"
   xmlns:svg="http://www.w3.org/2000/svg"
   xmlns="http://www.w3.org/2000/svg"
   xmlns:sodipodi="http://sodipodi.sourceforge.net/DTD/sodipodi-0.dtd"
   xmlns:inkscape="http://www.inkscape.org/namespaces/inkscape"
   inkscape:version="1.0beta2 (2b71d25, 2019-12-03)"
   sodipodi:docname="2d.svg"
   id="svg903"
   version="1.1"
   viewBox="0 0 1200 888.25446"
   height="888.25446"
   width="1200">
  <metadata
     id="metadata909">
    <rdf:RDF>
      <cc:Work
         rdf:about="">
        <dc:format>image/svg+xml</dc:format>
        <dc:type
           rdf:resource="http://purl.org/dc/dcmitype/StillImage" />
        <dc:title>Page 1</dc:title>
      </cc:Work>
    </rdf:RDF>
  </metadata>
  <defs
     id="defs907" />
  <sodipodi:namedview
     inkscape:current-layer="Page-1"
     inkscape:window-maximized="1"
     inkscape:window-y="23"
     inkscape:window-x="0"
     inkscape:cy="232.10489"
     inkscape:cx="348.78443"
     inkscape:zoom="0.60477965"
     fit-margin-bottom="0"
     fit-margin-right="0"
     fit-margin-left="0"
     fit-margin-top="0"
     showgrid="false"
     id="namedview905"
     inkscape:window-height="1395"
     inkscape:window-width="2560"
     inkscape:pageshadow="2"
     inkscape:pageopacity="0"
     guidetolerance="10"
     gridtolerance="10"
     objecttolerance="10"
     borderopacity="1"
     inkscape:document-rotation="0"
     bordercolor="#666666"
     pagecolor="#ffffff" />
  <!-- Generator: Sketch 62 (91390) - https://sketch.com -->
  <title
     id="title833">Page 1</title>
  <desc
     id="desc835">Created with Sketch.</desc>
  <g
     transform="matrix(1.9575856,0,0,1.9575856,-0.9787928,-1.4681892)"
     fill-rule="evenodd"
     fill="none"
     stroke-width="1"
     stroke="none"
     id="Page-1">
    <g
       id="Group"
       transform="translate(2,19)"
       stroke="#000000"
       stroke-width="3">
      <circle
         id="Oval"
         cx="72"
         cy="72"
         r="72" />
      <circle
         id="circle838"
         cx="190"
         cy="104"
         r="88" />
    </g>
    <g
       id="Group-2"
       transform="translate(334,19)"
       stroke-width="3">
      <circle
         id="circle841"
         stroke="#DDDDDD"
         cx="72"
         cy="72"
         r="72" />
      <circle
         id="circle843"
         stroke="#DDDDDD"
         cx="190"
         cy="104"
         r="88" />
      <path
         d="m 103.89888,7.4291971 c 22.85121,12.4778449 46.30216,15.7897969 70.35286,9.9358549"
         id="Path"
         stroke="#000000"
         inkscape:connector-curvature="0" />
    </g>
    <g
       id="Group-3"
       transform="translate(2,261)">
      <circle
         id="circle847"
         stroke="#DDDDDD"
         stroke-width="3"
         cx="72"
         cy="72"
         r="72" />
      <circle
         id="circle849"
         stroke="#DDDDDD"
         stroke-width="3"
         cx="190"
         cy="104"
         r="88" />
      <path
         d="m 103.89888,7.4291971 c 22.85121,12.4778449 46.30216,15.7897969 70.35286,9.9358549"
         id="path851"
         stroke="#000000"
         stroke-width="3"
         inkscape:connector-curvature="0" />
      <path
         d="m 64.568956,149.33642 c 22.851206,12.47785 46.302164,15.7898 70.352854,9.93586"
         id="path853"
         stroke="#000000"
         stroke-width="3"
         transform="matrix(0.8660254,0.5,0.5,-0.8660254,-64.489836,240.67934)"
         inkscape:connector-curvature="0" />
      <path
         d="M 68.096732,144 C 59.706815,84.918549 72.307532,39.394948 105.89888,7.4291971"
         id="Path-2"
         stroke="#000000"
         stroke-width="4"
         inkscape:connector-curvature="0" />
      <path
         d="M 131.5,169.84904 C 121.09375,108.87222 135.34433,58.044221 174.25174,17.365052"
         id="Path-3"
         stroke="#000000"
         stroke-width="4"
         inkscape:connector-curvature="0" />
    </g>
    <path
       d="m 406,261 c 11.4536,0 22.28257,2.67441 31.89648,7.43282 l 0.002,-0.004 0.11734,0.063 c 0.9972,0.49588 1.98128,1.0142 2.95156,1.55431 20.37025,10.3697 41.21534,13.48823 62.53482,9.35684 1.30688,-0.31537 2.62616,-0.59823 3.95605,-0.85116 0.26477,-0.0596 0.52889,-0.12285 0.79309,-0.18716 1.0851,-0.26411 2.14201,-0.42244 3.17073,-0.47499 C 515.52918,277.30426 519.72906,277 524,277 c 48.60106,0 88,39.39894 88,88 0,48.60106 -39.39894,88 -88,88 -21.17956,0 -40.61157,-7.48216 -55.79697,-19.94743 -0.73147,-0.52205 -1.46894,-1.13752 -2.21101,-1.84616 -0.17116,-0.16345 -0.3427,-0.32615 -0.51461,-0.4881 -0.656,-0.58177 -1.30199,-1.17489 -1.93898,-1.77743 -15.82569,-14.16698 -34.70287,-22.1492 -56.63001,-23.94845 L 406,405 c -39.7645,0 -72,-32.2355 -72,-72 0,-39.7645 32.2355,-72 72,-72 z"
       id="Combined-Shape"
       stroke="#000000"
       stroke-width="3"
       inkscape:connector-curvature="0" />
    <text
       y="-29.978333"
       x="-48"
       id="1.-3."
       font-family="ArialMT, Arial"
       font-size="24"
       font-weight="normal"
       fill="#000000"><tspan
         x="334"
         y="19.021667"
         id="tspan859">2.</tspan><tspan
         x="334"
         y="46.021667"
         id="tspan861" /><tspan
         x="334"
         y="73.021667"
         id="tspan863" /><tspan
         x="334"
         y="100.02167"
         id="tspan865" /><tspan
         x="334"
         y="127.02167"
         id="tspan867" /><tspan
         x="334"
         y="154.02167"
         id="tspan869" /><tspan
         x="334"
         y="181.02167"
         id="tspan871" /><tspan
         x="334"
         y="208.02167"
         id="tspan873" /><tspan
         x="334"
         y="235.02167"
         id="tspan875" /><tspan
         x="334"
         y="262.02167"
         id="tspan877">4.</tspan></text>
    <text
       y="-29.978333"
       x="-48"
       id="2.-4."
       font-family="ArialMT, Arial"
       font-size="24"
       font-weight="normal"
       fill="#000000"><tspan
         x="2"
         y="19.021667"
         id="tspan880">1.</tspan><tspan
         x="2"
         y="46.021667"
         id="tspan882" /><tspan
         x="2"
         y="73.021667"
         id="tspan884" /><tspan
         x="2"
         y="100.02167"
         id="tspan886" /><tspan
         x="2"
         y="127.02167"
         id="tspan888" /><tspan
         x="2"
         y="154.02167"
         id="tspan890" /><tspan
         x="2"
         y="181.02167"
         id="tspan892" /><tspan
         x="2"
         y="208.02167"
         id="tspan894" /><tspan
         x="2"
         y="235.02167"
         id="tspan896" /><tspan
         x="2"
         y="262.02167"
         id="tspan898">3.</tspan></text>
  </g>
</svg>
