<svg version="1" xmlns="http://www.w3.org/2000/svg" width="682.667" height="682.667" viewBox="0 0 512.000000 512.000000"><path d="M0 256.4V384l31.3-.2 31.2-.3.3-95.8.2-95.7h2.3c4.8 0 15.3 3.2 21.6 6.5 11.1 5.9 19.2 15.1 24.4 27.8 2.2 5.1 2.2 6.3 2.7 81.2l.5 76 28.8.3 28.7.2v-72.2c0-80.4 0-80.4 6.6-92.8 6.4-12.3 18.9-21.7 33.9-25.5 3.2-.8 7.2-1.5 8.7-1.5h2.8v192h64V192h2.8c1.5 0 5.5.7 8.7 1.5 15 3.8 27.5 13.2 33.9 25.5 6.6 12.4 6.6 12.4 6.6 92.8V384l28.8-.2 28.7-.3.5-76c.5-74.9.5-76.1 2.7-81.2 5.2-12.7 13.3-21.9 24.4-27.8 6.3-3.3 16.8-6.5 21.6-6.5h2.3l.2 95.7.3 95.8 31.3.3 31.2.2V128.8l-39.2.4c-38.5.4-39.5.5-48.9 3-20 5.4-36.7 14.5-48.4 26.3l-7 7-5-5.4c-13.3-14.4-35.6-25.6-58.9-29.6-6.9-1.2-17.5-1.5-48.6-1.5s-41.7.3-48.6 1.5c-23.3 4-45.6 15.2-58.9 29.6l-5 5.4-7-7c-11.7-11.8-28.4-20.9-48.4-26.3-9.4-2.5-10.4-2.6-48.8-3L0 128.8v127.6z"/></svg>