<?xml version="1.0" encoding="UTF-8" standalone="no"?>
<!-- Generator: Adobe Illustrator 16.0.0, SVG Export Plug-In . SVG Version: 6.00 Build 0)  -->

<svg
   xmlns:dc="http://purl.org/dc/elements/1.1/"
   xmlns:cc="http://creativecommons.org/ns#"
   xmlns:rdf="http://www.w3.org/1999/02/22-rdf-syntax-ns#"
   xmlns:svg="http://www.w3.org/2000/svg"
   xmlns="http://www.w3.org/2000/svg"
   xmlns:sodipodi="http://sodipodi.sourceforge.net/DTD/sodipodi-0.dtd"
   xmlns:inkscape="http://www.inkscape.org/namespaces/inkscape"
   version="1.1"
   id="Layer_1"
   x="0px"
   y="0px"
   width="30.00034"
   height="30"
   viewBox="0 0 30.000338 29.999999"
   enable-background="new 0 0 65.258 12.824"
   xml:space="preserve"
   inkscape:version="0.91+devel+osxmenu r12896"
   sodipodi:docname="null-object-logo-30.svg"><metadata
     id="metadata4523"><rdf:RDF><cc:Work
         rdf:about=""><dc:format>image/svg+xml</dc:format><dc:type
           rdf:resource="http://purl.org/dc/dcmitype/StillImage" /><dc:title></dc:title></cc:Work></rdf:RDF></metadata><defs
     id="defs4521" /><sodipodi:namedview
     pagecolor="#ffffff"
     bordercolor="#666666"
     borderopacity="1"
     objecttolerance="10"
     gridtolerance="10"
     guidetolerance="10"
     inkscape:pageopacity="0"
     inkscape:pageshadow="2"
     inkscape:window-width="1680"
     inkscape:window-height="1005"
     id="namedview4519"
     showgrid="false"
     fit-margin-top="0"
     fit-margin-left="0"
     fit-margin-right="0"
     fit-margin-bottom="0"
     inkscape:zoom="4.7197276"
     inkscape:cx="96.782403"
     inkscape:cy="14.9995"
     inkscape:window-x="0"
     inkscape:window-y="23"
     inkscape:window-maximized="0"
     inkscape:current-layer="Layer_1" /><path
     style="clip-rule:evenodd;fill:#fec40e;fill-rule:evenodd;stroke-width:0.25646004"
     inkscape:connector-curvature="0"
     d="m 15.000169,0 c 8.28612,0 15.000169,6.7168371 15.000169,15.003508 0,6.398659 -4.005036,11.859159 -9.645305,14.016221 L 19.042635,26.404117 8.5762041,5.5330261 c -3.027171,2.058801 -5.0179919,5.5306869 -5.0179919,9.4704819 0,5.394993 3.7360059,9.919676 8.7586758,11.124542 L 9.4885661,20.487404 10.487485,17.47173 7.7620961,12.039304 8.4451981,9.9758241 12.00341,17.071667 l 4.950149,9.865866 1.352168,2.697497 c -1.064422,0.240972 -2.170954,0.364968 -3.307898,0.364968 C 6.7163891,30.002298 0,23.287841 0,15.003508 0,8.5767761 4.0401266,3.0952195 9.7178271,0.9592139 l 1.3123969,2.617952 10.459413,20.8523731 c 2.99208,-2.063479 4.952488,-5.51431 4.952488,-9.426031 0,-5.3949929 -3.733666,-9.9173349 -8.756336,-11.1268803 l 2.830662,5.6429854 -0.99892,3.0133349 2.755802,5.495594 -0.683102,2.063479 L 18.029679,12.993838 13.049118,3.0648054 11.694611,0.3673088 C 12.759033,0.1263355 13.865564,0 15.000169,0 Z"
     id="path4517" /></svg>