<?xml version="1.0" encoding="UTF-8" standalone="no"?>
<!-- Generator: Adobe Illustrator 16.0.0, SVG Export Plug-In . SVG Version: 6.00 Build 0)  -->

<svg
   xmlns:dc="http://purl.org/dc/elements/1.1/"
   xmlns:cc="http://creativecommons.org/ns#"
   xmlns:rdf="http://www.w3.org/1999/02/22-rdf-syntax-ns#"
   xmlns:svg="http://www.w3.org/2000/svg"
   xmlns="http://www.w3.org/2000/svg"
   xmlns:sodipodi="http://sodipodi.sourceforge.net/DTD/sodipodi-0.dtd"
   xmlns:inkscape="http://www.inkscape.org/namespaces/inkscape"
   version="1.1"
   x="0px"
   y="0px"
   width="1100"
   height="1100"
   viewBox="0 0 1100 1100"
   enable-background="new 0 0 1200 1000"
   xml:space="preserve"
   id="svg10"
   inkscape:version="0.91+devel+osxmenu r12922"
   sodipodi:docname="poly-2.svg"><metadata
     id="metadata440"><rdf:RDF><cc:Work
         rdf:about=""><dc:format>image/svg+xml</dc:format><dc:type
           rdf:resource="http://purl.org/dc/dcmitype/StillImage" /><dc:title /></cc:Work></rdf:RDF></metadata><defs
     id="defs438" /><sodipodi:namedview
     pagecolor="#ffffff"
     bordercolor="#666666"
     borderopacity="1"
     objecttolerance="10"
     gridtolerance="10"
     guidetolerance="10"
     inkscape:pageopacity="0"
     inkscape:pageshadow="2"
     inkscape:window-width="1676"
     inkscape:window-height="1005"
     id="namedview436"
     showgrid="false"
     fit-margin-top="0"
     fit-margin-left="0"
     fit-margin-right="0"
     fit-margin-bottom="0"
     inkscape:zoom="0.6675088"
     inkscape:cx="551.43948"
     inkscape:cy="453.08606"
     inkscape:window-x="0"
     inkscape:window-y="23"
     inkscape:window-maximized="0"
     inkscape:current-layer="svg10" /><g
     id="Ñëîé_2"
     transform="translate(1171.2143,631.34991)"
     style="fill:#CB3F66;fill-opacity:1" /><g
     id="g390"
     transform="translate(-39.4015,122.0885)"
     style="fill:#CB3F66;fill-opacity:1;opacity:1"><path
       d="m 201.792,336.302 c -7.397,0 -13.415,-6.013 -13.415,-13.424 0,-7.397 6.017,-13.415 13.415,-13.415 7.398,0 13.425,6.018 13.425,13.415 -0.001,7.411 -6.028,13.424 -13.425,13.424 z m 0,-25.367 c -6.59,0 -11.953,5.353 -11.953,11.943 0,6.59 5.363,11.965 11.953,11.965 6.592,0 11.954,-5.375 11.954,-11.965 0,-6.59 -5.363,-11.943 -11.954,-11.943 z"
       id="path392"
       inkscape:connector-curvature="0"
       style="fill:#CB3F66;fill-opacity:1" /><path
       d="m 976.666,319.214 c -7.398,0 -13.414,-6.017 -13.414,-13.426 0,-7.411 6.016,-13.426 13.414,-13.426 7.398,0 13.426,6.015 13.426,13.426 0,7.409 -6.028,13.426 -13.426,13.426 z m 0,-25.369 c -6.592,0 -11.953,5.351 -11.953,11.943 0,6.59 5.361,11.953 11.953,11.953 6.592,0 11.954,-5.362 11.954,-11.953 0,-6.592 -5.362,-11.943 -11.954,-11.943 z"
       id="path394"
       inkscape:connector-curvature="0"
       style="fill:#CB3F66;fill-opacity:1" /><path
       d="m 759.545,616.846 c -7.398,0 -13.415,-6.016 -13.415,-13.401 0,-7.409 6.017,-13.438 13.415,-13.438 7.409,0 13.437,6.029 13.437,13.438 -10e-4,7.385 -6.028,13.401 -13.437,13.401 z m 0,-25.367 c -6.581,0 -11.946,5.362 -11.946,11.966 0,6.577 5.365,11.941 11.946,11.941 6.602,0 11.965,-5.364 11.965,-11.941 0,-6.604 -5.364,-11.966 -11.965,-11.966 z"
       id="path396"
       inkscape:connector-curvature="0"
       style="fill:#CB3F66;fill-opacity:1" /><path
       d="m 212.127,440.581 c 0,2.864 -2.3,5.163 -5.164,5.163 -2.854,0 -5.167,-2.298 -5.167,-5.163 0,-2.854 2.312,-5.165 5.167,-5.165 2.864,0 5.164,2.311 5.164,5.165 z"
       id="path398"
       inkscape:connector-curvature="0"
       style="fill:#CB3F66;fill-opacity:1" /><path
       d="m 752.972,816.705 c 0,2.003 -1.625,3.64 -3.639,3.64 -2.023,0 -3.65,-1.637 -3.65,-3.64 0,-2.022 1.627,-3.646 3.65,-3.646 2.014,10e-4 3.639,1.624 3.639,3.646 z"
       id="path400"
       inkscape:connector-curvature="0"
       style="fill:#CB3F66;fill-opacity:1" /><path
       d="m 243.246,771.124 c 0,2.003 -1.625,3.638 -3.64,3.638 -2.022,0 -3.636,-1.635 -3.636,-3.638 0,-2.025 1.613,-3.648 3.636,-3.648 2.016,0 3.64,1.623 3.64,3.648 z"
       id="path402"
       inkscape:connector-curvature="0"
       style="fill:#CB3F66;fill-opacity:1" /><path
       d="m 416.249,329.589 c 0,2.001 -1.626,3.637 -3.638,3.637 -2.023,0 -3.65,-1.636 -3.65,-3.637 0,-2.024 1.627,-3.65 3.65,-3.65 2.012,0 3.638,1.625 3.638,3.65 z"
       id="path404"
       inkscape:connector-curvature="0"
       style="fill:#CB3F66;fill-opacity:1" /><path
       d="m 465.493,643.868 c 0,2.001 -1.626,3.638 -3.638,3.638 -2.024,0 -3.65,-1.637 -3.65,-3.638 0,-2.025 1.626,-3.649 3.65,-3.649 2.011,0 3.638,1.624 3.638,3.649 z"
       id="path406"
       inkscape:connector-curvature="0"
       style="fill:#CB3F66;fill-opacity:1" /><path
       d="m 823.236,464.388 c 0,2.001 -1.626,3.638 -3.639,3.638 -2.022,0 -3.649,-1.637 -3.649,-3.638 0,-2.024 1.627,-3.649 3.649,-3.649 2.013,0 3.639,1.625 3.639,3.649 z"
       id="path408"
       inkscape:connector-curvature="0"
       style="fill:#CB3F66;fill-opacity:1" /><path
       d="m 60.638,589.734 c 0,2.013 -1.625,3.648 -3.64,3.648 -2.021,0 -3.636,-1.636 -3.636,-3.648 0,-2.014 1.614,-3.649 3.636,-3.649 2.015,0 3.64,1.636 3.64,3.649 z"
       id="path410"
       inkscape:connector-curvature="0"
       style="fill:#CB3F66;fill-opacity:1" /><path
       d="m 999.073,149.552 c 0,2.85 -2.3,5.151 -5.151,5.151 -2.854,0 -5.177,-2.301 -5.177,-5.151 0,-2.866 2.323,-5.177 5.177,-5.177 2.851,0 5.151,2.311 5.151,5.177 z"
       id="path412"
       inkscape:connector-curvature="0"
       style="fill:#CB3F66;fill-opacity:1" /><path
       d="m 471.066,766.645 c 0,2.849 -2.3,5.151 -5.152,5.151 -2.854,0 -5.176,-2.303 -5.176,-5.151 0,-2.866 2.323,-5.178 5.176,-5.178 2.852,0 5.152,2.311 5.152,5.178 z"
       id="path414"
       inkscape:connector-curvature="0"
       style="fill:#CB3F66;fill-opacity:1" /><path
       d="m 758.135,89.523 c 0,2.851 -2.3,5.151 -5.15,5.151 -2.854,0 -5.178,-2.301 -5.178,-5.151 0,-2.866 2.324,-5.177 5.178,-5.177 2.85,10e-4 5.15,2.312 5.15,5.177 z"
       id="path416"
       inkscape:connector-curvature="0"
       style="fill:#CB3F66;fill-opacity:1" /><path
       d="m 1024.742,643.867 c 0,2.014 -1.625,3.64 -3.647,3.64 -2.015,0 -3.629,-1.626 -3.629,-3.64 0,-2.012 1.614,-3.647 3.629,-3.647 2.022,0 3.647,1.635 3.647,3.647 z"
       id="path418"
       inkscape:connector-curvature="0"
       style="fill:#CB3F66;fill-opacity:1" /><path
       d="m 1105.382,763.003 c 0,2.001 -1.626,3.629 -3.641,3.629 -2.021,0 -3.636,-1.628 -3.636,-3.629 0,-2.033 1.614,-3.65 3.636,-3.65 2.015,0 3.641,1.617 3.641,3.65 z"
       id="path420"
       inkscape:connector-curvature="0"
       style="fill:#CB3F66;fill-opacity:1" /><path
       d="m 88.772,205.773 c 0,2.014 -1.638,3.64 -3.65,3.64 -2.014,0 -3.639,-1.625 -3.639,-3.64 0,-2.024 1.625,-3.647 3.639,-3.647 2.013,-0.001 3.65,1.623 3.65,3.647 z"
       id="path422"
       inkscape:connector-curvature="0"
       style="fill:#CB3F66;fill-opacity:1" /><path
       d="m 469.137,39.128 c 0,2.001 -1.626,3.637 -3.64,3.637 -2.023,0 -3.648,-1.636 -3.648,-3.637 0,-2.024 1.625,-3.65 3.648,-3.65 2.013,10e-4 3.64,1.626 3.64,3.65 z"
       id="path424"
       inkscape:connector-curvature="0"
       style="fill:#CB3F66;fill-opacity:1" /><polygon
       points="1114.848,362.75 1114.848,372.548 1105.382,372.548 1105.382,373.588 1114.848,373.588 1114.848,383.463 1115.976,383.463 1115.976,373.588 1125.441,373.588 1125.441,372.548 1115.976,372.548 1115.976,362.75 "
       id="polygon426"
       style="fill:#CB3F66;fill-opacity:1" /><polygon
       points="829.059,690.797 829.059,700.594 819.593,700.594 819.593,701.633 829.059,701.633 829.059,711.509 830.188,711.509 830.188,701.633 839.652,701.633 839.652,700.594 830.188,700.594 830.188,690.797 "
       id="polygon428"
       style="fill:#CB3F66;fill-opacity:1" /><polygon
       points="389.529,334.542 389.529,344.34 380.066,344.34 380.066,345.382 389.529,345.382 389.529,355.268 390.659,355.268 390.659,345.382 400.123,345.382 400.123,344.34 390.659,344.34 390.659,334.542 "
       id="polygon430"
       style="fill:#CB3F66;fill-opacity:1" /><polygon
       points="130.601,599.157 130.601,608.955 121.146,608.955 121.146,610.005 130.601,610.005 130.601,619.882 131.729,619.882 131.729,610.005 141.196,610.005 141.196,608.955 131.729,608.955 131.729,599.157 "
       id="polygon432"
       style="fill:#CB3F66;fill-opacity:1" /><path
       d="m 512.217,94.673 c 0,2.856 -2.3,5.165 -5.166,5.165 -2.854,0 -5.164,-2.309 -5.164,-5.165 0,-2.865 2.31,-5.163 5.164,-5.163 2.866,0 5.166,2.298 5.166,5.163 z"
       id="path434"
       inkscape:connector-curvature="0"
       style="fill:#CB3F66;fill-opacity:1" /></g></svg>