<svg xmlns="http://www.w3.org/2000/svg" width="304" height="232" fill="none"><path fill="#fff" d="M0 0h304v232H0z"/><rect width="3.941" height="10.515" x="267.576" y="16" fill="#835A3C" rx="1.97" transform="rotate(14.18 267.576 16)"/><path fill="#835A3C" d="M254.352 24.341c4.697-3.558 6.185-6.66 3.686-13.02a1.84 1.84 0 0 0-2.758-.841c-5.49 3.76-6.522 7.063-3.739 13.158a1.853 1.853 0 0 0 2.811.703Z"/><path fill="#F5B953" d="M199 169h-12l1.935 50h7.742L199 169ZM213 169h-12l1.935 50h7.742L213 169ZM244 169h-12l1.935 50h7.742L244 169ZM258 169h-12l1.935 50h7.742L258 169ZM286.574 27.677 258.681 23.1c-6.792-1.114-13.019 3.99-13.26 10.868-.229 6.539 5.073 11.933 11.616 11.816l28.261-.506a8.86 8.86 0 0 0 1.276-17.602Z"/><path fill="#F5B953" d="m242.5 137 3-102 10 5.5L258 137v32h-71v-11c0-11.5 6.5-21 21.5-21h34Z"/><path fill="#4D5D7A" fill-rule="evenodd" d="m188.548 209 .387 10h7.742l.465-10h-8.594ZM202.548 209l.387 10h7.742l.465-10h-8.594ZM233.548 209l.387 10h7.742l.465-10h-8.594ZM247.548 209l.387 10h7.742l.465-10h-8.594Z" clip-rule="evenodd"/><path fill="#835A3C" d="M248.648 29.154c1.403-5.722.602-9.068-5.346-12.43a1.84 1.84 0 0 0-2.672 1.085c-1.892 6.38-.61 9.594 5.392 12.572a1.855 1.855 0 0 0 2.626-1.227Z"/><rect width="3.941" height="10.515" x="261.576" y="16" fill="#835A3C" rx="1.97" transform="rotate(14.18 261.576 16)"/><circle cx="256" cy="33" r="4" fill="#4D5D7A"/><path stroke="#F5B953" stroke-width="6" d="M170 171.135c0-17 5.5-28.135 27.123-28.135"/><path fill="#835A3C" d="m175.029 171.331-3.286-2.551a2.999 2.999 0 0 0-3.603-.056l-3.624 2.634a3 3 0 0 0-1.034 3.511l3.336 8.604c.979 2.526 4.54 2.563 5.571.057l3.575-8.687a3.002 3.002 0 0 0-.935-3.512Z"/><path fill="#AF7142" d="M269 117.5a9.5 9.5 0 0 1-9.5 9.5 9.5 9.5 0 0 1-9.5-9.5 9.5 9.5 0 0 1 9.5-9.5 9.5 9.5 0 0 1 9.5 9.5ZM254 79a8 8 0 1 1-16 0 8 8 0 0 1 16 0ZM246 148a6 6 0 1 1-12 0 6 6 0 0 1 12 0ZM265 169a8 8 0 1 1-16 0 8 8 0 0 1 16 0ZM218 134.5c0 5.799-4.701 10.5-10.5 10.5s-10.5-4.701-10.5-10.5 4.701-10.5 10.5-10.5 10.5 4.701 10.5 10.5ZM198 166.5c0 5.799-4.701 10.5-10.5 10.5s-10.5-4.701-10.5-10.5 4.701-10.5 10.5-10.5 10.5 4.701 10.5 10.5ZM232 162.5c0 5.799-4.701 10.5-10.5 10.5s-10.5-4.701-10.5-10.5 4.701-10.5 10.5-10.5 10.5 4.701 10.5 10.5Z"/><rect width="2.941" height="9.515" x="116.938" y="16.607" stroke="#000" rx="1.47" transform="rotate(14.18 116.938 16.607)"/><path stroke="#000" d="M103.352 24.341c4.697-3.558 6.185-6.66 3.686-13.02a1.84 1.84 0 0 0-2.758-.841c-5.49 3.76-6.522 7.063-3.739 13.158a1.853 1.853 0 0 0 2.811.703ZM48 169H36l1.935 50h7.742L48 169ZM62 169H50l1.935 50h7.742L62 169ZM93 169H81l1.936 50h7.741L93 169ZM107 169H95l1.936 50h7.741L107 169Z"/><path stroke="#000" d="M135.574 27.677 107.681 23.1c-6.792-1.114-13.02 3.99-13.26 10.868-.229 6.539 5.073 11.933 11.616 11.816l28.261-.506a8.86 8.86 0 0 0 1.276-17.602Z"/><path stroke="#000" d="m91.5 137 3-102 10 5.5L107 137v32H36v-11c0-11.5 6.5-21 21.5-21h34Z"/><mask id="a" fill="#fff"><path fill-rule="evenodd" d="m37.548 209 .387 10h7.742l.465-10h-8.594Z" clip-rule="evenodd"/></mask><path fill="#000" d="M37.548 209v-1h-1.04l.041 1.039 1-.039Zm.387 10-.999.039.037.961h.962v-1Zm7.742 0v1h.955l.044-.954-.999-.046Zm.465-10 .999.046.048-1.046h-1.047v1Zm-9.593.039.387 10 1.999-.078-.387-10-1.999.078ZM37.935 220h7.742v-2h-7.742v2Zm8.741-.954.465-10-1.998-.092-.465 10 1.998.092ZM46.142 208h-8.594v2h8.594v-2Z" mask="url(#a)"/><mask id="b" fill="#fff"><path fill-rule="evenodd" d="m51.548 209 .387 10h7.742l.465-10h-8.594Z" clip-rule="evenodd"/></mask><path fill="#000" d="M51.548 209v-1h-1.04l.041 1.039 1-.039Zm.387 10-.999.039.038.961h.962v-1Zm7.742 0v1h.955l.044-.954-.999-.046Zm.465-10 .999.046.049-1.046h-1.048v1Zm-9.593.039.387 10 1.999-.078-.387-10-1.999.078ZM51.935 220h7.742v-2h-7.742v2Zm8.741-.954.465-10-1.998-.092-.465 10 1.998.092ZM60.142 208h-8.594v2h8.594v-2Z" mask="url(#b)"/><mask id="c" fill="#fff"><path fill-rule="evenodd" d="m82.548 209 .388 10h7.741l.465-10h-8.594Z" clip-rule="evenodd"/></mask><path fill="#000" d="M82.548 209v-1h-1.04l.041 1.039 1-.039Zm.388 10-1 .039.037.961h.963v-1Zm7.741 0v1h.955l.044-.954-.999-.046Zm.465-10 .999.046.048-1.046h-1.047v1Zm-9.593.039.387 10 1.999-.078-.387-10-1.999.078ZM82.935 220h7.742v-2h-7.742v2Zm8.741-.954.465-10-1.998-.092-.465 10 1.998.092ZM91.142 208h-8.594v2h8.594v-2Z" mask="url(#c)"/><mask id="d" fill="#fff"><path fill-rule="evenodd" d="m96.548 209 .388 10h7.741l.465-10h-8.594Z" clip-rule="evenodd"/></mask><path fill="#000" d="M96.548 209v-1h-1.04l.041 1.039 1-.039Zm.388 10-1 .039.037.961h.963v-1Zm7.741 0v1h.955l.044-.954-.999-.046Zm.465-10 .999.046.048-1.046h-1.047v1Zm-9.593.039.387 10 1.999-.078-.387-10-1.999.078ZM96.935 220h7.742v-2h-7.742v2Zm8.741-.954.465-10-1.998-.092-.464 10 1.997.092ZM105.142 208h-8.594v2h8.594v-2Z" mask="url(#d)"/><path stroke="#000" d="M97.648 29.154c1.403-5.722.602-9.068-5.346-12.43a1.84 1.84 0 0 0-2.672 1.085c-1.892 6.38-.61 9.594 5.392 12.572a1.854 1.854 0 0 0 2.626-1.227Z"/><rect width="2.941" height="9.515" x="110.938" y="16.607" stroke="#000" rx="1.47" transform="rotate(14.18 110.938 16.607)"/><circle cx="105" cy="33" r="3.5" stroke="#000"/><path stroke="#000" d="M19 171.135c0-17 5.5-28.135 27.123-28.135"/><path stroke="#000" d="m24.029 171.331-3.286-2.551a3 3 0 0 0-3.603-.056l-3.624 2.634a3 3 0 0 0-1.034 3.511l3.336 8.604c.979 2.526 4.54 2.563 5.571.057l3.575-8.687a3.001 3.001 0 0 0-.935-3.512ZM117.5 117.5a9 9 0 0 1-9 9 9 9 0 0 1-9-9 9 9 0 0 1 9-9 9 9 0 0 1 9 9Zm-15-38.5a7.5 7.5 0 1 1-15 0 7.5 7.5 0 0 1 15 0Zm-8 69a5.5 5.5 0 1 1-11 0 5.5 5.5 0 0 1 11 0Zm19 21a7.5 7.5 0 1 1-15 0 7.5 7.5 0 0 1 15 0Zm-47-34.5c0 5.523-4.477 10-10 10s-10-4.477-10-10 4.477-10 10-10 10 4.477 10 10Zm-20 32c0 5.523-4.477 10-10 10s-10-4.477-10-10 4.477-10 10-10 10 4.477 10 10Zm34-4c0 5.523-4.477 10-10 10s-10-4.477-10-10 4.477-10 10-10 10 4.477 10 10Z"/></svg>